<svg xmlns="http://www.w3.org/2000/svg" viewBox="0 0 500 372.61"><g id="Background_Complete" data-name="Background Complete"><rect y="327.45" width="500" height="0.25" fill="#ebebeb"/><rect x="416.78" y="343.54" width="33.12" height="0.25" fill="#ebebeb"/><rect x="322.53" y="346.26" width="8.69" height="0.25" fill="#ebebeb"/><rect x="396.59" y="334.26" width="19.19" height="0.25" fill="#ebebeb"/><rect x="52.46" y="335.94" width="43.19" height="0.25" fill="#ebebeb"/><rect x="104.56" y="335.94" width="6.33" height="0.25" fill="#ebebeb"/><rect x="131.47" y="340.16" width="93.68" height="0.25" fill="#ebebeb"/><path d="M237,282.85H43.91a5.71,5.71,0,0,1-5.7-5.71V5.71A5.71,5.71,0,0,1,43.91,0H237a5.71,5.71,0,0,1,5.71,5.71V277.14A5.71,5.71,0,0,1,237,282.85ZM43.91.25a5.46,5.46,0,0,0-5.45,5.46V277.14a5.46,5.46,0,0,0,5.45,5.46H237a5.47,5.47,0,0,0,5.46-5.46V5.71A5.47,5.47,0,0,0,237,.25Z" fill="#ebebeb"/><path d="M453.31,282.85H260.21a5.72,5.72,0,0,1-5.71-5.71V5.71A5.72,5.72,0,0,1,260.21,0h193.1A5.71,5.71,0,0,1,459,5.71V277.14A5.71,5.71,0,0,1,453.31,282.85ZM260.21.25a5.47,5.47,0,0,0-5.46,5.46V277.14a5.47,5.47,0,0,0,5.46,5.46h193.1a5.47,5.47,0,0,0,5.46-5.46V5.71A5.47,5.47,0,0,0,453.31.25Z" fill="#ebebeb"/><path d="M156.52,237.57l-13.85,11.58,19.73,28.67L178.16,269a93.06,93.06,0,0,0,29.19,19l-1.6,17.93L240,312.27,244.89,295a92.91,92.91,0,0,0,34-7.3l11.58,13.85,28.68-19.73L310.39,266a92.92,92.92,0,0,0,19-29.18l17.92,1.59,6.33-34.22-17.32-4.92a92.91,92.91,0,0,0-7.3-34l13.85-11.58L323.13,125l-15.77,8.79a92.72,92.72,0,0,0-29.18-19l1.6-17.93-34.23-6.33-4.91,17.32a93.17,93.17,0,0,0-34,7.3L195,101.31,166.34,121l8.79,15.76a93.07,93.07,0,0,0-19,29.18l-17.93-1.59-6.32,34.22,17.31,4.92A92.92,92.92,0,0,0,156.52,237.57Zm39.91-44.73a47.12,47.12,0,1,1,37.77,54.89A47.12,47.12,0,0,1,196.43,192.84Z" fill="#f0f0f0"/><path d="M387.38,219.88l10.82,2,1.55-5.48a29.32,29.32,0,0,0,10.76-2.3l3.66,4.37,9.07-6.23-2.78-5a29.37,29.37,0,0,0,6-9.22l5.67.5,2-10.82-5.48-1.55a29.17,29.17,0,0,0-2.31-10.76l4.38-3.66-6.24-9.07-5,2.78a29.54,29.54,0,0,0-9.22-6l.5-5.66-10.82-2-1.55,5.47a29.38,29.38,0,0,0-10.76,2.31L384,155.19l-9.07,6.24,2.78,5a29.3,29.3,0,0,0-6,9.23l-5.67-.51L364,186l5.47,1.55a29.43,29.43,0,0,0,2.31,10.77l-4.38,3.66,6.24,9.06,5-2.78a29.3,29.3,0,0,0,9.23,6Zm-2.95-35.75a14.9,14.9,0,1,1,11.94,17.35A14.9,14.9,0,0,1,384.43,184.13Z" fill="#f0f0f0"/><path d="M83.7,250.69l8.24,1.52L93.13,248a22.41,22.41,0,0,0,8.19-1.75l2.79,3.33,6.91-4.75-2.12-3.8a22.29,22.29,0,0,0,4.57-7l4.32.38,1.52-8.24L115.14,225a22.27,22.27,0,0,0-1.76-8.2l3.34-2.79-4.76-6.9-3.79,2.11a22.69,22.69,0,0,0-7-4.57l.39-4.31-8.25-1.53L92.1,203a22.47,22.47,0,0,0-8.2,1.76l-2.78-3.33-6.91,4.75L76.33,210a22.34,22.34,0,0,0-4.57,7l-4.32-.38-1.52,8.24L70.09,226a22.27,22.27,0,0,0,1.76,8.2L68.51,237l4.75,6.9,3.8-2.12a22.22,22.22,0,0,0,7,4.57Zm-2.24-27.23a11.34,11.34,0,1,1,9.09,13.21A11.34,11.34,0,0,1,81.46,223.46Z" fill="#f0f0f0"/><path d="M230.85,67.06l6.24,1.16.89-3.16a16.93,16.93,0,0,0,6.21-1.33l2.11,2.52,5.22-3.59-1.6-2.87a17,17,0,0,0,3.46-5.32l3.26.29,1.15-6.23-3.15-.9a17,17,0,0,0-1.33-6.2l2.52-2.11-3.59-5.23-2.87,1.61a17,17,0,0,0-5.32-3.46l.29-3.27-6.24-1.15L237.21,31A17,17,0,0,0,231,32.3l-2.11-2.52-5.23,3.6,1.61,2.87a16.85,16.85,0,0,0-3.46,5.32l-3.27-.29-1.15,6.23,3.15.9a17.08,17.08,0,0,0,1.33,6.2l-2.52,2.11,3.6,5.22,2.87-1.6a16.87,16.87,0,0,0,5.31,3.46Zm-1.69-20.6a8.58,8.58,0,1,1,6.88,10A8.58,8.58,0,0,1,229.16,46.46Z" fill="#f0f0f0"/><path d="M334.49,117.23l4.16.77.59-2.1a11.33,11.33,0,0,0,4.14-.89l1.41,1.68,3.48-2.4-1.07-1.91a11.34,11.34,0,0,0,2.31-3.55l2.18.2.77-4.16-2.11-.6a11.27,11.27,0,0,0-.88-4.13l1.68-1.41-2.4-3.49-1.91,1.07a11.43,11.43,0,0,0-3.55-2.3l.19-2.18-4.16-.77-.59,2.1a11.54,11.54,0,0,0-4.14.89l-1.41-1.68-3.48,2.4,1.07,1.91a11.34,11.34,0,0,0-2.31,3.55l-2.18-.2-.76,4.16,2.1.6a11.08,11.08,0,0,0,.89,4.13l-1.69,1.41,2.4,3.49,1.92-1.07a11.09,11.09,0,0,0,3.54,2.3Zm-1.13-13.74a5.73,5.73,0,1,1,4.59,6.67A5.73,5.73,0,0,1,333.36,103.49Z" fill="#f0f0f0"/><path d="M142.75,67.12l4.16.77.59-2.11a11.32,11.32,0,0,0,4.14-.88l1.41,1.68,3.48-2.4-1.07-1.91a11.45,11.45,0,0,0,2.31-3.55l2.18.19.77-4.15-2.11-.6a11.32,11.32,0,0,0-.88-4.14l1.68-1.4L157,45.13l-1.92,1.07a11.29,11.29,0,0,0-3.54-2.31l.19-2.18L147.58,41l-.59,2.1a11.13,11.13,0,0,0-4.14.89l-1.41-1.69L138,44.65,139,46.57a11.29,11.29,0,0,0-2.31,3.54l-2.18-.19-.76,4.16,2.1.6a11.12,11.12,0,0,0,.89,4.13l-1.69,1.41,2.4,3.48,1.92-1.07a11.29,11.29,0,0,0,3.54,2.31Zm-1.13-13.74a5.73,5.73,0,1,1,4.59,6.67A5.72,5.72,0,0,1,141.62,53.38Z" fill="#f0f0f0"/><path d="M327.62,288.81a19.54,19.54,0,0,0,1.55,7.22l-2.94,2.45,4.19,6.08,3.34-1.86a19.56,19.56,0,0,0,6.19,4l-.34,3.8,7.26,1.35,1-3.68a19.72,19.72,0,0,0,7.21-1.54l2.46,2.93,6.08-4.18-1.86-3.34a19.68,19.68,0,0,0,4-6.19l3.8.34L371,289l-3.67-1a19.54,19.54,0,0,0-1.55-7.22l2.94-2.46-4.18-6.08L361.15,274a19.72,19.72,0,0,0-6.18-4l.33-3.8-7.25-1.34-1,3.67a19.74,19.74,0,0,0-7.22,1.55l-2.46-2.93-6.08,4.18,1.87,3.34a19.7,19.7,0,0,0-4,6.19l-3.8-.34L324,287.77Zm10-2.27a10,10,0,1,1,8,11.64A10,10,0,0,1,337.63,286.54Z" fill="#f0f0f0"/><path d="M390.43,245.75l-11.17,4.09,11.17,4.06v4.19l-16-6.07v-4.36l16-6.07Z" fill="#e0e0e0"/><path d="M402.45,233.33h4.67l-11.07,31.61h-4.67Z" fill="#e0e0e0"/><path d="M423.7,247.66V252l-16,6.07V253.9l11.17-4.06-11.17-4.09v-4.16Z" fill="#e0e0e0"/><path d="M112.84,299.12c1.6.49,2.34,1.5,2.34,3.91v5.57a2.29,2.29,0,0,0,2.54,2.58h.63v4.25h-2c-4.36,0-6.59-2.23-6.59-6.24v-6.3c0-1.12-.59-1.64-1.53-1.64h-1.15V297h1.15a1.43,1.43,0,0,0,1.53-1.64v-6.31c0-4,2.23-6.23,6.59-6.23h2v4.25h-.63a2.29,2.29,0,0,0-2.54,2.58v5.57C115.18,297.62,114.44,298.63,112.84,299.12Z" fill="#e0e0e0"/><path d="M140.56,297v4.25h-1.15a1.43,1.43,0,0,0-1.54,1.64v6.3c0,4-2.23,6.24-6.58,6.24h-2v-4.25h.63a2.29,2.29,0,0,0,2.54-2.58V303c0-2.41.73-3.42,2.33-3.91-1.6-.49-2.33-1.5-2.33-3.9v-5.57a2.29,2.29,0,0,0-2.54-2.58h-.63v-4.25h2c4.35,0,6.58,2.23,6.58,6.23v6.31a1.44,1.44,0,0,0,1.54,1.64Z" fill="#e0e0e0"/><path d="M83,96.06C83,89.2,88.22,84.3,95.3,84.3a11.72,11.72,0,0,1,9.35,4l-3.37,3.11a7.33,7.33,0,0,0-5.72-2.66,7.28,7.28,0,0,0,0,14.55,7.24,7.24,0,0,0,5.72-2.7l3.37,3.12a11.67,11.67,0,0,1-9.38,4.06C88.22,107.81,83,102.91,83,96.06Z" fill="#202128"/><path d="M122.79,98h-5.65v5.52H113V98h-5.62v-4H113V88.55h4.19v5.52h5.65Z" fill="#202128"/><path d="M142.44,98h-5.65v5.52H132.6V98H127v-4h5.61V88.55h4.19v5.52h5.65Z" fill="#202128"/><path d="M347.83,247.07h-4.34V244h12.43v3.08H351.5v13.1h-3.67Z"/><path d="M356,257a7.12,7.12,0,0,0,3.15.89c1.1,0,1.56-.39,1.56-1s-.36-.89-1.73-1.34c-2.43-.82-3.36-2.14-3.34-3.51,0-2.2,1.87-3.86,4.78-3.86a7.86,7.86,0,0,1,3.31.67l-.65,2.52a5.72,5.72,0,0,0-2.54-.67c-.89,0-1.39.36-1.39,1s.45.84,1.89,1.34c2.23.77,3.17,1.9,3.19,3.63,0,2.18-1.72,3.81-5.08,3.81a8.19,8.19,0,0,1-3.8-.84Z"/><path d="M189,187.24h6.22v17.41c0,7.85-3.77,10.59-9.81,10.59a16.11,16.11,0,0,1-4.54-.66l.69-5a10.43,10.43,0,0,0,3.19.49c2.62,0,4.25-1.19,4.25-5.48Z"/><path d="M200.16,209.35a12.12,12.12,0,0,0,5.36,1.51c1.88,0,2.66-.65,2.66-1.67s-.62-1.51-3-2.29c-4.13-1.39-5.72-3.64-5.68-6,0-3.76,3.19-6.58,8.14-6.58a13.47,13.47,0,0,1,5.64,1.14l-1.11,4.3a9.79,9.79,0,0,0-4.33-1.15c-1.51,0-2.37.61-2.37,1.64s.78,1.43,3.23,2.29c3.8,1.3,5.39,3.23,5.43,6.17,0,3.72-2.94,6.5-8.66,6.5a14.07,14.07,0,0,1-6.46-1.43Z"/></g><g id="Shadow"><ellipse id="_Path_" data-name="&lt;Path&gt;" cx="250" cy="361.29" rx="193.89" ry="11.32" fill="#f5f5f5"/></g><g id="Program_icons" data-name="Program icons"><rect x="293.83" y="38.06" width="34.37" height="34.37" rx="2.27" fill="#474a88"/><g opacity="0.4" style="isolation:isolate"><rect x="293.83" y="38.06" width="34.37" height="34.37" rx="2.27" fill="#fff"/></g><path d="M306.4,53.43l-6,2.19,6,2.17V60l-8.52-3.24V54.45l8.52-3.24Z" fill="#fff"/><path d="M312.82,46.8h2.49l-5.92,16.88H306.9Z" fill="#fff"/><path d="M324.15,54.45v2.33L315.63,60V57.79l6-2.17-6-2.19V51.21Z" fill="#fff"/><path d="M296.47,86.07a6.73,6.73,0,0,0,2.91.73c1.21,0,1.85-.5,1.85-1.26s-.55-1.14-2-1.64c-1.93-.67-3.19-1.74-3.19-3.43,0-2,1.66-3.5,4.4-3.5a7.11,7.11,0,0,1,3,.58l-.58,2.13a5.47,5.47,0,0,0-2.43-.56c-1.14,0-1.69.52-1.69,1.12,0,.75.65,1.07,2.15,1.64,2.05.76,3,1.83,3,3.47,0,2-1.5,3.62-4.69,3.62a7.42,7.42,0,0,1-3.29-.73Z" fill="#202128"/><path d="M316.33,82.85c0,3.81-2.31,6.12-5.71,6.12s-5.46-2.6-5.46-5.91c0-3.49,2.22-6.09,5.65-6.09S316.33,79.64,316.33,82.85Zm-8.4.15c0,2.28,1.07,3.88,2.83,3.88s2.79-1.69,2.79-3.95c0-2.08-1-3.88-2.81-3.88S307.93,80.74,307.93,83Z" fill="#202128"/><path d="M318.05,77.16h2.64v9.41h4.62v2.21h-7.26Z" fill="#202128"/><rect x="367.34" y="56.38" width="34.37" height="34.37" rx="2.27" fill="#474a88"/><g opacity="0.4" style="isolation:isolate"><rect x="367.34" y="56.38" width="34.37" height="34.37" rx="2.27" fill="#fff"/></g><path d="M378.89,73.56c.82.25,1.2.77,1.2,2v2.86a1.18,1.18,0,0,0,1.31,1.33h.32v2.18h-1c-2.24,0-3.38-1.14-3.38-3.2V75.5a.74.74,0,0,0-.79-.85h-.59V72.47h.59a.74.74,0,0,0,.79-.84V68.38c0-2.06,1.14-3.2,3.38-3.2h1v2.18h-.32a1.18,1.18,0,0,0-1.31,1.33v2.87C380.09,72.79,379.71,73.31,378.89,73.56Z" fill="#fff"/><path d="M393.13,72.47v2.18h-.59a.74.74,0,0,0-.79.85v3.24c0,2.06-1.15,3.2-3.38,3.2h-1V79.76h.32A1.18,1.18,0,0,0,389,78.43V75.57c0-1.24.37-1.76,1.2-2-.83-.25-1.2-.77-1.2-2V68.69a1.18,1.18,0,0,0-1.31-1.33h-.32V65.18h1c2.23,0,3.38,1.14,3.38,3.2v3.25a.74.74,0,0,0,.79.84Z" fill="#fff"/><path d="M367.38,105.65V96.21h2.5l2,3.46a27.3,27.3,0,0,1,1.54,3.23h0a35.08,35.08,0,0,1-.18-4V96.21h2v9.44H373l-2-3.64a34.5,34.5,0,0,1-1.64-3.34l0,0c.06,1.25.08,2.58.08,4.12v2.84Z" fill="#202128"/><path d="M385.69,100.83c0,3.1-1.88,5-4.64,5s-4.44-2.11-4.44-4.8,1.81-4.94,4.59-4.94S385.69,98.23,385.69,100.83Zm-6.83.13c0,1.85.87,3.15,2.3,3.15s2.27-1.37,2.27-3.21-.81-3.15-2.28-3.15S378.86,99.12,378.86,101Z" fill="#202128"/><path d="M387.08,96.34a18.52,18.52,0,0,1,2.89-.2,6,6,0,0,1,3.86,1,4.18,4.18,0,0,1,1.6,3.56,4.79,4.79,0,0,1-1.57,3.82,6.76,6.76,0,0,1-4.36,1.22,18.49,18.49,0,0,1-2.42-.14Zm2.14,7.7a4.24,4.24,0,0,0,.75,0c1.93,0,3.19-1,3.19-3.3a2.71,2.71,0,0,0-3-3,4.73,4.73,0,0,0-1,.08Z" fill="#202128"/><path d="M402.44,101.66H399v2.24h3.88v1.75h-6V96.21h5.83V98H399v2h3.47Z" fill="#202128"/></g><g id="Tabs"><rect x="148.55" y="53.03" width="122.51" height="88.68"/><rect x="148.55" y="53.03" width="122.51" height="88.68" fill="#fff" opacity="0.9" style="isolation:isolate"/><rect x="148.55" y="53.03" width="17.06" height="88.68" opacity="0.1"/><rect x="148.55" y="53.03" width="122.51" height="8.29" fill="#474a88"/><g opacity="0.2"><path d="M197.71,73.83H175.4a1,1,0,0,1,0-2h22.31a1,1,0,0,1,0,2Z"/><path d="M247,73.83H203.65a1,1,0,0,1,0-2H247a1,1,0,0,1,0,2Z"/><path d="M236.68,80.35H178.4a1,1,0,0,1,0-2h58.28a1,1,0,0,1,0,2Z"/><path d="M212.94,86.88H175.4a1,1,0,1,1,0-2h37.54a1,1,0,0,1,0,2Z"/><path d="M247,86.88h-26.9a1,1,0,0,1,0-2H247a1,1,0,1,1,0,2Z"/><path d="M196.13,93.41H175.4a1,1,0,0,1,0-2h20.73a1,1,0,0,1,0,2Z"/><path d="M235.49,93.41H202.85a1,1,0,0,1,0-2h32.64a1,1,0,0,1,0,2Z"/><path d="M206.29,99.94H178.4a1,1,0,0,1,0-2h27.89a1,1,0,1,1,0,2Z"/><path d="M209.78,106.46H178.4a1,1,0,0,1,0-2h31.38a1,1,0,0,1,0,2Z"/><path d="M247,106.46h-32a1,1,0,0,1,0-2h32a1,1,0,0,1,0,2Z"/><path d="M193.36,113h-18a1,1,0,0,1,0-2h18a1,1,0,0,1,0,2Z"/><path d="M247,113H199.49a1,1,0,0,1,0-2H247a1,1,0,0,1,0,2Z"/><path d="M209.58,119.52H178.4a1,1,0,0,1,0-2h31.18a1,1,0,0,1,0,2Z"/><path d="M234.11,119.52H213.93a1,1,0,0,1,0-2h20.18a1,1,0,0,1,0,2Z"/><path d="M214.29,126.05H178.4a1,1,0,0,1,0-2h35.89a1,1,0,0,1,0,2Z"/></g><circle cx="265.79" cy="57.23" r="1.71" fill="#fff" opacity="0.4"/><circle cx="259.78" cy="57.23" r="1.71" fill="#fff" opacity="0.4"/><circle cx="253.78" cy="57.23" r="1.71" fill="#fff" opacity="0.4"/><g opacity="0.2"><path d="M157.38,73.83h0a1,1,0,0,1,0-2,1,1,0,0,1,1,1A1,1,0,0,1,157.38,73.83Z"/><path d="M157.38,80.35h0a1,1,0,0,1,0-2,1,1,0,0,1,1,1A1,1,0,0,1,157.38,80.35Z"/><path d="M157.38,86.88h0a1,1,0,0,1,0-2,1,1,0,0,1,1,1A1,1,0,0,1,157.38,86.88Z"/><path d="M157.38,93.41h0a1,1,0,0,1,0-2,1,1,0,0,1,1,1A1,1,0,0,1,157.38,93.41Z"/><path d="M157.38,99.94h0a1,1,0,1,1,0-2,1,1,0,0,1,1,1A1,1,0,0,1,157.38,99.94Z"/><path d="M157.38,106.46h0a1,1,0,0,1,0-2,1,1,0,0,1,1,1A1,1,0,0,1,157.38,106.46Z"/><path d="M157.38,113h0a1,1,0,0,1,0-2,1,1,0,0,1,1,1A1,1,0,0,1,157.38,113Z"/><path d="M157.38,119.52h0a1,1,0,0,1,0-2,1,1,0,0,1,1,1A1,1,0,0,1,157.38,119.52Z"/><path d="M157.38,126.05h0a1,1,0,0,1,0-2,1,1,0,0,1,1,1A1,1,0,0,1,157.38,126.05Z"/></g><rect x="221.49" y="125.39" width="160.53" height="102.79" fill="#263238"/><rect x="221.49" y="125.39" width="160.53" height="102.79" fill="#fff" opacity="0.9" style="isolation:isolate"/><rect x="221.49" y="125.39" width="25.04" height="102.79" opacity="0.1"/><rect x="221.49" y="125.39" width="160.53" height="8.29" fill="#474a88"/><path d="M232.83,142.77l-2.66,1,2.66,1v1l-3.8-1.45v-1l3.8-1.45Z" fill="#fff"/><path d="M235.7,139.81h1.11l-2.64,7.53h-1.11Z" fill="#fff"/><path d="M240.76,143.22v1l-3.8,1.45v-1l2.66-1-2.66-1v-1Z" fill="#fff"/><g opacity="0.2"><path d="M240.2,154.19H229.32a1,1,0,0,1,0-2H240.2a1,1,0,0,1,0,2Z"/><path d="M240.2,160.72H229.32a1,1,0,0,1,0-2H240.2a1,1,0,0,1,0,2Z"/><path d="M240.2,167.25H229.32a1,1,0,0,1,0-2H240.2a1,1,0,0,1,0,2Z"/><path d="M240.2,173.78H229.32a1,1,0,0,1,0-2H240.2a1,1,0,0,1,0,2Z"/><path d="M240.2,180.3H229.32a1,1,0,0,1,0-2H240.2a1,1,0,0,1,0,2Z"/><path d="M240.2,186.83H229.32a1,1,0,0,1,0-2H240.2a1,1,0,0,1,0,2Z"/><path d="M240.2,193.36H229.32a1,1,0,0,1,0-2H240.2a1,1,0,0,1,0,2Z"/><path d="M240.2,199.89H229.32a1,1,0,0,1,0-2H240.2a1,1,0,0,1,0,2Z"/><path d="M240.2,206.41H229.32a1,1,0,0,1,0-2H240.2a1,1,0,0,1,0,2Z"/></g><path d="M271.65,154.19H249.34a1,1,0,1,1,0-2h22.31a1,1,0,0,1,0,2Z" fill="#474a88"/><path d="M335.74,154.19H277.59a1,1,0,0,1,0-2h58.15a1,1,0,0,1,0,2Z" fill="#263238"/><g opacity="0.2"><path d="M362.28,154.19H345.43a1,1,0,0,1,0-2h16.85a1,1,0,0,1,0,2Z" fill="#263238"/></g><g opacity="0.2"><path d="M310.62,160.72H252.34a1,1,0,0,1,0-2h58.28a1,1,0,0,1,0,2Z" fill="#263238"/></g><path d="M370.28,160.72H316a1,1,0,0,1,0-2h54.32a1,1,0,0,1,0,2Z" fill="#474a88"/><path d="M286.88,167.25H252.34a1,1,0,0,1,0-2h34.54a1,1,0,0,1,0,2Z" fill="#263238"/><path d="M328,167.25H294a1,1,0,0,1,0-2h34a1,1,0,0,1,0,2Z" fill="#474a88"/><path d="M370.28,167.25H333.56a1,1,0,0,1,0-2h36.72a1,1,0,0,1,0,2Z" fill="#263238"/><path d="M290.08,173.78H269.35a1,1,0,0,1,0-2h20.73a1,1,0,0,1,0,2Z" fill="#263238"/><path d="M319.44,173.78H296.81a1,1,0,0,1,0-2h22.63a1,1,0,0,1,0,2Z" fill="#263238"/><g opacity="0.2"><path d="M361.28,173.78h-36.7a1,1,0,0,1,0-2h36.7a1,1,0,0,1,0,2Z" fill="#263238"/></g><g opacity="0.2"><path d="M280.23,180.3H252.34a1,1,0,1,1,0-2h27.89a1,1,0,0,1,0,2Z" fill="#263238"/></g><path d="M283.72,186.83H252.34a1,1,0,0,1,0-2h31.38a1,1,0,0,1,0,2Z" fill="#474a88"/><path d="M336.14,186.83H288.86a1,1,0,0,1,0-2h47.28a1,1,0,0,1,0,2Z" fill="#263238"/><path d="M370.28,186.83H341.87a1,1,0,0,1,0-2h28.41a1,1,0,0,1,0,2Z" fill="#263238"/><g opacity="0.2"><path d="M280.31,193.36h-18a1,1,0,0,1,0-2h18a1,1,0,0,1,0,2Z" fill="#263238"/></g><g opacity="0.2"><path d="M320.9,193.36H286.44a1,1,0,0,1,0-2H320.9a1,1,0,0,1,0,2Z" fill="#263238"/></g><path d="M361.28,193.36H327.63a1,1,0,0,1,0-2h33.65a1,1,0,0,1,0,2Z" fill="#263238"/><path d="M293.53,199.89H272.35a1,1,0,0,1,0-2h21.18a1,1,0,0,1,0,2Z" fill="#263238"/><g opacity="0.2"><path d="M318.05,199.89H297.88a1,1,0,0,1,0-2h20.17a1,1,0,1,1,0,2Z" fill="#263238"/></g><path d="M361.28,199.89h-36.9a1,1,0,0,1,0-2h36.9a1,1,0,0,1,0,2Z" fill="#474a88"/><g opacity="0.2"><path d="M298.24,206.41H272.35a1,1,0,0,1,0-2h25.89a1,1,0,0,1,0,2Z" fill="#263238"/></g><path d="M375,129.59a1.72,1.72,0,1,0,1.71-1.71A1.71,1.71,0,0,0,375,129.59Z" fill="#fff" opacity="0.4"/><circle cx="370.75" cy="129.59" r="1.71" fill="#fff" opacity="0.4"/><circle cx="364.74" cy="129.59" r="1.71" fill="#fff" opacity="0.4"/></g><g id="Speech_bubble" data-name="Speech bubble"><path d="M113.26,131.46H84.54a8.85,8.85,0,0,0-8.85,8.85v25a8.84,8.84,0,0,0,8.84,8.85H104.9l6,7.89v-7.89h2.35a8.85,8.85,0,0,0,8.85-8.85v-25A8.85,8.85,0,0,0,113.26,131.46Z" fill="#474a88"/><path d="M113.26,131.46H84.54a8.85,8.85,0,0,0-8.85,8.85v25a8.84,8.84,0,0,0,8.84,8.85H104.9l6,7.89v-7.89h2.35a8.85,8.85,0,0,0,8.85-8.85v-25A8.85,8.85,0,0,0,113.26,131.46Z" fill="#fff" opacity="0.7"/><g style="isolation:isolate"><circle cx="98.9" cy="152.7" r="14.26" transform="translate(-79.01 114.66) rotate(-45)" fill="#474a88"/></g><path d="M97.4,159.07a1.33,1.33,0,0,1-1-.46L90.81,152a1.31,1.31,0,1,1,2-1.7l4.59,5.42L105,146.8a1.31,1.31,0,1,1,2,1.69L98.4,158.61A1.31,1.31,0,0,1,97.4,159.07Z" fill="#fff"/></g><g id="Table"><path d="M75.5,345.13H426.2a4.44,4.44,0,0,1,4.44,4.44v10.8a0,0,0,0,1,0,0H71.06a0,0,0,0,1,0,0v-10.8A4.44,4.44,0,0,1,75.5,345.13Z" transform="translate(501.7 705.5) rotate(180)" fill="#474a88"/><rect x="71.06" y="345.13" width="359.59" height="7.62" transform="translate(501.7 697.88) rotate(180)" opacity="0.2" style="isolation:isolate"/><path d="M63.52,347.12H438.18a4.31,4.31,0,0,0,4.3-4.3h0a4.3,4.3,0,0,0-4.3-4.29H63.52a4.3,4.3,0,0,0-4.3,4.29h0A4.31,4.31,0,0,0,63.52,347.12Z" fill="#474a88"/></g><g id="Device_2" data-name="Device 2"><path d="M412.79,286.09,401.85,335.7a3.72,3.72,0,0,1-3.55,2.82H338.54a2.4,2.4,0,0,1-2.24-3.11l10.92-49.24a3.42,3.42,0,0,1,3.55-2.43h59.76C412.13,283.74,413.14,284.47,412.79,286.09Z" fill="#263238"/><path d="M412.79,286.09,401.85,335.7a3.72,3.72,0,0,1-3.55,2.82H340.57a2.41,2.41,0,0,1-2.25-3.11l10.94-49.24a3.39,3.39,0,0,1,3.55-2.43h57.72C412.13,283.74,413.14,284.47,412.79,286.09Z" fill="#fff" opacity="0.4" style="isolation:isolate"/><path d="M403.26,337l10.88-49.37c.36-1.62-.65-2.34-2.26-2.34H354.16a3.41,3.41,0,0,0-3.55,2.43L339.56,337.6Z" fill="#474a88"/><path d="M414.14,287.58l-5.74,26.09L403.25,337l-34.1.34-29.58.3,11-49.92a3.39,3.39,0,0,1,3.54-2.43H411.9C413.5,285.25,414.5,286,414.14,287.58Z" fill="#fff" opacity="0.4" style="isolation:isolate"/><path d="M408.4,313.67,403.25,337l-34.1.34H340.83L345.46,316a3,3,0,0,1,2.9-2.34Z" opacity="0.2" style="isolation:isolate"/><path d="M409.38,316.91a3.39,3.39,0,0,0-3.55-2.43H348.11c-1.6,0-2.61.73-2.26,2.35l4.38,19.85h-9.75a.92.92,0,1,0,0,1.84h71.1a2.08,2.08,0,0,0,2-2.54Z" fill="#474a88"/><path d="M409.38,316.91a3.39,3.39,0,0,0-3.55-2.43H348.11c-1.6,0-2.61.73-2.26,2.35l4.38,19.85h-9.75a.92.92,0,1,0,0,1.84h71.1a2.08,2.08,0,0,0,2-2.54Z" fill="#fff" opacity="0.4" style="isolation:isolate"/><polygon points="338.75 328.96 335.4 328.96 334.98 330.76 338.24 330.76 338.75 328.96"/><path d="M317.58,338.76h-9.65a.57.57,0,0,1-.57-.57.56.56,0,0,1,.57-.57h9.65a10.52,10.52,0,0,0,8.25-4,11.7,11.7,0,0,1,9.15-4.37h1.7a.57.57,0,0,1,.57.57.58.58,0,0,1-.57.57H335a10.55,10.55,0,0,0-8.25,3.95A11.72,11.72,0,0,1,317.58,338.76Z"/></g><g id="Device_1" data-name="Device 1"><path d="M156.78,331.7v4.17c0,1.88,2.27,2.65,4.15,2.65H307.51c1.86,0,4.07-.77,4.07-2.65V331.7Z" fill="#263238"/><path d="M156.78,331.7v4.17c0,1.88,2.27,2.65,4.15,2.65H307.51c1.86,0,4.07-.77,4.07-2.65V331.7Z" fill="#fff" opacity="0.4" style="isolation:isolate"/><path d="M206.72,331.7v4.17c0,1.88,2.23,2.65,4.11,2.65h96.68c1.86,0,4.07-.77,4.07-2.65V331.7Z" opacity="0.2" style="isolation:isolate"/><path d="M336.11,252.38l-17.45,79.15A6,6,0,0,1,313,336H217.67c-2.53,0-4.17-2.37-3.58-5l17.43-78.54c.59-2.59,3.11-3.87,5.67-3.87h95.32C335.07,248.64,336.68,249.8,336.11,252.38Z" fill="#263238"/><path d="M336.11,252.38l-17.45,79.15A6,6,0,0,1,313,336H220.91c-2.56,0-4.17-2.37-3.6-5l17.45-78.54c.57-2.59,3.11-3.87,5.67-3.87h92.08C335.07,248.64,336.68,249.8,336.11,252.38Z" fill="#fff" opacity="0.4" style="isolation:isolate"/><path d="M289.11,292.61v0c0,6.78-7.26,12.28-12.59,12.28s-8.48-5.5-7-12.28,6.81-12.06,12-12.26c-1.52,6.78,1.73,12.26,7,12.26A3.12,3.12,0,0,0,289.11,292.61Z" opacity="0.2" style="isolation:isolate"/></g></svg>