<svg xmlns="http://www.w3.org/2000/svg" viewBox="0 0 500 377.52"><g id="Background_Complete" data-name="Background Complete"><rect y="327.45" width="500" height="0.25" fill="#ebebeb"/><rect x="416.78" y="343.54" width="33.12" height="0.25" fill="#ebebeb"/><rect x="322.53" y="346.26" width="8.69" height="0.25" fill="#ebebeb"/><rect x="396.59" y="334.26" width="19.19" height="0.25" fill="#ebebeb"/><rect x="52.46" y="335.94" width="43.19" height="0.25" fill="#ebebeb"/><rect x="104.56" y="335.94" width="6.33" height="0.25" fill="#ebebeb"/><rect x="131.47" y="340.16" width="93.68" height="0.25" fill="#ebebeb"/><path d="M237,282.85H43.91a5.71,5.71,0,0,1-5.7-5.71V5.71A5.71,5.71,0,0,1,43.91,0H237a5.71,5.71,0,0,1,5.71,5.71V277.14A5.71,5.71,0,0,1,237,282.85ZM43.91.25a5.46,5.46,0,0,0-5.45,5.46V277.14a5.46,5.46,0,0,0,5.45,5.46H237a5.47,5.47,0,0,0,5.46-5.46V5.71A5.47,5.47,0,0,0,237,.25Z" fill="#ebebeb"/><path d="M453.31,282.85H260.21a5.72,5.72,0,0,1-5.71-5.71V5.71A5.72,5.72,0,0,1,260.21,0h193.1A5.71,5.71,0,0,1,459,5.71V277.14A5.71,5.71,0,0,1,453.31,282.85ZM260.21.25a5.47,5.47,0,0,0-5.46,5.46V277.14a5.47,5.47,0,0,0,5.46,5.46h193.1a5.47,5.47,0,0,0,5.46-5.46V5.71A5.47,5.47,0,0,0,453.31.25Z" fill="#ebebeb"/><path d="M443.18,23.42v-4.3l-2.21-.2a11.53,11.53,0,0,0-1.65-4l1.42-1.72-3-3L436,11.62A11.53,11.53,0,0,0,432,10l-.2-2.21h-4.3L427.31,10a11.48,11.48,0,0,0-4,1.65l-1.72-1.42-3,3L420,15a11.34,11.34,0,0,0-1.65,4l-2.21.2v4.3l2.21.21a11.29,11.29,0,0,0,1.65,4l-1.42,1.72,3,3,1.72-1.42a11.27,11.27,0,0,0,4,1.64l.21,2.22h4.3l.2-2.22a11.32,11.32,0,0,0,4-1.64l1.72,1.42,3-3-1.42-1.72a11.48,11.48,0,0,0,1.65-4Zm-13.51,3.67a5.82,5.82,0,1,1,5.81-5.82A5.82,5.82,0,0,1,429.67,27.09Z" fill="#e0e0e0"/><path d="M460.59,35.54V32.17L458.85,32a9,9,0,0,0-1.29-3.11l1.12-1.34-2.38-2.38L455,26.29A8.92,8.92,0,0,0,451.84,25l-.16-1.73h-3.36L448.15,25A9,9,0,0,0,445,26.29l-1.34-1.11-2.38,2.38,1.11,1.34A9.19,9.19,0,0,0,441.14,32l-1.73.16v3.37l1.73.16a8.92,8.92,0,0,0,1.29,3.11l-1.11,1.35,2.38,2.38L445,41.42a9,9,0,0,0,3.11,1.29l.17,1.74h3.36l.16-1.74A8.92,8.92,0,0,0,455,41.42l1.35,1.12,2.38-2.38-1.12-1.35a8.92,8.92,0,0,0,1.29-3.11ZM450,38.41a4.56,4.56,0,1,1,4.55-4.55A4.56,4.56,0,0,1,450,38.41Z" fill="#e0e0e0"/><path d="M443.18,45.09V42.27l-1.45-.14a7.46,7.46,0,0,0-1.09-2.61l.94-1.13-2-2-1.13.94a7.46,7.46,0,0,0-2.61-1.09l-.14-1.45h-2.82l-.14,1.45a7.46,7.46,0,0,0-2.61,1.09L429,36.39l-2,2,.93,1.13a7.63,7.63,0,0,0-1.08,2.61l-1.46.14v2.82l1.46.14a7.63,7.63,0,0,0,1.08,2.61L427,49l2,2,1.13-.94a7.46,7.46,0,0,0,2.61,1.09l.14,1.45h2.82l.14-1.45A7.46,7.46,0,0,0,438.45,50l1.13.94,2-2-.94-1.13a7.46,7.46,0,0,0,1.09-2.61Zm-8.89,2.42a3.83,3.83,0,1,1,3.82-3.83A3.84,3.84,0,0,1,434.29,47.51Z" fill="#e0e0e0"/><polygon points="50.47 326.52 72.81 178.03 72.81 326.52 78.81 326.52 78.81 177.1 101.19 326.52 107.61 326.52 79.61 139.49 78.81 139.6 78.81 133.52 72.81 133.52 72.81 139.58 71.99 139.49 43.92 326.52 50.47 326.52" fill="#e0e0e0"/><polygon points="106.56 160.23 44.74 160.23 49.75 108.57 101.56 108.57 106.56 160.23" fill="#ebebeb"/><path d="M66.94,16.64h0l-1.36.73-.2-.81,1.7-.91H68v7.8h-1Z" fill="#e0e0e0"/><path d="M76,19.47c0,2.65-1,4.11-2.71,4.11-1.52,0-2.56-1.43-2.58-4s1.13-4.05,2.71-4.05S76,17,76,19.47Zm-4.23.12c0,2,.62,3.17,1.58,3.17s1.59-1.26,1.59-3.25-.49-3.17-1.58-3.17C72.43,16.34,71.76,17.46,71.76,19.59Z" fill="#e0e0e0"/><path d="M79.26,16.64h0l-1.35.73-.21-.81,1.71-.91h.89v7.8h-1Z" fill="#e0e0e0"/><path d="M85.41,16.64h0L84,17.37l-.2-.81,1.7-.91h.9v7.8h-1Z" fill="#e0e0e0"/><path d="M91.57,16.64h0l-1.35.73L90,16.56l1.71-.91h.9v7.8h-1Z" fill="#e0e0e0"/><path d="M100.61,19.47c0,2.65-1,4.11-2.71,4.11-1.52,0-2.55-1.43-2.58-4s1.13-4.05,2.71-4.05S100.61,17,100.61,19.47Zm-4.23.12c0,2,.62,3.17,1.58,3.17s1.6-1.26,1.6-3.25-.49-3.17-1.58-3.17C97.05,16.34,96.38,17.46,96.38,19.59Z" fill="#e0e0e0"/><path d="M106.77,19.47c0,2.65-1,4.11-2.71,4.11-1.52,0-2.56-1.43-2.58-4s1.13-4.05,2.71-4.05S106.77,17,106.77,19.47Zm-4.23.12c0,2,.62,3.17,1.58,3.17s1.59-1.26,1.59-3.25-.49-3.17-1.58-3.17C103.21,16.34,102.54,17.46,102.54,19.59Z" fill="#e0e0e0"/><path d="M112.92,19.47c0,2.65-1,4.11-2.71,4.11-1.52,0-2.55-1.43-2.57-4s1.12-4.05,2.71-4.05S112.92,17,112.92,19.47Zm-4.23.12c0,2,.62,3.17,1.58,3.17s1.6-1.26,1.6-3.25-.49-3.17-1.58-3.17C109.36,16.34,108.69,17.46,108.69,19.59Z" fill="#e0e0e0"/><path d="M116.19,16.64h0l-1.36.73-.2-.81,1.7-.91h.9v7.8h-1Z" fill="#e0e0e0"/><path d="M125.24,19.47c0,2.65-1,4.11-2.71,4.11-1.53,0-2.56-1.43-2.58-4s1.12-4.05,2.71-4.05S125.24,17,125.24,19.47Zm-4.24.12c0,2,.63,3.17,1.59,3.17s1.59-1.26,1.59-3.25-.49-3.17-1.58-3.17C121.67,16.34,121,17.46,121,19.59Z" fill="#e0e0e0"/><path d="M128.5,16.64h0l-1.36.73-.2-.81,1.7-.91h.9v7.8h-1Z" fill="#e0e0e0"/><path d="M137.55,19.47c0,2.65-1,4.11-2.71,4.11-1.53,0-2.56-1.43-2.58-4s1.13-4.05,2.71-4.05S137.55,17,137.55,19.47Zm-4.24.12c0,2,.63,3.17,1.59,3.17s1.59-1.26,1.59-3.25-.49-3.17-1.58-3.17C134,16.34,133.31,17.46,133.31,19.59Z" fill="#e0e0e0"/><path d="M140.81,16.64h0l-1.36.73-.2-.81,1.7-.91h.9v7.8h-1Z" fill="#e0e0e0"/><path d="M149.86,19.47c0,2.65-1,4.11-2.71,4.11-1.52,0-2.56-1.43-2.58-4s1.13-4.05,2.71-4.05S149.86,17,149.86,19.47Zm-4.23.12c0,2,.62,3.17,1.58,3.17s1.59-1.26,1.59-3.25-.49-3.17-1.58-3.17C146.3,16.34,145.63,17.46,145.63,19.59Z" fill="#e0e0e0"/><path d="M156,19.47c0,2.65-1,4.11-2.71,4.11-1.53,0-2.56-1.43-2.58-4s1.12-4.05,2.71-4.05S156,17,156,19.47Zm-4.24.12c0,2,.63,3.17,1.59,3.17S155,21.5,155,19.51s-.49-3.17-1.58-3.17C152.45,16.34,151.78,17.46,151.78,19.59Z" fill="#e0e0e0"/><path d="M162.17,19.47c0,2.65-1,4.11-2.71,4.11-1.52,0-2.55-1.43-2.58-4s1.13-4.05,2.71-4.05S162.17,17,162.17,19.47Zm-4.23.12c0,2,.62,3.17,1.58,3.17s1.6-1.26,1.6-3.25-.5-3.17-1.59-3.17C158.61,16.34,157.94,17.46,157.94,19.59Z" fill="#e0e0e0"/><path d="M165.44,16.64h0l-1.35.73-.21-.81,1.71-.91h.9v7.8h-1Z" fill="#e0e0e0"/><path d="M174.48,19.47c0,2.65-1,4.11-2.71,4.11-1.52,0-2.55-1.43-2.58-4s1.13-4.05,2.71-4.05S174.48,17,174.48,19.47Zm-4.23.12c0,2,.62,3.17,1.58,3.17s1.6-1.26,1.6-3.25-.49-3.17-1.59-3.17C170.92,16.34,170.25,17.46,170.25,19.59Z" fill="#e0e0e0"/><path d="M177.75,16.64h0l-1.35.73-.2-.81,1.7-.91h.9v7.8h-1Z" fill="#e0e0e0"/><path d="M186.79,19.47c0,2.65-1,4.11-2.71,4.11-1.52,0-2.55-1.43-2.57-4s1.12-4.05,2.71-4.05S186.79,17,186.79,19.47Zm-4.23.12c0,2,.62,3.17,1.58,3.17s1.6-1.26,1.6-3.25-.49-3.17-1.58-3.17C183.23,16.34,182.56,17.46,182.56,19.59Z" fill="#e0e0e0"/><path d="M190.06,16.64h0l-1.36.73-.2-.81,1.7-.91h.9v7.8h-1Z" fill="#e0e0e0"/><path d="M199.11,19.47c0,2.65-1,4.11-2.71,4.11-1.53,0-2.56-1.43-2.58-4s1.12-4.05,2.71-4.05S199.11,17,199.11,19.47Zm-4.24.12c0,2,.63,3.17,1.59,3.17s1.59-1.26,1.59-3.25-.49-3.17-1.58-3.17C195.54,16.34,194.87,17.46,194.87,19.59Z" fill="#e0e0e0"/><path d="M202.37,16.64h0l-1.36.73-.2-.81,1.7-.91h.9v7.8h-1Z" fill="#e0e0e0"/><path d="M211.42,19.47c0,2.65-1,4.11-2.71,4.11-1.53,0-2.56-1.43-2.58-4s1.13-4.05,2.71-4.05S211.42,17,211.42,19.47Zm-4.24.12c0,2,.63,3.17,1.59,3.17s1.59-1.26,1.59-3.25-.49-3.17-1.58-3.17C207.86,16.34,207.18,17.46,207.18,19.59Z" fill="#e0e0e0"/><path d="M214.68,16.64h0l-1.36.73-.2-.81,1.7-.91h.9v7.8h-1Z" fill="#e0e0e0"/><path d="M223.73,19.47c0,2.65-1,4.11-2.71,4.11-1.52,0-2.56-1.43-2.58-4s1.13-4.05,2.71-4.05S223.73,17,223.73,19.47Zm-4.23.12c0,2,.62,3.17,1.58,3.17s1.59-1.26,1.59-3.25-.49-3.17-1.58-3.17C220.17,16.34,219.5,17.46,219.5,19.59Z" fill="#e0e0e0"/><path d="M227,16.64h0l-1.35.73-.21-.81,1.7-.91h.9v7.8h-1Z" fill="#e0e0e0"/><path d="M236,19.47c0,2.65-1,4.11-2.71,4.11-1.52,0-2.55-1.43-2.58-4s1.13-4.05,2.71-4.05S236,17,236,19.47Zm-4.23.12c0,2,.62,3.17,1.58,3.17s1.6-1.26,1.6-3.25-.5-3.17-1.59-3.17C232.48,16.34,231.81,17.46,231.81,19.59Z" fill="#e0e0e0"/><path d="M239.31,16.64h0l-1.35.73-.21-.81,1.71-.91h.9v7.8h-1Z" fill="#e0e0e0"/><path d="M248.35,19.47c0,2.65-1,4.11-2.71,4.11-1.52,0-2.55-1.43-2.58-4s1.13-4.05,2.71-4.05S248.35,17,248.35,19.47Zm-4.23.12c0,2,.62,3.17,1.58,3.17s1.6-1.26,1.6-3.25-.49-3.17-1.59-3.17C244.79,16.34,244.12,17.46,244.12,19.59Z" fill="#e0e0e0"/><path d="M251.62,16.64h0l-1.35.73-.2-.81,1.7-.91h.9v7.8h-1Z" fill="#e0e0e0"/><path d="M260.66,19.47c0,2.65-1,4.11-2.71,4.11-1.52,0-2.55-1.43-2.57-4s1.12-4.05,2.71-4.05S260.66,17,260.66,19.47Zm-4.23.12c0,2,.62,3.17,1.58,3.17s1.6-1.26,1.6-3.25-.49-3.17-1.58-3.17C257.1,16.34,256.43,17.46,256.43,19.59Z" fill="#e0e0e0"/><path d="M263.93,16.64h0l-1.36.73-.2-.81,1.7-.91h.9v7.8h-1Z" fill="#e0e0e0"/><path d="M273,19.47c0,2.65-1,4.11-2.71,4.11-1.53,0-2.56-1.43-2.58-4s1.12-4.05,2.71-4.05S273,17,273,19.47Zm-4.24.12c0,2,.63,3.17,1.59,3.17s1.59-1.26,1.59-3.25-.49-3.17-1.58-3.17C269.41,16.34,268.74,17.46,268.74,19.59Z" fill="#e0e0e0"/><path d="M279.13,19.47c0,2.65-1,4.11-2.71,4.11-1.52,0-2.55-1.43-2.58-4s1.13-4.05,2.71-4.05S279.13,17,279.13,19.47Zm-4.23.12c0,2,.62,3.17,1.58,3.17s1.6-1.26,1.6-3.25-.5-3.17-1.59-3.17C275.57,16.34,274.9,17.46,274.9,19.59Z" fill="#e0e0e0"/><path d="M285.29,19.47c0,2.65-1,4.11-2.71,4.11-1.53,0-2.56-1.43-2.58-4s1.13-4.05,2.71-4.05S285.29,17,285.29,19.47Zm-4.24.12c0,2,.63,3.17,1.59,3.17s1.59-1.26,1.59-3.25-.49-3.17-1.58-3.17C281.73,16.34,281.05,17.46,281.05,19.59Z" fill="#e0e0e0"/><path d="M291.44,19.47c0,2.65-1,4.11-2.71,4.11-1.52,0-2.55-1.43-2.58-4s1.13-4.05,2.71-4.05S291.44,17,291.44,19.47Zm-4.23.12c0,2,.62,3.17,1.58,3.17s1.6-1.26,1.6-3.25-.49-3.17-1.58-3.17C287.88,16.34,287.21,17.46,287.21,19.59Z" fill="#e0e0e0"/><path d="M297.6,19.47c0,2.65-1,4.11-2.71,4.11-1.52,0-2.56-1.43-2.58-4s1.13-4.05,2.71-4.05S297.6,17,297.6,19.47Zm-4.23.12c0,2,.62,3.17,1.58,3.17s1.59-1.26,1.59-3.25-.49-3.17-1.58-3.17C294,16.34,293.37,17.46,293.37,19.59Z" fill="#e0e0e0"/><path d="M303.76,19.47c0,2.65-1,4.11-2.72,4.11-1.52,0-2.55-1.43-2.57-4s1.12-4.05,2.71-4.05S303.76,17,303.76,19.47Zm-4.24.12c0,2,.63,3.17,1.58,3.17s1.6-1.26,1.6-3.25-.49-3.17-1.58-3.17C300.19,16.34,299.52,17.46,299.52,19.59Z" fill="#e0e0e0"/><path d="M309.91,19.47c0,2.65-1,4.11-2.71,4.11-1.52,0-2.55-1.43-2.58-4s1.13-4.05,2.71-4.05S309.91,17,309.91,19.47Zm-4.23.12c0,2,.62,3.17,1.58,3.17s1.6-1.26,1.6-3.25-.5-3.17-1.59-3.17C306.35,16.34,305.68,17.46,305.68,19.59Z" fill="#e0e0e0"/><path d="M313.18,16.64h0l-1.35.73-.21-.81,1.71-.91h.9v7.8h-1Z" fill="#e0e0e0"/><path d="M319.33,16.64h0l-1.36.73-.2-.81,1.7-.91h.9v7.8h-1Z" fill="#e0e0e0"/><path d="M325.49,16.64h0l-1.35.73-.2-.81,1.7-.91h.9v7.8h-1Z" fill="#e0e0e0"/><path d="M331.64,16.64h0l-1.36.73-.2-.81,1.7-.91h.9v7.8h-1Z" fill="#e0e0e0"/><path d="M337.8,16.64h0l-1.36.73-.2-.81,1.7-.91h.9v7.8h-1Z" fill="#e0e0e0"/><path d="M344,16.64h0l-1.35.73-.21-.81,1.71-.91h.9v7.8h-1Z" fill="#e0e0e0"/><path d="M353,19.47c0,2.65-1,4.11-2.71,4.11-1.52,0-2.55-1.43-2.58-4s1.13-4.05,2.71-4.05S353,17,353,19.47Zm-4.23.12c0,2,.62,3.17,1.58,3.17s1.6-1.26,1.6-3.25-.49-3.17-1.59-3.17C349.44,16.34,348.77,17.46,348.77,19.59Z" fill="#e0e0e0"/><path d="M359.16,19.47c0,2.65-1,4.11-2.71,4.11-1.53,0-2.56-1.43-2.58-4s1.13-4.05,2.71-4.05S359.16,17,359.16,19.47Zm-4.24.12c0,2,.63,3.17,1.59,3.17s1.59-1.26,1.59-3.25-.49-3.17-1.58-3.17C355.6,16.34,354.92,17.46,354.92,19.59Z" fill="#e0e0e0"/><path d="M362.42,16.64h0l-1.36.73-.2-.81,1.7-.91h.9v7.8h-1Z" fill="#e0e0e0"/><path d="M371.47,19.47c0,2.65-1,4.11-2.71,4.11-1.52,0-2.56-1.43-2.58-4s1.13-4.05,2.71-4.05S371.47,17,371.47,19.47Zm-4.23.12c0,2,.62,3.17,1.58,3.17s1.59-1.26,1.59-3.25-.49-3.17-1.58-3.17C367.91,16.34,367.24,17.46,367.24,19.59Z" fill="#e0e0e0"/><path d="M374.73,16.64h0l-1.35.73-.21-.81,1.7-.91h.9v7.8h-1Z" fill="#e0e0e0"/><path d="M380.89,16.64h0l-1.36.73-.2-.81,1.7-.91h.9v7.8h-1Z" fill="#e0e0e0"/><path d="M387.05,16.64h0l-1.35.73-.21-.81,1.71-.91h.9v7.8h-1Z" fill="#e0e0e0"/><path d="M393.2,16.64h0l-1.36.73-.2-.81,1.7-.91h.9v7.8h-1Z" fill="#e0e0e0"/><path d="M402.25,19.47c0,2.65-1,4.11-2.71,4.11-1.52,0-2.56-1.43-2.58-4s1.13-4.05,2.71-4.05S402.25,17,402.25,19.47Zm-4.23.12c0,2,.62,3.17,1.58,3.17s1.59-1.26,1.59-3.25-.49-3.17-1.58-3.17C398.69,16.34,398,17.46,398,19.59Z" fill="#e0e0e0"/><path d="M405.51,16.64h0l-1.36.73-.2-.81,1.7-.91h.9v7.8h-1Z" fill="#e0e0e0"/><path d="M414.56,19.47c0,2.65-1,4.11-2.71,4.11-1.52,0-2.56-1.43-2.58-4s1.13-4.05,2.71-4.05S414.56,17,414.56,19.47Zm-4.23.12c0,2,.62,3.17,1.58,3.17s1.59-1.26,1.59-3.25-.49-3.17-1.58-3.17C411,16.34,410.33,17.46,410.33,19.59Z" fill="#e0e0e0"/><path d="M417.83,16.64h0l-1.35.73-.21-.81,1.71-.91h.9v7.8h-1Z" fill="#e0e0e0"/><path d="M145.39,257.53h0l-1.36.73-.2-.81,1.7-.91h.9v7.8h-1Z" fill="#e0e0e0"/><path d="M154.44,260.36c0,2.65-1,4.11-2.71,4.11-1.52,0-2.56-1.43-2.58-4s1.13-4,2.71-4S154.44,257.87,154.44,260.36Zm-4.23.12c0,2,.62,3.17,1.58,3.17s1.59-1.25,1.59-3.25-.49-3.17-1.58-3.17C150.88,257.23,150.21,258.35,150.21,260.48Z" fill="#e0e0e0"/><path d="M157.7,257.53h0l-1.36.73-.2-.81,1.7-.91h.9v7.8h-1Z" fill="#e0e0e0"/><path d="M163.86,257.53h0l-1.36.73-.2-.81,1.7-.91h.9v7.8h-1Z" fill="#e0e0e0"/><path d="M170,257.53h0l-1.35.73-.21-.81,1.71-.91h.9v7.8h-1Z" fill="#e0e0e0"/><path d="M179.06,260.36c0,2.65-1,4.11-2.71,4.11-1.52,0-2.55-1.43-2.58-4s1.13-4,2.71-4S179.06,257.87,179.06,260.36Zm-4.23.12c0,2,.62,3.17,1.58,3.17s1.6-1.25,1.6-3.25-.49-3.17-1.59-3.17C175.5,257.23,174.83,258.35,174.83,260.48Z" fill="#e0e0e0"/><path d="M185.22,260.36c0,2.65-1,4.11-2.71,4.11-1.53,0-2.56-1.43-2.58-4s1.13-4,2.71-4S185.22,257.87,185.22,260.36Zm-4.24.12c0,2,.63,3.17,1.59,3.17s1.59-1.25,1.59-3.25-.49-3.17-1.58-3.17C181.66,257.23,181,258.35,181,260.48Z" fill="#e0e0e0"/><path d="M191.37,260.36c0,2.65-1,4.11-2.71,4.11-1.52,0-2.55-1.43-2.58-4s1.13-4,2.71-4S191.37,257.87,191.37,260.36Zm-4.23.12c0,2,.62,3.17,1.58,3.17s1.6-1.25,1.6-3.25-.49-3.17-1.58-3.17C187.81,257.23,187.14,258.35,187.14,260.48Z" fill="#e0e0e0"/><path d="M194.64,257.53h0l-1.36.73-.2-.81,1.7-.91h.9v7.8h-1Z" fill="#e0e0e0"/><path d="M203.69,260.36c0,2.65-1,4.11-2.72,4.11-1.52,0-2.55-1.43-2.57-4s1.12-4,2.71-4S203.69,257.87,203.69,260.36Zm-4.24.12c0,2,.63,3.17,1.58,3.17s1.6-1.25,1.6-3.25-.49-3.17-1.58-3.17C200.12,257.23,199.45,258.35,199.45,260.48Z" fill="#e0e0e0"/><path d="M207,257.53h0l-1.36.73-.2-.81,1.7-.91h.9v7.8h-1Z" fill="#e0e0e0"/><path d="M216,260.36c0,2.65-1,4.11-2.71,4.11-1.53,0-2.56-1.43-2.58-4s1.12-4,2.71-4S216,257.87,216,260.36Zm-4.24.12c0,2,.63,3.17,1.59,3.17s1.59-1.25,1.59-3.25-.49-3.17-1.58-3.17C212.43,257.23,211.76,258.35,211.76,260.48Z" fill="#e0e0e0"/><path d="M219.26,257.53h0l-1.36.73-.2-.81,1.7-.91h.9v7.8h-1Z" fill="#e0e0e0"/><path d="M228.31,260.36c0,2.65-1,4.11-2.71,4.11-1.52,0-2.56-1.43-2.58-4s1.13-4,2.71-4S228.31,257.87,228.31,260.36Zm-4.23.12c0,2,.62,3.17,1.58,3.17s1.59-1.25,1.59-3.25-.49-3.17-1.58-3.17C224.75,257.23,224.08,258.35,224.08,260.48Z" fill="#e0e0e0"/><path d="M234.46,260.36c0,2.65-1,4.11-2.71,4.11-1.52,0-2.55-1.43-2.57-4s1.12-4,2.71-4S234.46,257.87,234.46,260.36Zm-4.23.12c0,2,.62,3.17,1.58,3.17s1.6-1.25,1.6-3.25-.49-3.17-1.58-3.17C230.9,257.23,230.23,258.35,230.23,260.48Z" fill="#e0e0e0"/><path d="M240.62,260.36c0,2.65-1,4.11-2.71,4.11-1.52,0-2.56-1.43-2.58-4s1.13-4,2.71-4S240.62,257.87,240.62,260.36Zm-4.23.12c0,2,.62,3.17,1.58,3.17s1.59-1.25,1.59-3.25-.49-3.17-1.58-3.17C237.06,257.23,236.39,258.35,236.39,260.48Z" fill="#e0e0e0"/><path d="M243.89,257.53h0l-1.35.73-.21-.81,1.71-.91h.9v7.8h-1Z" fill="#e0e0e0"/><path d="M252.93,260.36c0,2.65-1,4.11-2.71,4.11-1.52,0-2.55-1.43-2.58-4s1.13-4,2.71-4S252.93,257.87,252.93,260.36Zm-4.23.12c0,2,.62,3.17,1.58,3.17s1.6-1.25,1.6-3.25-.5-3.17-1.59-3.17C249.37,257.23,248.7,258.35,248.7,260.48Z" fill="#e0e0e0"/><path d="M256.2,257.53h0l-1.35.73-.21-.81,1.71-.91h.9v7.8h-1Z" fill="#e0e0e0"/><path d="M265.24,260.36c0,2.65-1,4.11-2.71,4.11-1.52,0-2.55-1.43-2.58-4s1.13-4,2.71-4S265.24,257.87,265.24,260.36Zm-4.23.12c0,2,.62,3.17,1.58,3.17s1.6-1.25,1.6-3.25-.49-3.17-1.59-3.17C261.68,257.23,261,258.35,261,260.48Z" fill="#e0e0e0"/><path d="M268.51,257.53h0l-1.35.73-.2-.81,1.7-.91h.9v7.8h-1Z" fill="#e0e0e0"/><path d="M277.56,260.36c0,2.65-1,4.11-2.72,4.11-1.52,0-2.55-1.43-2.57-4s1.12-4,2.71-4S277.56,257.87,277.56,260.36Zm-4.24.12c0,2,.63,3.17,1.58,3.17s1.6-1.25,1.6-3.25-.49-3.17-1.58-3.17C274,257.23,273.32,258.35,273.32,260.48Z" fill="#e0e0e0"/><path d="M280.82,257.53h0l-1.36.73-.2-.81,1.7-.91h.9v7.8h-1Z" fill="#e0e0e0"/><path d="M289.87,260.36c0,2.65-1,4.11-2.71,4.11-1.53,0-2.56-1.43-2.58-4s1.13-4,2.71-4S289.87,257.87,289.87,260.36Zm-4.24.12c0,2,.63,3.17,1.59,3.17s1.59-1.25,1.59-3.25-.49-3.17-1.58-3.17C286.3,257.23,285.63,258.35,285.63,260.48Z" fill="#e0e0e0"/><path d="M293.13,257.53h0l-1.36.73-.2-.81,1.7-.91h.9v7.8h-1Z" fill="#e0e0e0"/><path d="M302.18,260.36c0,2.65-1,4.11-2.71,4.11-1.53,0-2.56-1.43-2.58-4s1.13-4,2.71-4S302.18,257.87,302.18,260.36Zm-4.24.12c0,2,.63,3.17,1.59,3.17s1.59-1.25,1.59-3.25-.49-3.17-1.58-3.17C298.62,257.23,297.94,258.35,297.94,260.48Z" fill="#e0e0e0"/><path d="M308.33,260.36c0,2.65-1,4.11-2.71,4.11-1.52,0-2.55-1.43-2.58-4s1.13-4,2.72-4S308.33,257.87,308.33,260.36Zm-4.23.12c0,2,.62,3.17,1.58,3.17s1.6-1.25,1.6-3.25-.49-3.17-1.58-3.17C304.77,257.23,304.1,258.35,304.1,260.48Z" fill="#e0e0e0"/><path d="M314.49,260.36c0,2.65-1,4.11-2.71,4.11-1.52,0-2.56-1.43-2.58-4s1.13-4,2.71-4S314.49,257.87,314.49,260.36Zm-4.23.12c0,2,.62,3.17,1.58,3.17s1.59-1.25,1.59-3.25-.49-3.17-1.58-3.17C310.93,257.23,310.26,258.35,310.26,260.48Z" fill="#e0e0e0"/><path d="M317.76,257.53h0l-1.35.73-.21-.81,1.71-.91h.9v7.8h-1Z" fill="#e0e0e0"/><path d="M323.91,257.53h0l-1.36.73-.2-.81,1.7-.91h.9v7.8h-1Z" fill="#e0e0e0"/><path d="M330.07,257.53h0l-1.35.73-.21-.81,1.71-.91h.9v7.8h-1Z" fill="#e0e0e0"/><path d="M336.22,257.53h0l-1.36.73-.2-.81,1.7-.91h.9v7.8h-1Z" fill="#e0e0e0"/><path d="M342.38,257.53h0l-1.35.73-.2-.81,1.7-.91h.9v7.8h-1Z" fill="#e0e0e0"/><path d="M351.42,260.36c0,2.65-1,4.11-2.71,4.11-1.52,0-2.55-1.43-2.57-4s1.12-4,2.71-4S351.42,257.87,351.42,260.36Zm-4.23.12c0,2,.62,3.17,1.58,3.17s1.6-1.25,1.6-3.25-.49-3.17-1.58-3.17C347.86,257.23,347.19,258.35,347.19,260.48Z" fill="#e0e0e0"/><path d="M354.69,257.53h0l-1.36.73-.2-.81,1.7-.91h.9v7.8h-1Z" fill="#e0e0e0"/><path d="M363.74,260.36c0,2.65-1,4.11-2.71,4.11-1.53,0-2.56-1.43-2.58-4s1.12-4,2.71-4S363.74,257.87,363.74,260.36Zm-4.24.12c0,2,.63,3.17,1.59,3.17s1.59-1.25,1.59-3.25-.49-3.17-1.58-3.17C360.17,257.23,359.5,258.35,359.5,260.48Z" fill="#e0e0e0"/><path d="M367,257.53h0l-1.36.73-.2-.81,1.7-.91h.9v7.8h-1Z" fill="#e0e0e0"/><path d="M376.05,260.36c0,2.65-1,4.11-2.71,4.11-1.53,0-2.56-1.43-2.58-4s1.13-4,2.71-4S376.05,257.87,376.05,260.36Zm-4.24.12c0,2,.63,3.17,1.59,3.17S375,262.4,375,260.4s-.49-3.17-1.58-3.17C372.49,257.23,371.81,258.35,371.81,260.48Z" fill="#e0e0e0"/><path d="M379.31,257.53h0l-1.36.73-.2-.81,1.7-.91h.9v7.8h-1Z" fill="#e0e0e0"/><path d="M388.36,260.36c0,2.65-1,4.11-2.71,4.11-1.52,0-2.56-1.43-2.58-4s1.13-4,2.71-4S388.36,257.87,388.36,260.36Zm-4.23.12c0,2,.62,3.17,1.58,3.17s1.59-1.25,1.59-3.25-.49-3.17-1.58-3.17C384.8,257.23,384.13,258.35,384.13,260.48Z" fill="#e0e0e0"/><path d="M394.52,260.36c0,2.65-1,4.11-2.71,4.11-1.53,0-2.56-1.43-2.58-4s1.12-4,2.71-4S394.52,257.87,394.52,260.36Zm-4.24.12c0,2,.63,3.17,1.59,3.17s1.59-1.25,1.59-3.25-.49-3.17-1.58-3.17C391,257.23,390.28,258.35,390.28,260.48Z" fill="#e0e0e0"/><path d="M400.67,260.36c0,2.65-1,4.11-2.71,4.11-1.52,0-2.55-1.43-2.58-4s1.13-4,2.71-4S400.67,257.87,400.67,260.36Zm-4.23.12c0,2,.62,3.17,1.58,3.17s1.6-1.25,1.6-3.25-.5-3.17-1.59-3.17C397.11,257.23,396.44,258.35,396.44,260.48Z" fill="#e0e0e0"/><path d="M406.83,260.36c0,2.65-1,4.11-2.71,4.11-1.53,0-2.56-1.43-2.58-4s1.13-4,2.71-4S406.83,257.87,406.83,260.36Zm-4.24.12c0,2,.63,3.17,1.59,3.17s1.59-1.25,1.59-3.25-.49-3.17-1.58-3.17C403.27,257.23,402.59,258.35,402.59,260.48Z" fill="#e0e0e0"/><path d="M410.09,257.53h0l-1.36.73-.2-.81,1.7-.91h.9v7.8h-1Z" fill="#e0e0e0"/><path d="M416.25,257.53h0l-1.36.73-.2-.81,1.7-.91h.9v7.8h-1Z" fill="#e0e0e0"/><path d="M422.4,257.53h0l-1.35.73-.21-.81,1.7-.91h.9v7.8h-1Z" fill="#e0e0e0"/><path d="M431.45,260.36c0,2.65-1,4.11-2.71,4.11-1.52,0-2.55-1.43-2.58-4s1.13-4,2.71-4S431.45,257.87,431.45,260.36Zm-4.23.12c0,2,.62,3.17,1.58,3.17s1.6-1.25,1.6-3.25-.5-3.17-1.59-3.17C427.89,257.23,427.22,258.35,427.22,260.48Z" fill="#e0e0e0"/><path d="M434.72,257.53h0l-1.35.73-.21-.81,1.71-.91h.9v7.8h-1Z" fill="#e0e0e0"/><path d="M443.76,260.36c0,2.65-1,4.11-2.71,4.11-1.52,0-2.55-1.43-2.58-4s1.13-4,2.71-4S443.76,257.87,443.76,260.36Zm-4.23.12c0,2,.62,3.17,1.58,3.17s1.6-1.25,1.6-3.25-.49-3.17-1.59-3.17C440.2,257.23,439.53,258.35,439.53,260.48Z" fill="#e0e0e0"/><path d="M447,257.53h0l-1.35.73-.21-.81,1.71-.91h.9v7.8h-1Z" fill="#e0e0e0"/><path d="M456.07,260.36c0,2.65-1,4.11-2.71,4.11-1.52,0-2.55-1.43-2.58-4s1.13-4,2.72-4S456.07,257.87,456.07,260.36Zm-4.23.12c0,2,.62,3.17,1.58,3.17s1.6-1.25,1.6-3.25-.49-3.17-1.58-3.17C452.51,257.23,451.84,258.35,451.84,260.48Z" fill="#e0e0e0"/><path d="M462.23,260.36c0,2.65-1,4.11-2.71,4.11-1.52,0-2.56-1.43-2.58-4s1.13-4,2.71-4S462.23,257.87,462.23,260.36Zm-4.23.12c0,2,.62,3.17,1.58,3.17s1.59-1.25,1.59-3.25-.49-3.17-1.58-3.17C458.67,257.23,458,258.35,458,260.48Z" fill="#e0e0e0"/><path d="M468.39,260.36c0,2.65-1,4.11-2.72,4.11-1.52,0-2.55-1.43-2.57-4s1.12-4,2.71-4S468.39,257.87,468.39,260.36Zm-4.24.12c0,2,.63,3.17,1.58,3.17s1.6-1.25,1.6-3.25-.49-3.17-1.58-3.17C464.82,257.23,464.15,258.35,464.15,260.48Z" fill="#e0e0e0"/><path d="M474.54,260.36c0,2.65-1,4.11-2.71,4.11-1.52,0-2.55-1.43-2.58-4s1.13-4,2.71-4S474.54,257.87,474.54,260.36Zm-4.23.12c0,2,.62,3.17,1.58,3.17s1.6-1.25,1.6-3.25-.5-3.17-1.59-3.17C471,257.23,470.31,258.35,470.31,260.48Z" fill="#e0e0e0"/><path d="M480.7,260.36c0,2.65-1,4.11-2.71,4.11-1.53,0-2.56-1.43-2.58-4s1.13-4,2.71-4S480.7,257.87,480.7,260.36Zm-4.24.12c0,2,.63,3.17,1.59,3.17s1.59-1.25,1.59-3.25-.49-3.17-1.58-3.17C477.14,257.23,476.46,258.35,476.46,260.48Z" fill="#e0e0e0"/><path d="M91.17,56.5c0,2.65-1,4.11-2.71,4.11-1.52,0-2.55-1.42-2.58-4s1.13-4.06,2.71-4.06S91.17,54,91.17,56.5Zm-4.23.12c0,2,.62,3.18,1.58,3.18s1.6-1.26,1.6-3.25-.5-3.18-1.59-3.18C87.61,53.37,86.94,54.5,86.94,56.62Z" fill="#e0e0e0"/><path d="M94.44,53.67h0l-1.35.73-.21-.8,1.71-.92h.9v7.8h-1Z" fill="#e0e0e0"/><path d="M103.48,56.5c0,2.65-1,4.11-2.71,4.11-1.52,0-2.55-1.42-2.58-4s1.13-4.06,2.71-4.06S103.48,54,103.48,56.5Zm-4.23.12c0,2,.62,3.18,1.58,3.18s1.6-1.26,1.6-3.25-.49-3.18-1.59-3.18C99.92,53.37,99.25,54.5,99.25,56.62Z" fill="#e0e0e0"/><path d="M106.75,53.67h0l-1.35.73-.2-.8,1.7-.92h.9v7.8h-1Z" fill="#e0e0e0"/><path d="M115.79,56.5c0,2.65-1,4.11-2.71,4.11-1.52,0-2.55-1.42-2.57-4s1.12-4.06,2.71-4.06S115.79,54,115.79,56.5Zm-4.23.12c0,2,.62,3.18,1.58,3.18s1.6-1.26,1.6-3.25-.49-3.18-1.58-3.18C112.23,53.37,111.56,54.5,111.56,56.62Z" fill="#e0e0e0"/><path d="M119.06,53.67h0l-1.36.73-.2-.8,1.7-.92h.9v7.8h-1Z" fill="#e0e0e0"/><path d="M128.11,56.5c0,2.65-1,4.11-2.71,4.11-1.53,0-2.56-1.42-2.58-4s1.12-4.06,2.71-4.06S128.11,54,128.11,56.5Zm-4.24.12c0,2,.63,3.18,1.59,3.18s1.59-1.26,1.59-3.25-.49-3.18-1.58-3.18C124.54,53.37,123.87,54.5,123.87,56.62Z" fill="#e0e0e0"/><path d="M134.26,56.5c0,2.65-1,4.11-2.71,4.11-1.52,0-2.55-1.42-2.58-4s1.13-4.06,2.71-4.06S134.26,54,134.26,56.5Zm-4.23.12c0,2,.62,3.18,1.58,3.18s1.6-1.26,1.6-3.25-.49-3.18-1.59-3.18C130.7,53.37,130,54.5,130,56.62Z" fill="#e0e0e0"/><path d="M140.42,56.5c0,2.65-1,4.11-2.71,4.11-1.53,0-2.56-1.42-2.58-4s1.13-4.06,2.71-4.06S140.42,54,140.42,56.5Zm-4.24.12c0,2,.63,3.18,1.59,3.18s1.59-1.26,1.59-3.25-.49-3.18-1.58-3.18C136.86,53.37,136.18,54.5,136.18,56.62Z" fill="#e0e0e0"/><path d="M143.68,53.67h0l-1.36.73-.2-.8,1.7-.92h.9v7.8h-1Z" fill="#e0e0e0"/><path d="M152.73,56.5c0,2.65-1,4.11-2.71,4.11-1.52,0-2.56-1.42-2.58-4s1.13-4.06,2.71-4.06S152.73,54,152.73,56.5Zm-4.23.12c0,2,.62,3.18,1.58,3.18s1.59-1.26,1.59-3.25-.49-3.18-1.58-3.18C149.17,53.37,148.5,54.5,148.5,56.62Z" fill="#e0e0e0"/><path d="M156,53.67h0l-1.35.73-.21-.8,1.7-.92h.9v7.8h-1Z" fill="#e0e0e0"/><path d="M165,56.5c0,2.65-1,4.11-2.71,4.11-1.52,0-2.55-1.42-2.58-4s1.13-4.06,2.71-4.06S165,54,165,56.5Zm-4.23.12c0,2,.62,3.18,1.58,3.18s1.6-1.26,1.6-3.25-.5-3.18-1.59-3.18C161.48,53.37,160.81,54.5,160.81,56.62Z" fill="#e0e0e0"/><path d="M168.31,53.67h0l-1.35.73-.21-.8,1.71-.92h.9v7.8h-1Z" fill="#e0e0e0"/><path d="M177.35,56.5c0,2.65-1,4.11-2.71,4.11-1.52,0-2.55-1.42-2.58-4s1.13-4.06,2.71-4.06S177.35,54,177.35,56.5Zm-4.23.12c0,2,.62,3.18,1.58,3.18s1.6-1.26,1.6-3.25-.49-3.18-1.59-3.18C173.79,53.37,173.12,54.5,173.12,56.62Z" fill="#e0e0e0"/><path d="M180.62,53.67h0l-1.35.73-.2-.8,1.7-.92h.9v7.8h-1Z" fill="#e0e0e0"/><path d="M189.66,56.5c0,2.65-1,4.11-2.71,4.11-1.52,0-2.55-1.42-2.57-4s1.12-4.06,2.71-4.06S189.66,54,189.66,56.5Zm-4.23.12c0,2,.62,3.18,1.58,3.18s1.6-1.26,1.6-3.25-.49-3.18-1.58-3.18C186.1,53.37,185.43,54.5,185.43,56.62Z" fill="#e0e0e0"/><path d="M195.82,56.5c0,2.65-1,4.11-2.71,4.11-1.52,0-2.55-1.42-2.58-4s1.13-4.06,2.71-4.06S195.82,54,195.82,56.5Zm-4.23.12c0,2,.62,3.18,1.58,3.18s1.6-1.26,1.6-3.25-.5-3.18-1.59-3.18C192.26,53.37,191.59,54.5,191.59,56.62Z" fill="#e0e0e0"/><path d="M202,56.5c0,2.65-1,4.11-2.71,4.11-1.53,0-2.56-1.42-2.58-4s1.12-4.06,2.71-4.06S202,54,202,56.5Zm-4.24.12c0,2,.63,3.18,1.59,3.18s1.59-1.26,1.59-3.25-.49-3.18-1.58-3.18C198.41,53.37,197.74,54.5,197.74,56.62Z" fill="#e0e0e0"/><path d="M208.13,56.5c0,2.65-1,4.11-2.71,4.11-1.52,0-2.55-1.42-2.58-4s1.13-4.06,2.71-4.06S208.13,54,208.13,56.5Zm-4.23.12c0,2,.62,3.18,1.58,3.18s1.6-1.26,1.6-3.25-.5-3.18-1.59-3.18C204.57,53.37,203.9,54.5,203.9,56.62Z" fill="#e0e0e0"/><path d="M214.29,56.5c0,2.65-1,4.11-2.71,4.11-1.53,0-2.56-1.42-2.58-4s1.13-4.06,2.71-4.06S214.29,54,214.29,56.5Zm-4.24.12c0,2,.63,3.18,1.59,3.18s1.59-1.26,1.59-3.25-.49-3.18-1.58-3.18C210.73,53.37,210.05,54.5,210.05,56.62Z" fill="#e0e0e0"/><path d="M220.44,56.5c0,2.65-1,4.11-2.71,4.11-1.52,0-2.55-1.42-2.58-4s1.13-4.06,2.72-4.06S220.44,54,220.44,56.5Zm-4.23.12c0,2,.62,3.18,1.58,3.18s1.6-1.26,1.6-3.25-.49-3.18-1.58-3.18C216.88,53.37,216.21,54.5,216.21,56.62Z" fill="#e0e0e0"/><path d="M226.6,56.5c0,2.65-1,4.11-2.71,4.11-1.52,0-2.56-1.42-2.58-4s1.13-4.06,2.71-4.06S226.6,54,226.6,56.5Zm-4.23.12c0,2,.62,3.18,1.58,3.18s1.59-1.26,1.59-3.25-.49-3.18-1.58-3.18C223,53.37,222.37,54.5,222.37,56.62Z" fill="#e0e0e0"/><path d="M229.87,53.67h0l-1.35.73-.21-.8,1.7-.92h.9v7.8h-1Z" fill="#e0e0e0"/><path d="M236,53.67h0l-1.36.73-.2-.8,1.7-.92h.9v7.8h-1Z" fill="#e0e0e0"/><path d="M242.18,53.67h0l-1.35.73-.21-.8,1.71-.92h.9v7.8h-1Z" fill="#e0e0e0"/><path d="M248.33,53.67h0L247,54.4l-.2-.8,1.7-.92h.9v7.8h-1Z" fill="#e0e0e0"/><path d="M254.49,53.67h0l-1.35.73-.21-.8,1.71-.92h.9v7.8h-1Z" fill="#e0e0e0"/><path d="M260.64,53.67h0l-1.35.73-.21-.8,1.7-.92h.9v7.8h-1Z" fill="#e0e0e0"/><path d="M269.69,56.5c0,2.65-1,4.11-2.71,4.11-1.52,0-2.55-1.42-2.58-4s1.13-4.06,2.71-4.06S269.69,54,269.69,56.5Zm-4.23.12c0,2,.62,3.18,1.58,3.18s1.6-1.26,1.6-3.25-.5-3.18-1.59-3.18C266.13,53.37,265.46,54.5,265.46,56.62Z" fill="#e0e0e0"/><path d="M275.85,56.5c0,2.65-1,4.11-2.71,4.11-1.53,0-2.56-1.42-2.58-4s1.12-4.06,2.71-4.06S275.85,54,275.85,56.5Zm-4.24.12c0,2,.63,3.18,1.59,3.18s1.59-1.26,1.59-3.25-.49-3.18-1.58-3.18C272.28,53.37,271.61,54.5,271.61,56.62Z" fill="#e0e0e0"/><path d="M279.11,53.67h0l-1.36.73-.2-.8,1.7-.92h.9v7.8h-1Z" fill="#e0e0e0"/><path d="M288.16,56.5c0,2.65-1,4.11-2.71,4.11-1.53,0-2.56-1.42-2.58-4s1.13-4.06,2.71-4.06S288.16,54,288.16,56.5Zm-4.24.12c0,2,.63,3.18,1.59,3.18s1.59-1.26,1.59-3.25-.49-3.18-1.58-3.18C284.6,53.37,283.92,54.5,283.92,56.62Z" fill="#e0e0e0"/><path d="M291.42,53.67h0L290,54.4l-.2-.8,1.7-.92h.9v7.8h-1Z" fill="#e0e0e0"/><path d="M297.58,53.67h0l-1.36.73-.2-.8,1.7-.92h.9v7.8h-1Z" fill="#e0e0e0"/><path d="M303.73,53.67h0l-1.35.73-.21-.8,1.7-.92h.9v7.8h-1Z" fill="#e0e0e0"/><path d="M309.89,53.67h0l-1.36.73-.2-.8,1.7-.92h.9v7.8h-1Z" fill="#e0e0e0"/><path d="M318.94,56.5c0,2.65-1,4.11-2.71,4.11-1.53,0-2.56-1.42-2.58-4s1.13-4.06,2.71-4.06S318.94,54,318.94,56.5Zm-4.24.12c0,2,.63,3.18,1.59,3.18s1.59-1.26,1.59-3.25-.49-3.18-1.58-3.18C315.38,53.37,314.7,54.5,314.7,56.62Z" fill="#e0e0e0"/><path d="M322.2,53.67h0l-1.36.73-.2-.8,1.7-.92h.9v7.8h-1Z" fill="#e0e0e0"/><path d="M331.25,56.5c0,2.65-1,4.11-2.71,4.11-1.52,0-2.56-1.42-2.58-4s1.13-4.06,2.71-4.06S331.25,54,331.25,56.5Zm-4.23.12c0,2,.62,3.18,1.58,3.18s1.59-1.26,1.59-3.25-.49-3.18-1.58-3.18C327.69,53.37,327,54.5,327,56.62Z" fill="#e0e0e0"/><path d="M334.51,53.67h0l-1.36.73-.2-.8,1.7-.92h.9v7.8h-1Z" fill="#e0e0e0"/><path d="M169,302.56c0,2.65-1,4.11-2.71,4.11-1.52,0-2.55-1.43-2.58-4s1.13-4.06,2.71-4.06S169,300.08,169,302.56Zm-4.23.12c0,2,.62,3.18,1.58,3.18s1.6-1.26,1.6-3.25-.49-3.18-1.59-3.18C165.4,299.43,164.73,300.56,164.73,302.68Z" fill="#e0e0e0"/><path d="M172.23,299.73h0l-1.35.73-.21-.8,1.71-.92h.9v7.8h-1Z" fill="#e0e0e0"/><path d="M181.27,302.56c0,2.65-1,4.11-2.71,4.11-1.52,0-2.55-1.43-2.58-4s1.13-4.06,2.71-4.06S181.27,300.08,181.27,302.56Zm-4.23.12c0,2,.62,3.18,1.58,3.18s1.6-1.26,1.6-3.25-.49-3.18-1.58-3.18C177.71,299.43,177,300.56,177,302.68Z" fill="#e0e0e0"/><path d="M184.54,299.73h0l-1.36.73-.2-.8,1.7-.92h.9v7.8h-1Z" fill="#e0e0e0"/><path d="M193.58,302.56c0,2.65-1,4.11-2.71,4.11-1.52,0-2.55-1.43-2.57-4s1.12-4.06,2.71-4.06S193.58,300.08,193.58,302.56Zm-4.23.12c0,2,.63,3.18,1.58,3.18s1.6-1.26,1.6-3.25-.49-3.18-1.58-3.18C190,299.43,189.35,300.56,189.35,302.68Z" fill="#e0e0e0"/><path d="M196.85,299.73h0l-1.36.73-.2-.8,1.7-.92h.9v7.8h-1Z" fill="#e0e0e0"/><path d="M205.9,302.56c0,2.65-1,4.11-2.71,4.11-1.53,0-2.56-1.43-2.58-4s1.13-4.06,2.71-4.06S205.9,300.08,205.9,302.56Zm-4.24.12c0,2,.63,3.18,1.59,3.18s1.59-1.26,1.59-3.25-.49-3.18-1.58-3.18C202.33,299.43,201.66,300.56,201.66,302.68Z" fill="#e0e0e0"/><path d="M212.05,302.56c0,2.65-1,4.11-2.71,4.11-1.52,0-2.55-1.43-2.58-4s1.13-4.06,2.71-4.06S212.05,300.08,212.05,302.56Zm-4.23.12c0,2,.62,3.18,1.58,3.18s1.6-1.26,1.6-3.25-.49-3.18-1.59-3.18C208.49,299.43,207.82,300.56,207.82,302.68Z" fill="#e0e0e0"/><path d="M218.21,302.56c0,2.65-1,4.11-2.71,4.11-1.52,0-2.56-1.43-2.58-4s1.13-4.06,2.71-4.06S218.21,300.08,218.21,302.56Zm-4.23.12c0,2,.62,3.18,1.58,3.18s1.59-1.26,1.59-3.25-.49-3.18-1.58-3.18C214.65,299.43,214,300.56,214,302.68Z" fill="#e0e0e0"/><path d="M221.47,299.73h0l-1.36.73-.2-.8,1.7-.92h.9v7.8h-1Z" fill="#e0e0e0"/><path d="M230.52,302.56c0,2.65-1,4.11-2.71,4.11-1.52,0-2.56-1.43-2.58-4s1.13-4.06,2.71-4.06S230.52,300.08,230.52,302.56Zm-4.23.12c0,2,.62,3.18,1.58,3.18s1.59-1.26,1.59-3.25-.49-3.18-1.58-3.18C227,299.43,226.29,300.56,226.29,302.68Z" fill="#e0e0e0"/><path d="M233.79,299.73h0l-1.35.73-.21-.8,1.71-.92h.9v7.8h-1Z" fill="#e0e0e0"/><path d="M242.83,302.56c0,2.65-1,4.11-2.71,4.11-1.52,0-2.55-1.43-2.58-4s1.13-4.06,2.71-4.06S242.83,300.08,242.83,302.56Zm-4.23.12c0,2,.62,3.18,1.58,3.18s1.6-1.26,1.6-3.25-.49-3.18-1.59-3.18C239.27,299.43,238.6,300.56,238.6,302.68Z" fill="#e0e0e0"/><path d="M246.1,299.73h0l-1.35.73-.21-.8,1.71-.92h.9v7.8h-1Z" fill="#e0e0e0"/><path d="M255.14,302.56c0,2.65-1,4.11-2.71,4.11-1.52,0-2.55-1.43-2.58-4s1.13-4.06,2.71-4.06S255.14,300.08,255.14,302.56Zm-4.23.12c0,2,.62,3.18,1.58,3.18s1.6-1.26,1.6-3.25-.49-3.18-1.58-3.18C251.58,299.43,250.91,300.56,250.91,302.68Z" fill="#e0e0e0"/><path d="M258.41,299.73h0l-1.36.73-.2-.8,1.7-.92h.9v7.8h-1Z" fill="#e0e0e0"/><path d="M267.46,302.56c0,2.65-1,4.11-2.72,4.11-1.52,0-2.55-1.43-2.57-4s1.12-4.06,2.71-4.06S267.46,300.08,267.46,302.56Zm-4.24.12c0,2,.63,3.18,1.58,3.18s1.6-1.26,1.6-3.25-.49-3.18-1.58-3.18C263.89,299.43,263.22,300.56,263.22,302.68Z" fill="#e0e0e0"/><path d="M273.61,302.56c0,2.65-1,4.11-2.71,4.11-1.52,0-2.55-1.43-2.58-4s1.13-4.06,2.71-4.06S273.61,300.08,273.61,302.56Zm-4.23.12c0,2,.62,3.18,1.58,3.18s1.6-1.26,1.6-3.25-.5-3.18-1.59-3.18C270.05,299.43,269.38,300.56,269.38,302.68Z" fill="#e0e0e0"/><path d="M279.77,302.56c0,2.65-1,4.11-2.71,4.11-1.53,0-2.56-1.43-2.58-4s1.12-4.06,2.71-4.06S279.77,300.08,279.77,302.56Zm-4.24.12c0,2,.63,3.18,1.59,3.18s1.59-1.26,1.59-3.25-.49-3.18-1.58-3.18C276.2,299.43,275.53,300.56,275.53,302.68Z" fill="#e0e0e0"/><path d="M285.92,302.56c0,2.65-1,4.11-2.71,4.11-1.52,0-2.55-1.43-2.58-4s1.13-4.06,2.71-4.06S285.92,300.08,285.92,302.56Zm-4.23.12c0,2,.62,3.18,1.58,3.18s1.6-1.26,1.6-3.25-.49-3.18-1.59-3.18C282.36,299.43,281.69,300.56,281.69,302.68Z" fill="#e0e0e0"/><path d="M292.08,302.56c0,2.65-1,4.11-2.71,4.11-1.53,0-2.56-1.43-2.58-4s1.13-4.06,2.71-4.06S292.08,300.08,292.08,302.56Zm-4.24.12c0,2,.63,3.18,1.59,3.18s1.59-1.26,1.59-3.25-.49-3.18-1.58-3.18C288.52,299.43,287.84,300.56,287.84,302.68Z" fill="#e0e0e0"/><path d="M298.23,302.56c0,2.65-1,4.11-2.71,4.11-1.52,0-2.55-1.43-2.57-4s1.12-4.06,2.71-4.06S298.23,300.08,298.23,302.56Zm-4.23.12c0,2,.62,3.18,1.58,3.18s1.6-1.26,1.6-3.25-.49-3.18-1.58-3.18C294.67,299.43,294,300.56,294,302.68Z" fill="#e0e0e0"/><path d="M304.39,302.56c0,2.65-1,4.11-2.71,4.11-1.52,0-2.56-1.43-2.58-4s1.13-4.06,2.71-4.06S304.39,300.08,304.39,302.56Zm-4.23.12c0,2,.62,3.18,1.58,3.18s1.59-1.26,1.59-3.25-.49-3.18-1.58-3.18C300.83,299.43,300.16,300.56,300.16,302.68Z" fill="#e0e0e0"/><path d="M307.66,299.73h0l-1.35.73-.21-.8,1.71-.92h.9v7.8h-1Z" fill="#e0e0e0"/><path d="M313.81,299.73h0l-1.36.73-.2-.8,1.7-.92h.9v7.8h-1Z" fill="#e0e0e0"/><path d="M320,299.73h0l-1.35.73-.21-.8,1.71-.92h.9v7.8h-1Z" fill="#e0e0e0"/><path d="M326.12,299.73h0l-1.36.73-.2-.8,1.7-.92h.9v7.8h-1Z" fill="#e0e0e0"/><path d="M332.28,299.73h0l-1.35.73-.2-.8,1.7-.92h.9v7.8h-1Z" fill="#e0e0e0"/><path d="M338.44,299.73h0l-1.35.73-.21-.8,1.7-.92h.9v7.8h-1Z" fill="#e0e0e0"/><path d="M347.48,302.56c0,2.65-1,4.11-2.71,4.11-1.52,0-2.55-1.43-2.58-4s1.13-4.06,2.71-4.06S347.48,300.08,347.48,302.56Zm-4.23.12c0,2,.62,3.18,1.58,3.18s1.6-1.26,1.6-3.25-.5-3.18-1.59-3.18C343.92,299.43,343.25,300.56,343.25,302.68Z" fill="#e0e0e0"/><path d="M353.64,302.56c0,2.65-1,4.11-2.71,4.11-1.53,0-2.56-1.43-2.58-4s1.13-4.06,2.71-4.06S353.64,300.08,353.64,302.56Zm-4.24.12c0,2,.63,3.18,1.59,3.18s1.59-1.26,1.59-3.25-.49-3.18-1.58-3.18C350.07,299.43,349.4,300.56,349.4,302.68Z" fill="#e0e0e0"/><path d="M356.9,299.73h0l-1.36.73-.2-.8,1.7-.92h.9v7.8h-1Z" fill="#e0e0e0"/><path d="M366,302.56c0,2.65-1,4.11-2.71,4.11-1.53,0-2.56-1.43-2.58-4s1.13-4.06,2.71-4.06S366,300.08,366,302.56Zm-4.24.12c0,2,.63,3.18,1.59,3.18s1.59-1.26,1.59-3.25-.49-3.18-1.58-3.18C362.39,299.43,361.71,300.56,361.71,302.68Z" fill="#e0e0e0"/><path d="M369.21,299.73h0l-1.36.73-.2-.8,1.7-.92h.9v7.8h-1Z" fill="#e0e0e0"/><path d="M375.37,299.73h0l-1.36.73-.2-.8,1.7-.92h.9v7.8h-1Z" fill="#e0e0e0"/><path d="M381.53,299.73h0l-1.35.73-.21-.8,1.71-.92h.89v7.8h-1Z" fill="#e0e0e0"/><path d="M387.68,299.73h0l-1.36.73-.2-.8,1.7-.92h.9v7.8h-1Z" fill="#e0e0e0"/><path d="M396.73,302.56c0,2.65-1,4.11-2.71,4.11-1.53,0-2.56-1.43-2.58-4s1.13-4.06,2.71-4.06S396.73,300.08,396.73,302.56Zm-4.24.12c0,2,.63,3.18,1.59,3.18s1.59-1.26,1.59-3.25-.49-3.18-1.58-3.18C393.17,299.43,392.49,300.56,392.49,302.68Z" fill="#e0e0e0"/><path d="M400,299.73h0l-1.36.73-.2-.8,1.7-.92h.9v7.8h-1Z" fill="#e0e0e0"/><path d="M409,302.56c0,2.65-1,4.11-2.71,4.11-1.52,0-2.56-1.43-2.58-4s1.13-4.06,2.71-4.06S409,300.08,409,302.56Zm-4.23.12c0,2,.62,3.18,1.58,3.18s1.59-1.26,1.59-3.25-.49-3.18-1.58-3.18C405.48,299.43,404.81,300.56,404.81,302.68Z" fill="#e0e0e0"/><path d="M412.3,299.73h0l-1.35.73-.21-.8,1.7-.92h.9v7.8h-1Z" fill="#e0e0e0"/><path d="M233,280.22c0,2.66-1,4.12-2.71,4.12-1.52,0-2.56-1.43-2.58-4s1.13-4.05,2.71-4.05S233,277.74,233,280.22Zm-4.23.12c0,2,.62,3.18,1.58,3.18s1.59-1.26,1.59-3.25-.49-3.18-1.58-3.18C229.47,277.09,228.8,278.22,228.8,280.34Z" fill="#e0e0e0"/><path d="M236.3,277.39h0l-1.35.74-.21-.81,1.71-.91h.89v7.8h-1Z" fill="#e0e0e0"/><path d="M245.34,280.22c0,2.66-1,4.12-2.71,4.12-1.52,0-2.55-1.43-2.58-4s1.13-4.05,2.71-4.05S245.34,277.74,245.34,280.22Zm-4.23.12c0,2,.62,3.18,1.58,3.18s1.6-1.26,1.6-3.25-.5-3.18-1.59-3.18C241.78,277.09,241.11,278.22,241.11,280.34Z" fill="#e0e0e0"/><path d="M248.61,277.39h0l-1.35.74-.21-.81,1.71-.91h.9v7.8h-1Z" fill="#e0e0e0"/><path d="M257.65,280.22c0,2.66-1,4.12-2.71,4.12-1.52,0-2.55-1.43-2.58-4s1.13-4.05,2.71-4.05S257.65,277.74,257.65,280.22Zm-4.23.12c0,2,.62,3.18,1.58,3.18s1.6-1.26,1.6-3.25-.49-3.18-1.59-3.18C254.09,277.09,253.42,278.22,253.42,280.34Z" fill="#e0e0e0"/><path d="M260.92,277.39h0l-1.36.74-.2-.81,1.7-.91h.9v7.8h-1Z" fill="#e0e0e0"/><path d="M270,280.22c0,2.66-1,4.12-2.71,4.12-1.52,0-2.55-1.43-2.57-4s1.12-4.05,2.71-4.05S270,277.74,270,280.22Zm-4.23.12c0,2,.62,3.18,1.58,3.18s1.6-1.26,1.6-3.25-.49-3.18-1.58-3.18C266.4,277.09,265.73,278.22,265.73,280.34Z" fill="#e0e0e0"/><path d="M276.12,280.22c0,2.66-1,4.12-2.71,4.12-1.52,0-2.55-1.43-2.58-4s1.13-4.05,2.71-4.05S276.12,277.74,276.12,280.22Zm-4.23.12c0,2,.62,3.18,1.58,3.18s1.6-1.26,1.6-3.25-.5-3.18-1.59-3.18C272.56,277.09,271.89,278.22,271.89,280.34Z" fill="#e0e0e0"/><path d="M282.28,280.22c0,2.66-1,4.12-2.71,4.12-1.53,0-2.56-1.43-2.58-4s1.12-4.05,2.71-4.05S282.28,277.74,282.28,280.22Zm-4.24.12c0,2,.63,3.18,1.59,3.18s1.59-1.26,1.59-3.25-.49-3.18-1.58-3.18C278.71,277.09,278,278.22,278,280.34Z" fill="#e0e0e0"/><path d="M285.54,277.39h0l-1.36.74-.2-.81,1.7-.91h.9v7.8h-1Z" fill="#e0e0e0"/><path d="M294.59,280.22c0,2.66-1,4.12-2.71,4.12-1.53,0-2.56-1.43-2.58-4s1.13-4.05,2.71-4.05S294.59,277.74,294.59,280.22Zm-4.24.12c0,2,.63,3.18,1.59,3.18s1.59-1.26,1.59-3.25-.49-3.18-1.58-3.18C291,277.09,290.35,278.22,290.35,280.34Z" fill="#e0e0e0"/><path d="M297.85,277.39h0l-1.36.74-.2-.81,1.7-.91h.9v7.8h-1Z" fill="#e0e0e0"/><path d="M306.9,280.22c0,2.66-1,4.12-2.71,4.12-1.52,0-2.56-1.43-2.58-4s1.13-4.05,2.71-4.05S306.9,277.74,306.9,280.22Zm-4.23.12c0,2,.62,3.18,1.58,3.18s1.59-1.26,1.59-3.25-.49-3.18-1.58-3.18C303.34,277.09,302.67,278.22,302.67,280.34Z" fill="#e0e0e0"/><path d="M310.17,277.39h0l-1.35.74-.21-.81,1.71-.91h.9v7.8h-1Z" fill="#e0e0e0"/><path d="M319.21,280.22c0,2.66-1,4.12-2.71,4.12-1.52,0-2.55-1.43-2.58-4s1.13-4.05,2.71-4.05S319.21,277.74,319.21,280.22Zm-4.23.12c0,2,.62,3.18,1.58,3.18s1.6-1.26,1.6-3.25-.5-3.18-1.59-3.18C315.65,277.09,315,278.22,315,280.34Z" fill="#e0e0e0"/><path d="M322.48,277.39h0l-1.35.74-.21-.81,1.71-.91h.9v7.8h-1Z" fill="#e0e0e0"/><path d="M331.52,280.22c0,2.66-1,4.12-2.71,4.12-1.52,0-2.55-1.43-2.58-4s1.13-4.05,2.71-4.05S331.52,277.74,331.52,280.22Zm-4.23.12c0,2,.62,3.18,1.58,3.18s1.6-1.26,1.6-3.25-.49-3.18-1.59-3.18C328,277.09,327.29,278.22,327.29,280.34Z" fill="#e0e0e0"/><path d="M337.68,280.22c0,2.66-1,4.12-2.71,4.12-1.52,0-2.56-1.43-2.58-4s1.13-4.05,2.71-4.05S337.68,277.74,337.68,280.22Zm-4.23.12c0,2,.62,3.18,1.58,3.18s1.59-1.26,1.59-3.25-.49-3.18-1.58-3.18C334.12,277.09,333.45,278.22,333.45,280.34Z" fill="#e0e0e0"/><path d="M343.83,280.22c0,2.66-1,4.12-2.71,4.12-1.52,0-2.55-1.43-2.57-4s1.12-4.05,2.71-4.05S343.83,277.74,343.83,280.22Zm-4.23.12c0,2,.62,3.18,1.58,3.18s1.6-1.26,1.6-3.25-.49-3.18-1.58-3.18C340.27,277.09,339.6,278.22,339.6,280.34Z" fill="#e0e0e0"/><path d="M350,280.22c0,2.66-1,4.12-2.71,4.12-1.52,0-2.55-1.43-2.58-4s1.13-4.05,2.71-4.05S350,277.74,350,280.22Zm-4.23.12c0,2,.62,3.18,1.58,3.18s1.6-1.26,1.6-3.25-.5-3.18-1.59-3.18C346.43,277.09,345.76,278.22,345.76,280.34Z" fill="#e0e0e0"/><path d="M356.15,280.22c0,2.66-1,4.12-2.71,4.12-1.53,0-2.56-1.43-2.58-4s1.12-4.05,2.71-4.05S356.15,277.74,356.15,280.22Zm-4.24.12c0,2,.63,3.18,1.59,3.18s1.59-1.26,1.59-3.25-.49-3.18-1.58-3.18C352.58,277.09,351.91,278.22,351.91,280.34Z" fill="#e0e0e0"/><path d="M362.3,280.22c0,2.66-1,4.12-2.71,4.12-1.52,0-2.55-1.43-2.58-4s1.13-4.05,2.71-4.05S362.3,277.74,362.3,280.22Zm-4.23.12c0,2,.62,3.18,1.58,3.18s1.6-1.26,1.6-3.25-.49-3.18-1.59-3.18C358.74,277.09,358.07,278.22,358.07,280.34Z" fill="#e0e0e0"/><path d="M368.46,280.22c0,2.66-1,4.12-2.71,4.12-1.53,0-2.56-1.43-2.58-4s1.13-4.05,2.71-4.05S368.46,277.74,368.46,280.22Zm-4.24.12c0,2,.63,3.18,1.59,3.18s1.59-1.26,1.59-3.25-.49-3.18-1.58-3.18C364.9,277.09,364.22,278.22,364.22,280.34Z" fill="#e0e0e0"/><path d="M371.72,277.39h0l-1.36.74-.2-.81,1.7-.91h.9v7.8h-1Z" fill="#e0e0e0"/><path d="M377.88,277.39h0l-1.36.74-.2-.81,1.7-.91h.9v7.8h-1Z" fill="#e0e0e0"/><path d="M384,277.39h0l-1.35.74-.21-.81,1.7-.91h.9v7.8h-1Z" fill="#e0e0e0"/><path d="M390.19,277.39h0l-1.36.74-.2-.81,1.7-.91h.9v7.8h-1Z" fill="#e0e0e0"/><path d="M396.35,277.39h0l-1.35.74-.21-.81,1.71-.91h.9v7.8h-1Z" fill="#e0e0e0"/><path d="M402.5,277.39h0l-1.36.74-.2-.81,1.7-.91h.9v7.8h-1Z" fill="#e0e0e0"/><path d="M411.55,280.22c0,2.66-1,4.12-2.71,4.12-1.52,0-2.56-1.43-2.58-4s1.13-4.05,2.71-4.05S411.55,277.74,411.55,280.22Zm-4.23.12c0,2,.62,3.18,1.58,3.18s1.59-1.26,1.59-3.25-.49-3.18-1.58-3.18C408,277.09,407.32,278.22,407.32,280.34Z" fill="#e0e0e0"/><path d="M417.7,280.22c0,2.66-1,4.12-2.71,4.12-1.52,0-2.55-1.43-2.57-4s1.12-4.05,2.71-4.05S417.7,277.74,417.7,280.22Zm-4.23.12c0,2,.62,3.18,1.58,3.18s1.6-1.26,1.6-3.25-.49-3.18-1.58-3.18C414.14,277.09,413.47,278.22,413.47,280.34Z" fill="#e0e0e0"/><path d="M421,277.39h0l-1.36.74-.2-.81,1.7-.91h.9v7.8h-1Z" fill="#e0e0e0"/><path d="M430,280.22c0,2.66-1,4.12-2.71,4.12-1.53,0-2.56-1.43-2.58-4s1.12-4.05,2.71-4.05S430,277.74,430,280.22Zm-4.24.12c0,2,.63,3.18,1.59,3.18s1.59-1.26,1.59-3.25-.49-3.18-1.58-3.18C426.45,277.09,425.78,278.22,425.78,280.34Z" fill="#e0e0e0"/><path d="M433.28,277.39h0l-1.36.74-.2-.81,1.7-.91h.9v7.8h-1Z" fill="#e0e0e0"/><path d="M439.44,277.39h0l-1.35.74-.21-.81,1.71-.91h.9v7.8h-1Z" fill="#e0e0e0"/><path d="M445.59,277.39h0l-1.36.74-.2-.81,1.7-.91h.9v7.8h-1Z" fill="#e0e0e0"/><path d="M451.75,277.39h0l-1.36.74-.2-.81,1.7-.91h.9v7.8h-1Z" fill="#e0e0e0"/><path d="M460.8,280.22c0,2.66-1,4.12-2.72,4.12-1.52,0-2.55-1.43-2.57-4s1.12-4.05,2.71-4.05S460.8,277.74,460.8,280.22Zm-4.24.12c0,2,.63,3.18,1.59,3.18s1.59-1.26,1.59-3.25-.49-3.18-1.58-3.18C457.23,277.09,456.56,278.22,456.56,280.34Z" fill="#e0e0e0"/><path d="M464.06,277.39h0l-1.36.74-.2-.81,1.7-.91h.9v7.8h-1Z" fill="#e0e0e0"/><path d="M473.11,280.22c0,2.66-1,4.12-2.71,4.12-1.53,0-2.56-1.43-2.58-4s1.13-4.05,2.71-4.05S473.11,277.74,473.11,280.22Zm-4.24.12c0,2,.63,3.18,1.59,3.18s1.59-1.26,1.59-3.25-.49-3.18-1.58-3.18C469.54,277.09,468.87,278.22,468.87,280.34Z" fill="#e0e0e0"/><path d="M476.37,277.39h0l-1.36.74-.2-.81,1.7-.91h.9v7.8h-1Z" fill="#e0e0e0"/><path d="M91.17,75.07c0,2.65-1,4.11-2.71,4.11-1.52,0-2.55-1.43-2.58-4s1.13-4,2.71-4S91.17,72.58,91.17,75.07Zm-4.23.12c0,2,.62,3.17,1.58,3.17s1.6-1.26,1.6-3.25-.5-3.17-1.59-3.17C87.61,71.94,86.94,73.06,86.94,75.19Z" fill="#e0e0e0"/><path d="M94.44,72.23h0L93.06,73l-.21-.81,1.71-.91h.9v7.8h-1Z" fill="#e0e0e0"/><path d="M103.48,75.07c0,2.65-1,4.11-2.71,4.11-1.52,0-2.55-1.43-2.58-4s1.13-4,2.71-4S103.48,72.58,103.48,75.07Zm-4.23.12c0,2,.62,3.17,1.58,3.17s1.6-1.26,1.6-3.25-.49-3.17-1.59-3.17C99.92,71.94,99.25,73.06,99.25,75.19Z" fill="#e0e0e0"/><path d="M106.75,72.23h0l-1.35.74-.2-.81,1.7-.91h.9v7.8h-1Z" fill="#e0e0e0"/><path d="M115.79,75.07c0,2.65-1,4.11-2.71,4.11-1.52,0-2.55-1.43-2.57-4s1.12-4,2.71-4S115.79,72.58,115.79,75.07Zm-4.23.12c0,2,.62,3.17,1.58,3.17s1.6-1.26,1.6-3.25-.49-3.17-1.58-3.17C112.23,71.94,111.56,73.06,111.56,75.19Z" fill="#e0e0e0"/><path d="M119.06,72.23h0l-1.36.74-.2-.81,1.7-.91h.9v7.8h-1Z" fill="#e0e0e0"/><path d="M128.11,75.07c0,2.65-1,4.11-2.71,4.11-1.53,0-2.56-1.43-2.58-4s1.12-4,2.71-4S128.11,72.58,128.11,75.07Zm-4.24.12c0,2,.63,3.17,1.59,3.17s1.59-1.26,1.59-3.25-.49-3.17-1.58-3.17C124.54,71.94,123.87,73.06,123.87,75.19Z" fill="#e0e0e0"/><path d="M134.26,75.07c0,2.65-1,4.11-2.71,4.11-1.52,0-2.55-1.43-2.58-4s1.13-4,2.71-4S134.26,72.58,134.26,75.07Zm-4.23.12c0,2,.62,3.17,1.58,3.17s1.6-1.26,1.6-3.25-.49-3.17-1.59-3.17C130.7,71.94,130,73.06,130,75.19Z" fill="#e0e0e0"/><path d="M140.42,75.07c0,2.65-1,4.11-2.71,4.11-1.53,0-2.56-1.43-2.58-4s1.13-4,2.71-4S140.42,72.58,140.42,75.07Zm-4.24.12c0,2,.63,3.17,1.59,3.17s1.59-1.26,1.59-3.25-.49-3.17-1.58-3.17C136.86,71.94,136.18,73.06,136.18,75.19Z" fill="#e0e0e0"/><path d="M143.68,72.23h0L142.3,73l-.2-.81,1.7-.91h.9v7.8h-1Z" fill="#e0e0e0"/><path d="M152.73,75.07c0,2.65-1,4.11-2.71,4.11-1.52,0-2.56-1.43-2.58-4s1.13-4,2.71-4S152.73,72.58,152.73,75.07Zm-4.23.12c0,2,.62,3.17,1.58,3.17s1.59-1.26,1.59-3.25-.49-3.17-1.58-3.17C149.17,71.94,148.5,73.06,148.5,75.19Z" fill="#e0e0e0"/><path d="M156,72.23h0l-1.35.74-.21-.81,1.7-.91h.9v7.8h-1Z" fill="#e0e0e0"/><path d="M165,75.07c0,2.65-1,4.11-2.71,4.11-1.52,0-2.55-1.43-2.58-4s1.13-4,2.71-4S165,72.58,165,75.07Zm-4.23.12c0,2,.62,3.17,1.58,3.17s1.6-1.26,1.6-3.25-.5-3.17-1.59-3.17C161.48,71.94,160.81,73.06,160.81,75.19Z" fill="#e0e0e0"/><path d="M168.31,72.23h0l-1.35.74-.21-.81,1.71-.91h.9v7.8h-1Z" fill="#e0e0e0"/><path d="M177.35,75.07c0,2.65-1,4.11-2.71,4.11-1.52,0-2.55-1.43-2.58-4s1.13-4,2.71-4S177.35,72.58,177.35,75.07Zm-4.23.12c0,2,.62,3.17,1.58,3.17s1.6-1.26,1.6-3.25-.49-3.17-1.59-3.17C173.79,71.94,173.12,73.06,173.12,75.19Z" fill="#e0e0e0"/><path d="M180.62,72.23h0l-1.35.74-.2-.81,1.7-.91h.9v7.8h-1Z" fill="#e0e0e0"/><path d="M189.66,75.07c0,2.65-1,4.11-2.71,4.11-1.52,0-2.55-1.43-2.57-4s1.12-4,2.71-4S189.66,72.58,189.66,75.07Zm-4.23.12c0,2,.62,3.17,1.58,3.17s1.6-1.26,1.6-3.25-.49-3.17-1.58-3.17C186.1,71.94,185.43,73.06,185.43,75.19Z" fill="#e0e0e0"/><path d="M192.93,72.23h0l-1.36.74-.2-.81,1.7-.91h.9v7.8h-1Z" fill="#e0e0e0"/><path d="M202,75.07c0,2.65-1,4.11-2.71,4.11-1.53,0-2.56-1.43-2.58-4s1.12-4,2.71-4S202,72.58,202,75.07Zm-4.24.12c0,2,.63,3.17,1.59,3.17s1.59-1.26,1.59-3.25-.49-3.17-1.58-3.17C198.41,71.94,197.74,73.06,197.74,75.19Z" fill="#e0e0e0"/><path d="M205.24,72.23h0l-1.36.74-.2-.81,1.7-.91h.9v7.8h-1Z" fill="#e0e0e0"/><path d="M214.29,75.07c0,2.65-1,4.11-2.71,4.11-1.53,0-2.56-1.43-2.58-4s1.13-4,2.71-4S214.29,72.58,214.29,75.07Zm-4.24.12c0,2,.63,3.17,1.59,3.17s1.59-1.26,1.59-3.25-.49-3.17-1.58-3.17C210.73,71.94,210.05,73.06,210.05,75.19Z" fill="#e0e0e0"/><path d="M217.55,72.23h0l-1.36.74-.2-.81,1.7-.91h.9v7.8h-1Z" fill="#e0e0e0"/><path d="M226.6,75.07c0,2.65-1,4.11-2.71,4.11-1.52,0-2.56-1.43-2.58-4s1.13-4,2.71-4S226.6,72.58,226.6,75.07Zm-4.23.12c0,2,.62,3.17,1.58,3.17s1.59-1.26,1.59-3.25-.49-3.17-1.58-3.17C223,71.94,222.37,73.06,222.37,75.19Z" fill="#e0e0e0"/><path d="M229.87,72.23h0l-1.35.74-.21-.81,1.7-.91h.9v7.8h-1Z" fill="#e0e0e0"/><path d="M238.91,75.07c0,2.65-1,4.11-2.71,4.11-1.52,0-2.55-1.43-2.58-4s1.13-4,2.71-4S238.91,72.58,238.91,75.07Zm-4.23.12c0,2,.62,3.17,1.58,3.17s1.6-1.26,1.6-3.25-.5-3.17-1.59-3.17C235.35,71.94,234.68,73.06,234.68,75.19Z" fill="#e0e0e0"/><path d="M242.18,72.23h0L240.8,73l-.21-.81,1.71-.91h.9v7.8h-1Z" fill="#e0e0e0"/><path d="M251.22,75.07c0,2.65-1,4.11-2.71,4.11-1.52,0-2.55-1.43-2.58-4s1.13-4,2.71-4S251.22,72.58,251.22,75.07Zm-4.23.12c0,2,.62,3.17,1.58,3.17s1.6-1.26,1.6-3.25-.49-3.17-1.59-3.17C247.66,71.94,247,73.06,247,75.19Z" fill="#e0e0e0"/><path d="M257.38,75.07c0,2.65-1,4.11-2.71,4.11-1.52,0-2.56-1.43-2.58-4s1.13-4,2.71-4S257.38,72.58,257.38,75.07Zm-4.23.12c0,2,.62,3.17,1.58,3.17s1.59-1.26,1.59-3.25-.49-3.17-1.58-3.17C253.82,71.94,253.15,73.06,253.15,75.19Z" fill="#e0e0e0"/><path d="M263.53,75.07c0,2.65-1,4.11-2.71,4.11-1.52,0-2.55-1.43-2.57-4s1.12-4,2.71-4S263.53,72.58,263.53,75.07Zm-4.23.12c0,2,.62,3.17,1.58,3.17s1.6-1.26,1.6-3.25-.49-3.17-1.58-3.17C260,71.94,259.3,73.06,259.3,75.19Z" fill="#e0e0e0"/><path d="M269.69,75.07c0,2.65-1,4.11-2.71,4.11-1.52,0-2.55-1.43-2.58-4s1.13-4,2.71-4S269.69,72.58,269.69,75.07Zm-4.23.12c0,2,.62,3.17,1.58,3.17s1.6-1.26,1.6-3.25-.5-3.17-1.59-3.17C266.13,71.94,265.46,73.06,265.46,75.19Z" fill="#e0e0e0"/><path d="M275.85,75.07c0,2.65-1,4.11-2.71,4.11-1.53,0-2.56-1.43-2.58-4s1.12-4,2.71-4S275.85,72.58,275.85,75.07Zm-4.24.12c0,2,.63,3.17,1.59,3.17s1.59-1.26,1.59-3.25-.49-3.17-1.58-3.17C272.28,71.94,271.61,73.06,271.61,75.19Z" fill="#e0e0e0"/><path d="M282,75.07c0,2.65-1,4.11-2.71,4.11-1.52,0-2.55-1.43-2.58-4s1.13-4,2.71-4S282,72.58,282,75.07Zm-4.23.12c0,2,.62,3.17,1.58,3.17s1.6-1.26,1.6-3.25-.49-3.17-1.59-3.17C278.44,71.94,277.77,73.06,277.77,75.19Z" fill="#e0e0e0"/><path d="M288.16,75.07c0,2.65-1,4.11-2.71,4.11-1.53,0-2.56-1.43-2.58-4s1.13-4,2.71-4S288.16,72.58,288.16,75.07Zm-4.24.12c0,2,.63,3.17,1.59,3.17s1.59-1.26,1.59-3.25-.49-3.17-1.58-3.17C284.6,71.94,283.92,73.06,283.92,75.19Z" fill="#e0e0e0"/><path d="M291.42,72.23h0L290,73l-.2-.81,1.7-.91h.9v7.8h-1Z" fill="#e0e0e0"/><path d="M297.58,72.23h0L296.2,73l-.2-.81,1.7-.91h.9v7.8h-1Z" fill="#e0e0e0"/><path d="M303.73,72.23h0l-1.35.74-.21-.81,1.7-.91h.9v7.8h-1Z" fill="#e0e0e0"/><path d="M309.89,72.23h0l-1.36.74-.2-.81,1.7-.91h.9v7.8h-1Z" fill="#e0e0e0"/><path d="M316.05,72.23h0l-1.35.74-.21-.81,1.71-.91h.9v7.8h-1Z" fill="#e0e0e0"/><path d="M322.2,72.23h0l-1.36.74-.2-.81,1.7-.91h.9v7.8h-1Z" fill="#e0e0e0"/><path d="M331.25,75.07c0,2.65-1,4.11-2.71,4.11-1.52,0-2.56-1.43-2.58-4s1.13-4,2.71-4S331.25,72.58,331.25,75.07Zm-4.23.12c0,2,.62,3.17,1.58,3.17s1.59-1.26,1.59-3.25-.49-3.17-1.58-3.17C327.69,71.94,327,73.06,327,75.19Z" fill="#e0e0e0"/><path d="M337.4,75.07c0,2.65-1,4.11-2.71,4.11-1.52,0-2.55-1.43-2.57-4s1.12-4,2.71-4S337.4,72.58,337.4,75.07Zm-4.23.12c0,2,.62,3.17,1.58,3.17s1.6-1.26,1.6-3.25-.49-3.17-1.58-3.17C333.84,71.94,333.17,73.06,333.17,75.19Z" fill="#e0e0e0"/><path d="M340.67,72.23h0l-1.36.74-.2-.81,1.7-.91h.9v7.8h-1Z" fill="#e0e0e0"/><path d="M349.72,75.07c0,2.65-1,4.11-2.71,4.11-1.53,0-2.56-1.43-2.58-4s1.12-4,2.71-4S349.72,72.58,349.72,75.07Zm-4.24.12c0,2,.63,3.17,1.59,3.17s1.59-1.26,1.59-3.25-.49-3.17-1.58-3.17C346.15,71.94,345.48,73.06,345.48,75.19Z" fill="#e0e0e0"/><path d="M353,72.23h0L351.6,73l-.2-.81,1.7-.91h.9v7.8h-1Z" fill="#e0e0e0"/><path d="M359.14,72.23h0l-1.35.74-.21-.81,1.71-.91h.9v7.8h-1Z" fill="#e0e0e0"/><path d="M365.29,72.23h0l-1.36.74-.2-.81,1.7-.91h.9v7.8h-1Z" fill="#e0e0e0"/><path d="M371.45,72.23h0l-1.36.74-.2-.81,1.7-.91h.9v7.8h-1Z" fill="#e0e0e0"/><path d="M380.5,75.07c0,2.65-1,4.11-2.72,4.11-1.52,0-2.55-1.43-2.57-4s1.12-4,2.71-4S380.5,72.58,380.5,75.07Zm-4.24.12c0,2,.63,3.17,1.58,3.17s1.6-1.26,1.6-3.25-.49-3.17-1.58-3.17C376.93,71.94,376.26,73.06,376.26,75.19Z" fill="#e0e0e0"/><path d="M383.76,72.23h0l-1.36.74-.2-.81,1.7-.91h.9v7.8h-1Z" fill="#e0e0e0"/><path d="M392.81,75.07c0,2.65-1,4.11-2.71,4.11-1.53,0-2.56-1.43-2.58-4s1.13-4,2.71-4S392.81,72.58,392.81,75.07Zm-4.24.12c0,2,.63,3.17,1.59,3.17s1.59-1.26,1.59-3.25-.49-3.17-1.58-3.17C389.24,71.94,388.57,73.06,388.57,75.19Z" fill="#e0e0e0"/><path d="M396.07,72.23h0l-1.36.74-.2-.81,1.7-.91h.9v7.8h-1Z" fill="#e0e0e0"/></g><g id="Shadow"><ellipse id="_Path_" data-name="&lt;Path&gt;" cx="250" cy="361.29" rx="193.89" ry="11.32" fill="#f5f5f5"/></g><g id="Window"><path d="M444,37.66V238.91a9.36,9.36,0,0,1-9,9.14H145.39c-4.81,0-8.39-4.32-8.39-9.14V37.66a8.36,8.36,0,0,1,8.39-8.61H435A8.91,8.91,0,0,1,444,37.66Z" fill="#474a88"/><path d="M444,62.74V238.91a9.36,9.36,0,0,1-9,9.14H145.39c-4.81,0-8.39-4.32-8.39-9.14V170.34c25.48-49,86.22-56.94,157.33-28.29C395,182.6,437.93,127.55,444,62.74Z" fill="#fff" opacity="0.1" style="isolation:isolate"/></g><g id="Bar"><path d="M364.92,225.08H218a5,5,0,0,1-5-5h0a5,5,0,0,1,5-5H364.92a5,5,0,0,1,5,5h0A5,5,0,0,1,364.92,225.08Z" opacity="0.2" style="isolation:isolate"/><path d="M218,224.05a4,4,0,1,1,0-8h86.84a4,4,0,1,1,0,8Z" fill="#474a88"/><path d="M218,224.05a4,4,0,1,1,0-8h86.84a4,4,0,1,1,0,8Z" fill="#fff" opacity="0.7" style="isolation:isolate"/></g><g id="Character"><g id="_Group_" data-name="&lt;Group&gt;"><path d="M159.93,232.31c9.32,7.49,6.07,43.24,7.82,48.74s9.25,10,9.25,10l-10.46,12.25s-8.75-1.51-15.4-15.76S159.93,232.31,159.93,232.31Z" fill="#263238"/><path d="M159.93,232.31c9.32,7.49,6.07,43.24,7.82,48.74s9.25,10,9.25,10l-10.46,12.25s-8.75-1.51-15.4-15.76S159.93,232.31,159.93,232.31Z" opacity="0.2" style="isolation:isolate"/><path d="M150,310.8s67-18.69,75.38,4.82S173,357.86,139.37,359,92,336.55,101.92,314.13Z" fill="#474a88"/><path d="M150,310.8s67-18.69,75.38,4.82S173,357.86,139.37,359,92,336.55,101.92,314.13Z" fill="#474a88" opacity="0.2" style="isolation:isolate"/><path d="M215.67,348.84a.21.21,0,0,1-.25,0,.17.17,0,0,1-.06-.21c.11-.37,1.23-3.61,2.35-3.95a.72.72,0,0,1,.68.2,1.14,1.14,0,0,1,.39,1.08,3,3,0,0,1-1.05,1.52A11.71,11.71,0,0,1,215.67,348.84Zm.29-.62a4.76,4.76,0,0,0,2.39-2.31.73.73,0,0,0-.28-.74.24.24,0,0,0-.26-.08.93.93,0,0,0-.26.15A9.22,9.22,0,0,0,216,348.22Z" fill="#474a88"/><path d="M215.61,348.88a.17.17,0,0,1-.21-.06c-.11-.09-1.66-2.05-1.4-3.37a1.22,1.22,0,0,1,.53-.81.73.73,0,0,1,.9-.09c.81.58.71,3.2.31,4.2l0,.09A.17.17,0,0,1,215.61,348.88Zm-.89-3.84a.79.79,0,0,0-.26.47c-.17.84.61,2.09,1,2.7.25-1.12.17-3-.31-3.3-.05,0-.15-.1-.39.07l-.08.06Z" fill="#474a88"/><path d="M147.4,360.74a.24.24,0,0,1,.18-.17.18.18,0,0,1,.19.11c.2.34,1.73,3.4,1.18,4.44a.7.7,0,0,1-.61.34,1.14,1.14,0,0,1-1.05-.47,3,3,0,0,1-.35-1.82A12.55,12.55,0,0,1,147.4,360.74Zm.24.64a4.83,4.83,0,0,0,0,3.33.74.74,0,0,0,.73.32.25.25,0,0,0,.24-.14,1,1,0,0,0,.07-.29A9.33,9.33,0,0,0,147.64,361.38Z" fill="#474a88"/><polygon points="163.63 338.12 151.78 346.81 146.09 350.98 149.8 357.46 155.58 354.3 169.69 346.59 163.63 338.12" fill="#ebb376"/><path d="M151.64,357.27l-3.58-7.89a.84.84,0,0,0-1.15-.41l-3.86,1.88s-5.37,2.17-6,3.92c-2,5.09,5.49,22.75,7.82,22.75.85,0,1.36-1.32,1.48-2.16.37-2.67.44-9.39.78-11.62.4-2.6,3-4.61,4.25-5.4A.87.87,0,0,0,151.64,357.27Z" fill="#263238"/><path d="M147.41,360.67a.19.19,0,0,1,.19-.11c.14,0,2.63.25,3.4,1.36a1.28,1.28,0,0,1,.2.95.72.72,0,0,1-.57.7c-1,.18-2.78-1.73-3.21-2.71l0-.09A.18.18,0,0,1,147.41,360.67Zm3.37,2.06a.84.84,0,0,0-.15-.53c-.48-.7-1.93-1-2.65-1.14.62,1,2,2.2,2.56,2.09.06,0,.18,0,.23-.33v-.09Z" fill="#474a88"/><polygon points="163.63 338.12 151.78 346.81 155.58 354.3 169.69 346.59 163.63 338.12" opacity="0.2" style="isolation:isolate"/><polygon points="158.28 354.79 162.18 353.93 155.71 341.57 152.09 345.25 158.28 354.79" fill="#407bff"/><polygon points="158.28 354.79 162.18 353.93 155.71 341.57 152.09 345.25 158.28 354.79" fill="#fff" opacity="0.6" style="isolation:isolate"/><polygon points="188.15 353.08 202.65 355.47 209.62 356.61 211.65 349.42 205.35 347.51 189.97 342.82 188.15 353.08" fill="#ebb376"/><path d="M210.23,348.24l-3.14,8.08a.87.87,0,0,0,.51,1.12l4.05,1.43s5.31,2.32,7,1.58c5-2.16,12.42-19.85,10.79-21.51-.6-.61-1.89-.05-2.58.45-2.17,1.61-7,6.26-8.85,7.58-2.14,1.53-5.41,1-6.83.75A.84.84,0,0,0,210.23,348.24Z" fill="#263238"/><polygon points="188.15 353.08 202.65 355.47 205.35 347.51 189.97 342.82 188.15 353.08" opacity="0.2" style="isolation:isolate"/><path d="M202.85,346s-60.28-35.55-80.68-34.61S100,332.64,108.41,343.9s24,14,24,14-10.58-15-9.05-19.16,7.36,9.94,7.36,9.94,37.35,4.89,69.89,7.65Z" fill="#474a88"/><polygon points="203.81 345.09 200.46 342.84 196.16 356.05 201.32 356.05 203.81 345.09" fill="#407bff"/><polygon points="203.81 345.09 200.46 342.84 196.16 356.05 201.32 356.05 203.81 345.09" fill="#fff" opacity="0.6" style="isolation:isolate"/><path d="M157.89,317.05c-10.91-21-7.44-52.95,2-84.74-6.6-5.51-32.93-9.23-53-3.39,0,0-12.74,47.21-11.24,98.78Z" fill="#263238"/><path d="M134.73,237.47c-8.77,0-14.48-9.2-14.48-9.2,11.5-4,11.54-16.17,11.54-16.17l4.43,4.33,6.31,6.18c-5.25,3.72-2.77,6.94-1.1,8.37a7.68,7.68,0,0,0,1.1.82S143.5,237.47,134.73,237.47Z" fill="#ebb376"/><path d="M141.43,231c-10.76,1.21-10-14.9-10-14.9a27.39,27.39,0,0,1,4.82.35l6.31,6.18C137.28,226.33,139.76,229.55,141.43,231Z" opacity="0.2" style="isolation:isolate"/><path d="M149.83,200c-4.07,1.69-3.29,6.14,3.47,14.24,4.16-3.58,6.42-11.74,4.23-14.36S153.39,198.56,149.83,200Z" fill="#263238"/><path d="M155.85,218.05v0a28.43,28.43,0,0,1-1.3,3.18c-4,8.19-15.58,9.78-20.7,1.68l-.06-.08c-3.38-5.45-2.11-10.54-.7-19.36a12.2,12.2,0,0,1,19-8.18C158.83,200,158.43,210.52,155.85,218.05Z" fill="#ebb376"/><path d="M145.54,208.8c-.16.71.09,1.36.55,1.47s1-.39,1.12-1.09-.09-1.37-.54-1.48S145.74,208.11,145.54,208.8Z" fill="#263238"/><path d="M153.58,210.61c-.16.71.09,1.37.56,1.47s1-.38,1.13-1.09-.1-1.37-.56-1.47S153.74,209.91,153.58,210.61Z" fill="#263238"/><path d="M150.88,210.36a25.7,25.7,0,0,0,2,6.81c-1.54.89-3.53-.13-3.53-.13Z" fill="#d58745"/><path d="M143.91,205.77a.37.37,0,0,1-.25-.12.42.42,0,0,1,0-.6,4.18,4.18,0,0,1,3.77-1,.41.41,0,0,1,.29.5v0a.46.46,0,0,1-.53.29h0a3.35,3.35,0,0,0-3,.78A.44.44,0,0,1,143.91,205.77Z" fill="#263238"/><path d="M157.85,208.72a.43.43,0,0,1-.32-.32,3.37,3.37,0,0,0-1.92-2.4.45.45,0,0,1-.26-.55.42.42,0,0,1,.54-.26,4.23,4.23,0,0,1,2.46,3,.42.42,0,0,1-.31.51h-.19Z" fill="#263238"/><path d="M138.28,196.57c3.75,2.3,2.27,6.58-5.69,13.49-3.55-4.2-4.48-12.62-1.89-14.84S135,194.56,138.28,196.57Z" fill="#263238"/><path d="M127.38,209.53a8.5,8.5,0,0,0,2.83,5.84c2.24,1.95,4.63.26,5.08-2.52.41-2.51-.28-6.55-3-7.44S127.23,206.78,127.38,209.53Z" fill="#ebb376"/><path d="M142.53,217.14s.92,3.18,5.18,3.91" fill="none" stroke="#263238" stroke-linecap="round" stroke-linejoin="round" stroke-width="0.56"/><path d="M150.19,210.42a3,3,0,1,1-3-3A3,3,0,0,1,150.19,210.42Z" fill="none" stroke="#263238" stroke-linecap="round" stroke-linejoin="round" stroke-width="0.56"/><path d="M158.36,212.1a3,3,0,1,1-3-3A3,3,0,0,1,158.36,212.1Z" fill="none" stroke="#263238" stroke-linecap="round" stroke-linejoin="round" stroke-width="0.56"/><path d="M150.19,211.23a1.61,1.61,0,0,1,2.11.57" fill="none" stroke="#263238" stroke-linecap="round" stroke-linejoin="round" stroke-width="0.56"/><path d="M144.19,209.8s-8.69-3.66-10.31-4" fill="none" stroke="#263238" stroke-linecap="round" stroke-linejoin="round" stroke-width="0.56"/><path d="M130.61,195.34s-.9-7.07,6.31-8.23,16.64.63,19.56-.62a4.6,4.6,0,0,1-2.07,3.07s5.5,2,9.83.28c0,0-1.88,5.21-4.31,7.21H162s-4.1,3.91-9.09,4-9.69-6.79-14.63-4.48S130.61,195.34,130.61,195.34Z" fill="#263238"/><path d="M155.85,218.05v0a28.43,28.43,0,0,1-1.3,3.18c-4,8.19-15.58,9.78-20.7,1.68l-.06-.08c-2.64-4.69-.53-9.81-.53-9.81l1.54-5,1.12-1.11s.26,5.07,1.05,6.5,5.29,1.85,6.21,2.1,3.1,2.85,4.18,3.55,5,.12,5.51.7S155.85,218.05,155.85,218.05Z" opacity="0.4" style="isolation:isolate"/><path d="M110.89,298.55l20.73,23s22.93-.51,50.77,13.1c0,0,29.87-12.34,32.62-22.59s-62.71-3-62.71-3Z" opacity="0.2" style="isolation:isolate"/><path d="M116.75,291.8,150,302.67s11.88-2.62,14-2.62,10.33,6.67,5.69,9-17.31,2.62-18.69,1.87-38.25-9.38-38.25-9.38Z" fill="#ebb376"/><path d="M106.89,228.92c7.52-1.46-5.53,44.38-2.33,51.13s15.69,11,15.69,11l-5.75,12.7s-17-3.21-26.25-15S94.61,231.3,106.89,228.92Z" fill="#263238"/><path d="M106.89,228.92c7.52-1.46-5.53,44.38-2.33,51.13s15.69,11,15.69,11l-5.75,12.7s-17-3.21-26.25-15S94.61,231.3,106.89,228.92Z" opacity="0.2" style="isolation:isolate"/><polygon points="120.25 290.05 113.25 303.76 119.25 305.05 124.75 292.42 120.25 290.05" fill="#263238"/><polygon points="120.25 290.05 113.25 303.76 119.25 305.05 124.75 292.42 120.25 290.05" fill="#fff" opacity="0.2" style="isolation:isolate"/><path d="M134,309.05v2.18a2.83,2.83,0,0,0,2.7,2.82h80.39a3,3,0,0,0,2.91-2.82v-2.18Z" fill="#263238"/><path d="M134,309.05v2.18a2.83,2.83,0,0,0,2.7,2.82h80.39a3,3,0,0,0,2.91-2.82v-2.18Z" fill="#fff" opacity="0.2" style="isolation:isolate"/><path d="M164,309.05v2.18a2.84,2.84,0,0,0,2.71,2.82h50.38a3,3,0,0,0,2.91-2.82v-2.18Z" fill="#fff" opacity="0.2" style="isolation:isolate"/><path d="M166.71,312.05h53.11a4.33,4.33,0,0,0,3.86-2.85L235.86,271a2.11,2.11,0,0,0-2-2.94H180.71a4.42,4.42,0,0,0-3.86,2.94l-12.18,38.16A2.08,2.08,0,0,0,166.71,312.05Z" fill="#263238"/><path d="M166.71,312.05h53.11a4.33,4.33,0,0,0,3.86-2.85L235.86,271a2.11,2.11,0,0,0-2-2.94H180.71a4.42,4.42,0,0,0-3.86,2.94l-12.18,38.16A2.08,2.08,0,0,0,166.71,312.05Z" fill="#fff" opacity="0.2" style="isolation:isolate"/><path d="M168.71,312.05h51.11a4.33,4.33,0,0,0,3.86-2.85L235.86,271a2.11,2.11,0,0,0-2-2.94H182.71a4.42,4.42,0,0,0-3.86,2.94l-12.18,38.16A2.08,2.08,0,0,0,168.71,312.05Z" fill="#fff" opacity="0.2" style="isolation:isolate"/><polygon points="205.32 285.86 197.97 291.06 201.15 296.27 208.5 291.06 205.32 285.86" fill="#fff" opacity="0.2" style="isolation:isolate"/></g></g><g id="Tab5"><rect x="189.88" y="29.45" width="71" height="71" rx="7.33" fill="#474a88" style="isolation:isolate"/><rect x="189.88" y="29.45" width="71" height="71" rx="7.33" fill="#fff" opacity="0.3" style="isolation:isolate"/><path d="M230.85,56.75V52.46l-2.21-.21a11.53,11.53,0,0,0-1.65-4l1.42-1.71-3-3L223.66,45a11.53,11.53,0,0,0-4-1.65l-.21-2.21h-4.29L215,43.3A11.53,11.53,0,0,0,211,45l-1.71-1.42-3,3,1.42,1.71a11.53,11.53,0,0,0-1.65,4l-2.21.21v4.29L206,57a11.53,11.53,0,0,0,1.65,4l-1.42,1.71,3,3L211,64.26a11.53,11.53,0,0,0,4,1.65l.21,2.21h4.29l.21-2.21a11.53,11.53,0,0,0,4-1.65l1.71,1.42,3-3L227,60.93a11.53,11.53,0,0,0,1.65-4Zm-13.51,3.67a5.82,5.82,0,1,1,5.81-5.81A5.82,5.82,0,0,1,217.34,60.42Z" fill="#fff"/><path d="M248.25,68.87V65.51l-1.73-.16a8.92,8.92,0,0,0-1.29-3.11l1.11-1.35L244,58.51l-1.34,1.12a8.93,8.93,0,0,0-3.11-1.3l-.16-1.73H236l-.16,1.73a8.93,8.93,0,0,0-3.11,1.3l-1.34-1.12L229,60.89l1.11,1.35a8.92,8.92,0,0,0-1.29,3.11l-1.73.16v3.36l1.73.17a9,9,0,0,0,1.29,3.1L229,73.49l2.38,2.38,1.34-1.11a9.11,9.11,0,0,0,3.11,1.29l.16,1.73h3.37l.16-1.73a9.11,9.11,0,0,0,3.11-1.29L244,75.87l2.38-2.38-1.11-1.35a9,9,0,0,0,1.29-3.1Zm-10.59,2.88a4.56,4.56,0,1,1,4.56-4.56A4.56,4.56,0,0,1,237.66,71.75Z" fill="#fff"/><path d="M230.85,78.43V75.6l-1.46-.14a7.52,7.52,0,0,0-1.08-2.61l.93-1.13-2-2-1.13.94a7.82,7.82,0,0,0-2.61-1.09l-.14-1.45h-2.83l-.14,1.45a7.82,7.82,0,0,0-2.61,1.09l-1.13-.94-2,2,.93,1.13a7.52,7.52,0,0,0-1.08,2.61l-1.46.14v2.83l1.46.13a7.44,7.44,0,0,0,1.08,2.61l-.93,1.13,2,2,1.13-.93a7.6,7.6,0,0,0,2.61,1.08l.14,1.46h2.83l.14-1.46a7.6,7.6,0,0,0,2.61-1.08l1.13.93,2-2-.93-1.13a7.44,7.44,0,0,0,1.08-2.61ZM222,80.84A3.83,3.83,0,1,1,225.78,77,3.82,3.82,0,0,1,222,80.84Z" fill="#fff"/><rect x="192.88" y="29.45" width="71" height="71" rx="7.33" fill="#fff" opacity="0.2" style="isolation:isolate"/></g><g id="Tab4"><rect x="313.68" y="116.8" width="65.63" height="65.63" rx="6.77" fill="#474a88" style="isolation:isolate"/><rect x="313.68" y="116.8" width="65.63" height="65.63" rx="6.77" fill="#fff" opacity="0.2" style="isolation:isolate"/><path d="M349,160.16a2.37,2.37,0,1,1-2.36-2.37A2.37,2.37,0,0,1,349,160.16Z" fill="#fff"/><path d="M346.43,136.52a23.52,23.52,0,0,0-23.53,23.53h18.79a4.43,4.43,0,0,1,4.74-4.64,5.11,5.11,0,0,1,1.41.27l8.81-10.23-6.22,12.1a4.46,4.46,0,0,1,.73,2.5H370A23.53,23.53,0,0,0,346.43,136.52Z" fill="#fff"/><rect x="316.45" y="116.8" width="65.63" height="65.63" rx="6.77" fill="#fff" opacity="0.2" style="isolation:isolate"/></g><g id="Tab3"><rect x="340.13" y="52.33" width="57.59" height="57.59" rx="5.94" fill="#474a88" style="isolation:isolate"/><rect x="340.13" y="52.33" width="57.59" height="57.59" rx="5.94" fill="#fff" opacity="0.1" style="isolation:isolate"/><path d="M385,66.94a1.89,1.89,0,0,0-1.89-1.89H354.89A1.89,1.89,0,0,0,353,66.94v6.21a1.9,1.9,0,0,0,1.89,1.9h28.22a1.9,1.9,0,0,0,1.89-1.9Zm-9.32,3.37h-1.62V68.68h1.62Zm4.33.81a1.63,1.63,0,1,1,1.62-1.63A1.62,1.62,0,0,1,380,71.12Z" fill="#fff"/><path d="M385,77.94a1.89,1.89,0,0,0-1.89-1.89H354.89A1.89,1.89,0,0,0,353,77.94v6.21a1.9,1.9,0,0,0,1.89,1.9h28.22a1.9,1.9,0,0,0,1.89-1.9Zm-9.32,4h-1.62V80.31h1.62Zm4.33.81a1.62,1.62,0,1,1,1.62-1.62A1.61,1.61,0,0,1,380,82.74Z" fill="#fff"/><path d="M385,88.94a1.89,1.89,0,0,0-1.89-1.89H354.89A1.89,1.89,0,0,0,353,88.94v6.21a1.9,1.9,0,0,0,1.89,1.9h28.22a1.9,1.9,0,0,0,1.89-1.9Zm-9.32,4.62h-1.62V91.93h1.62Zm4.33.81a1.63,1.63,0,1,1,1.62-1.62A1.62,1.62,0,0,1,380,94.37Z" fill="#fff"/><rect x="342.57" y="52.33" width="57.59" height="57.59" rx="5.94" fill="#fff" opacity="0.2" style="isolation:isolate"/></g><g id="Tab2"><rect x="229.49" y="105.61" width="71" height="71" rx="7.33" fill="#474a88" style="isolation:isolate"/><rect x="229.49" y="105.61" width="71" height="71" rx="7.33" fill="#fff" opacity="0.5" style="isolation:isolate"/><path d="M245.35,160.61h0a5.55,5.55,0,0,1,0-7.85l13-12.95a3.13,3.13,0,0,1,4.42,0l3.42,3.42a3.12,3.12,0,0,1,0,4.43l-12.95,13A5.55,5.55,0,0,1,245.35,160.61Z" fill="#fff"/><polygon points="269.21 139.29 266.66 136.75 281.29 122.12 284.48 121.48 283.84 124.66 269.21 139.29" fill="#fff"/><path d="M267.77,142.69l-4.5-4.51a1,1,0,0,1,0-1.46h0a1,1,0,0,1,1.46,0l4.5,4.51a1,1,0,0,1,0,1.46h0A1,1,0,0,1,267.77,142.69Z" fill="#fff"/><path d="M261.71,134.06l-6.17-6.19c1.15-3.09-1.18-6.89-3.71-7.89l-.05,4.76a2,2,0,0,1-2,2,2,2,0,0,1-2-2v-4.72a6.57,6.57,0,0,0-4.1,5.75,6.11,6.11,0,0,0,5.34,6,5.27,5.27,0,0,0,3-.42l6.22,6.24Z" fill="#fff"/><path d="M282.25,157.53v4.72a6.55,6.55,0,0,0,4.1-5.75,6.14,6.14,0,0,0-5.2-6.1,4.81,4.81,0,0,0-2.85.29l-6.46-6.48-3.54,3.53,6.42,6.44c-1.86,3.8,1,7,3.57,8v-4.7a2,2,0,0,1,2-2A2,2,0,0,1,282.25,157.53Z" fill="#fff"/><rect x="232.49" y="105.61" width="71" height="71" rx="7.33" fill="#fff" opacity="0.2" style="isolation:isolate"/></g><g id="Tab1"><rect x="269.41" y="7.18" width="85.58" height="85.58" rx="8.83" transform="translate(624.41 99.95) rotate(180)" fill="#474a88" style="isolation:isolate"/><rect x="269.41" y="7.18" width="85.58" height="85.58" rx="8.83" transform="translate(624.41 99.95) rotate(180)" fill="#fff" opacity="0.5" style="isolation:isolate"/><path d="M312.18,23.45,286,33.74s3.31,36,26.21,42.75c22.91-6.75,26.22-42.75,26.22-42.75Zm-.66,34.86a1.86,1.86,0,0,1-1.45.74h0a1.8,1.8,0,0,1-1.45-.77l-9.19-12.66a1.81,1.81,0,0,1,2.93-2.13l7.76,10.68L322.8,37.43a1.8,1.8,0,0,1,2.53-.35,1.94,1.94,0,0,1,.35,2.64Z" fill="#fff"/><rect x="273.03" y="7.18" width="85.58" height="85.58" rx="8.83" transform="translate(631.64 99.95) rotate(180)" fill="#fff" opacity="0.2" style="isolation:isolate"/></g><g id="Promt2"><rect x="347.81" y="229.97" width="85.25" height="57.53" fill="#474a88"/><rect x="347.81" y="229.97" width="85.25" height="57.53" fill="#fff" opacity="0.7" style="isolation:isolate"/><rect x="349.39" y="234.41" width="81.87" height="51.18" fill="#263238"/><rect x="353.14" y="242.34" width="67.31" height="1.5" fill="#e0e0e0"/><rect x="353.14" y="246.59" width="57.3" height="1.5" fill="#e0e0e0"/><rect x="353.14" y="250.84" width="67.31" height="1.5" fill="#e0e0e0"/><rect x="353.14" y="255.09" width="57.3" height="1.5" fill="#e0e0e0"/><rect x="353.14" y="259.34" width="7.27" height="1.5" fill="#e0e0e0"/><rect x="353.14" y="263.59" width="37.29" height="1.5" fill="#e0e0e0"/><rect x="353.14" y="267.84" width="57.3" height="1.5" fill="#e0e0e0"/><rect x="353.14" y="272.09" width="7.27" height="1.5" fill="#e0e0e0"/><rect x="353.14" y="276.34" width="7.27" height="1.5" fill="#e0e0e0"/></g><g id="Promt1"><rect x="101.98" y="110.28" width="85.25" height="57.53" fill="#474a88"/><rect x="101.98" y="110.28" width="85.25" height="57.53" fill="#fff" opacity="0.7" style="isolation:isolate"/><rect x="103.57" y="114.72" width="81.87" height="51.18" fill="#263238"/><rect x="107.32" y="122.65" width="67.31" height="1.5" fill="#e0e0e0"/><rect x="107.32" y="126.9" width="57.3" height="1.5" fill="#e0e0e0"/><rect x="107.32" y="131.15" width="67.31" height="1.5" fill="#e0e0e0"/><rect x="107.32" y="135.4" width="57.3" height="1.5" fill="#e0e0e0"/><rect x="107.32" y="139.65" width="7.27" height="1.5" fill="#e0e0e0"/><rect x="107.32" y="143.9" width="37.29" height="1.5" fill="#e0e0e0"/><rect x="107.32" y="148.15" width="57.3" height="1.5" fill="#e0e0e0"/><rect x="107.32" y="152.4" width="7.27" height="1.5" fill="#e0e0e0"/><rect x="107.32" y="156.65" width="7.27" height="1.5" fill="#e0e0e0"/></g></svg>