<svg id="Layer_1" data-name="Layer 1" xmlns="http://www.w3.org/2000/svg" viewBox="0 0 2000 2000"><rect width="2000" height="2000" rx="500" fill="#0b0c16" opacity="0.65"/><path d="M1349.51,1118.83l-3.59-6.35c42-19,79.16-44.2,109.65-76.06a358.6,358.6,0,0,0,84.84-176.81,441.93,441.93,0,0,0,5.12-53.42q.09-3.95.09-7.9c0-143.41-83.89-267.23-205.28-325.06a489.63,489.63,0,0,0-68.12-19.58c-49.55-10.59-103.5-15.23-159.85-15.23H400V651.36H709.15v910.22H963.08V1157.39h138.34l.41.77,214,403.42H1600Zm-386.43-163V651.36h188.21A145.73,145.73,0,0,1,1297,797.07v13a145.72,145.72,0,0,1-145.71,145.7Z" fill="#fff"/><path d="M580.82,1495.71,567,1484c7.74-8.12,13-19,13-29.58,0-12.77-5.8-19.78-14.65-19.78-9.34,0-12.33,7.32-16.7,17.63l-6.73,15.52c-4.66,11.18-13.51,23-30.1,23-18.09,0-32-16-32-38.12a49.75,49.75,0,0,1,14.48-35L507,1428c-6.14,7.22-9.75,14.93-9.75,24.65,0,10.76,5,17.77,13.33,17.77,8.92,0,12.22-8.64,16.07-18l6.42-15.31c5.63-13.5,14.17-23,30.62-23,18.4,0,33.75,15.28,33.75,40.76A58.51,58.51,0,0,1,580.82,1495.71Z" fill="#fff"/><path d="M553.15,1359.81,481.84,1394v-21.52l29-12.36c8.43-3.33,16.31-6.53,25-10.1v-.7c-8.65-3.57-16.53-7.15-25-10.45l-29-12.35v-21l71.31,34.16h42.21v20.13Z" fill="#fff"/><path d="M580.82,1285.35,567,1273.62c7.74-8.12,13-19,13-29.58,0-12.77-5.8-19.78-14.65-19.78-9.34,0-12.33,7.32-16.7,17.63l-6.73,15.52c-4.66,11.18-13.51,22.94-30.1,22.94-18.09,0-32-16-32-38.11a49.75,49.75,0,0,1,14.48-35L507,1217.59c-6.14,7.22-9.75,14.93-9.75,24.65,0,10.76,5,17.77,13.33,17.77,8.92,0,12.22-8.64,16.07-18l6.42-15.31c5.63-13.5,14.17-23,30.62-23,18.4,0,33.75,15.28,33.75,40.76A58.51,58.51,0,0,1,580.82,1285.35Z" fill="#fff"/><path d="M498.79,1146.19V1179h-17v-85.68h17v32.77h96.57v20.14Z" fill="#fff"/><path d="M481.84,1057V988.66h17v48.18h29.09V996h16.94v40.82h33.6V986.92h16.94V1057Z" fill="#fff"/><path d="M481.84,946.25V923.47l55.48-20.06c7.22-2.5,14.86-4.79,22.29-7.29v-.7c-7.43-2.5-15.07-4.65-22.29-7.15l-55.48-19.65V845.85H595.36v18.47H543.43c-10.48,0-25.59-1.6-36.1-2.57v.69l26.38,9.17,51,18.67v12l-51,18.74-26.38,9v.69c10.51-1,25.62-2.57,36.1-2.57h51.93v18.13Z" fill="#fff"/><path d="M580.82,807.36,567,795.63c7.74-8.13,13-19,13-29.58,0-12.77-5.8-19.79-14.65-19.79-9.34,0-12.33,7.33-16.7,17.64l-6.73,15.52c-4.66,11.17-13.51,22.94-30.1,22.94-18.09,0-32-16-32-38.11a49.78,49.78,0,0,1,14.48-35L507,739.6c-6.14,7.22-9.75,14.93-9.75,24.65,0,10.76,5,17.77,13.33,17.77,8.92,0,12.22-8.64,16.07-18l6.42-15.31c5.63-13.5,14.17-22.95,30.62-22.95,18.4,0,33.75,15.28,33.75,40.76A58.51,58.51,0,0,1,580.82,807.36Z" fill="#fff"/></svg>