<svg xmlns="http://www.w3.org/2000/svg" viewBox="0 0 500 443.01"><g id="Background_complete" data-name="Background complete"><path d="M304,68.9a32.48,32.48,0,0,0-4.63,11.22l-6.27.59V92.85l6.27.59A32.41,32.41,0,0,0,304,104.66l-4,4.84,8.58,8.58,4.84-4a32.41,32.41,0,0,0,11.22,4.63l.59,6.27h12.14l.59-6.27a32.48,32.48,0,0,0,11.22-4.63l4.84,4,8.58-8.58-4-4.84a32.41,32.41,0,0,0,4.63-11.22l6.27-.59V80.71l-6.27-.59a32.48,32.48,0,0,0-4.63-11.22l4-4.84L354,55.48l-4.84,4A32.48,32.48,0,0,0,338,54.85l-.59-6.27H325.22l-.59,6.27a32.41,32.41,0,0,0-11.22,4.63l-4.84-4L300,64.06Zm41.24,3.95a19.71,19.71,0,1,1-27.88,0A19.72,19.72,0,0,1,345.23,72.85Z" fill="#f0f0f0"/><rect x="179.24" width="95.58" height="75.46" rx="4.94" fill="#e6e6e6"/><path d="M183.86,0h86.41a4.55,4.55,0,0,1,4.55,4.55v8.61a0,0,0,0,1,0,0H179.24a0,0,0,0,1,0,0V4.63A4.63,4.63,0,0,1,183.86,0Z" fill="#e0e0e0"/><path d="M269.75,7.54a2.88,2.88,0,1,1-2.87-2.87A2.88,2.88,0,0,1,269.75,7.54Z" fill="#fafafa" opacity="0.5"/><path d="M261.59,7.54a2.88,2.88,0,1,1-2.88-2.87A2.88,2.88,0,0,1,261.59,7.54Z" fill="#fafafa" opacity="0.5"/><circle cx="250.55" cy="7.54" r="2.87" fill="#fafafa" opacity="0.5"/><rect x="201.18" y="24.16" width="51.14" height="2.68" fill="#fff" opacity="0.6"/><rect x="201.97" y="29.95" width="36.59" height="2.68" fill="#e0e0e0"/><rect x="256.84" y="24.16" width="9.35" height="2.68" fill="#f0f0f0"/><rect x="187.57" y="24.16" width="10.06" height="2.68" fill="#f0f0f0"/><rect x="201.18" y="36.39" width="51.14" height="2.68" fill="#f0f0f0"/><rect x="256.84" y="36.39" width="9.35" height="2.68" fill="#fff" opacity="0.6"/><rect x="187.57" y="36.39" width="10.06" height="2.68" fill="#f0f0f0"/><rect x="201.18" y="61.89" width="51.14" height="2.68" fill="#fff" opacity="0.6"/><rect x="256.84" y="61.89" width="9.35" height="2.68" fill="#fff" opacity="0.6"/><rect x="201.18" y="42.84" width="51.14" height="2.68" fill="#f0f0f0"/><rect x="256.84" y="42.84" width="9.35" height="2.68" fill="#e0e0e0"/><rect x="187.57" y="42.84" width="10.06" height="2.68" fill="#e0e0e0"/><rect x="242.57" y="30.06" width="24.31" height="2.68" fill="#f0f0f0"/><rect x="201.18" y="48.46" width="36.59" height="2.68" fill="#fff" opacity="0.6"/><rect x="241.77" y="48.57" width="24.31" height="2.68" fill="#f0f0f0"/><rect x="201.18" y="54.29" width="18.3" height="2.68" fill="#e0e0e0"/><path d="M400.3,53l-10.83,5.06,10.83,5.06v4.08l-14.47-7V56l14.47-7Z" fill="#e0e0e0"/><path d="M433.27,56v4.24l-14.48,7V63.15l10.83-5.06L418.79,53V49Z" fill="#e0e0e0"/><polygon points="412.08 46.11 405.02 70.51 408.55 70.51 415.61 46.11 412.08 46.11" fill="#e0e0e0"/><path d="M37.36,183.61a18.87,18.87,0,0,0-2.71,6.56l-3.66.34v7.09l3.66.35a18.82,18.82,0,0,0,2.71,6.55L35,207.33l5,5L42.85,210a19.06,19.06,0,0,0,6.56,2.71l.34,3.66h7.09l.35-3.66A18.93,18.93,0,0,0,63.74,210l2.83,2.34,5-5-2.34-2.83A18.82,18.82,0,0,0,72,198l3.66-.35v-7.09L72,190.17a18.87,18.87,0,0,0-2.71-6.56l2.34-2.82-5-5-2.83,2.33a18.91,18.91,0,0,0-6.55-2.7l-.35-3.66H49.75l-.34,3.66a19,19,0,0,0-6.56,2.7L40,175.78l-5,5Zm24.08,2.31a11.51,11.51,0,1,1-16.28,0A11.52,11.52,0,0,1,61.44,185.92Z" fill="#e0e0e0"/><path d="M439.11,101.09a15.67,15.67,0,0,0-2.25,5.44l-3,.29v5.88l3,.29a15.67,15.67,0,0,0,2.25,5.44l-1.94,2.35,4.16,4.16,2.35-1.94a15.64,15.64,0,0,0,5.44,2.24l.28,3h5.89l.29-3A15.8,15.8,0,0,0,461,123l2.34,1.94,4.17-4.16-1.94-2.35a15.84,15.84,0,0,0,2.24-5.44l3-.29v-5.88l-3-.29a15.67,15.67,0,0,0-2.25-5.44l1.95-2.35-4.17-4.16L461,96.52a15.8,15.8,0,0,0-5.44-2.24l-.29-3H449.4l-.28,3a15.64,15.64,0,0,0-5.44,2.24l-2.35-1.94-4.16,4.16Zm20,1.91a9.56,9.56,0,1,1-13.52,0A9.57,9.57,0,0,1,459.11,103Z" fill="#e0e0e0"/><rect x="435.76" y="392.24" width="34.85" height="0.26" fill="#ebebeb"/><rect x="336.6" y="395.1" width="9.15" height="0.26" fill="#ebebeb"/><rect x="414.51" y="382.47" width="20.19" height="0.26" fill="#ebebeb"/><rect x="52.46" y="384.24" width="45.44" height="0.26" fill="#ebebeb"/><rect x="107.27" y="384.24" width="6.66" height="0.26" fill="#ebebeb"/><rect x="135.59" y="388.68" width="98.56" height="0.26" fill="#ebebeb"/><path d="M443.92,314.91H263.17a5.87,5.87,0,0,1-5.86-5.86V45.78a5.87,5.87,0,0,1,5.86-5.86H443.92a5.87,5.87,0,0,1,5.86,5.86V309.05A5.87,5.87,0,0,1,443.92,314.91ZM263.17,40.17a5.61,5.61,0,0,0-5.61,5.61V309.05a5.61,5.61,0,0,0,5.61,5.61H443.92a5.61,5.61,0,0,0,5.61-5.61V45.78a5.61,5.61,0,0,0-5.61-5.61Z" fill="#e0e0e0"/><path d="M235.49,314.91H54.75a5.87,5.87,0,0,1-5.87-5.86V45.78a5.87,5.87,0,0,1,5.87-5.86H235.49a5.86,5.86,0,0,1,5.86,5.86V309.05A5.86,5.86,0,0,1,235.49,314.91ZM54.75,40.17a5.62,5.62,0,0,0-5.62,5.61V309.05a5.62,5.62,0,0,0,5.62,5.61H235.49a5.61,5.61,0,0,0,5.61-5.61V45.78a5.61,5.61,0,0,0-5.61-5.61Z" fill="#e0e0e0"/><rect y="375.98" width="500" height="0.25" fill="#e0e0e0"/></g><g id="Shadow"><path d="M455.06,413.26c0,3.38-93.52,6.13-208.88,6.13s-208.87-2.75-208.87-6.13,93.51-6.14,208.87-6.14S455.06,409.87,455.06,413.26Z" fill="#f5f5f5"/></g><g id="Device"><path d="M94.51,86.78h23.63a0,0,0,0,1,0,0V319.31a0,0,0,0,1,0,0H92.72A7.32,7.32,0,0,1,85.41,312V95.89A9.11,9.11,0,0,1,94.51,86.78Z" fill="#263238" style="isolation:isolate"/><polygon points="215.62 315.3 205.22 368.59 220.31 368.59 232.35 315.74 215.62 315.3" fill="#263238" style="isolation:isolate"/><rect x="192.53" y="367.95" width="7.64" height="7.64" fill="#263238" style="isolation:isolate"/><path d="M94.51,86.78h23.63a0,0,0,0,1,0,0V319.31a0,0,0,0,1,0,0H92.72A7.32,7.32,0,0,1,85.41,312V95.89A9.11,9.11,0,0,1,94.51,86.78Z" fill="#fff" opacity="0.5"/><polygon points="215.62 315.3 205.22 368.59 220.31 368.59 232.35 315.74 215.62 315.3" fill="#fff" opacity="0.5"/><rect x="192.53" y="367.95" width="7.64" height="7.64" fill="#fff" opacity="0.5"/><polygon points="310.38 375.6 213.46 375.6 227.23 294.84 291.73 294.84 310.38 375.6" fill="#263238"/><polygon points="310.38 375.6 213.46 375.6 227.23 294.84 291.73 294.84 310.38 375.6" fill="#fff" opacity="0.7"/><polygon points="297.35 319.31 223.02 319.31 220.31 335.22 299.51 328.68 297.35 319.31" opacity="0.1" style="isolation:isolate"/><rect x="198.03" y="367.95" width="125.63" height="7.64" fill="#263238"/><g opacity="0.7"><rect x="198.03" y="367.95" width="125.63" height="7.64" fill="#fff"/></g><path d="M101.23,86.78H415.47a8.11,8.11,0,0,1,8,8.17V311.14a8.11,8.11,0,0,1-8,8.17H101.23a8.11,8.11,0,0,1-8-8.17V95A8.11,8.11,0,0,1,101.23,86.78Z" fill="#263238"/><g opacity="0.7"><path d="M101.23,86.78H415.47a8.11,8.11,0,0,1,8,8.17V311.14a8.11,8.11,0,0,1-8,8.17H101.23a8.11,8.11,0,0,1-8-8.17V95A8.11,8.11,0,0,1,101.23,86.78Z" fill="#fff"/></g><rect x="100.55" y="94.78" width="314.18" height="208.46" fill="#474a88"/><rect x="100.55" y="94.78" width="314.18" height="208.46" fill="#fff" opacity="0.9"/><rect x="100.55" y="94.78" width="314.18" height="16.73" fill="#474a88"/><path d="M410.55,103.15A3.56,3.56,0,1,1,407,99.6,3.56,3.56,0,0,1,410.55,103.15Z" fill="#fff" opacity="0.5"/><path d="M400.44,103.15a3.56,3.56,0,1,1-3.55-3.55A3.56,3.56,0,0,1,400.44,103.15Z" fill="#fff" opacity="0.5"/><path d="M390.34,103.15a3.56,3.56,0,1,1-3.56-3.55A3.56,3.56,0,0,1,390.34,103.15Z" fill="#fff" opacity="0.5"/><path d="M158.8,233.59a14.73,14.73,0,0,0-2.08,5l-2.82.26v5.46l2.82.27a14.76,14.76,0,0,0,2.08,5l-1.8,2.18,3.86,3.86,2.18-1.8a14.68,14.68,0,0,0,5,2.08l.27,2.82h5.46l.26-2.82a14.73,14.73,0,0,0,5.05-2.08l2.17,1.8,3.86-3.86-1.8-2.18a14.59,14.59,0,0,0,2.09-5l2.81-.27V238.9l-2.81-.26a14.56,14.56,0,0,0-2.09-5l1.8-2.17-3.86-3.86-2.17,1.8a14.56,14.56,0,0,0-5.05-2.09l-.26-2.82h-5.46l-.27,2.81a14.51,14.51,0,0,0-5,2.09l-2.18-1.8L157,231.42Zm17.3,3a7.1,7.1,0,1,1-10,0A7.1,7.1,0,0,1,176.1,236.61Z" fill="#474a88"/><path d="M158.8,233.59a14.73,14.73,0,0,0-2.08,5l-2.82.26v5.46l2.82.27a14.76,14.76,0,0,0,2.08,5l-1.8,2.18,3.86,3.86,2.18-1.8a14.68,14.68,0,0,0,5,2.08l.27,2.82h5.46l.26-2.82a14.73,14.73,0,0,0,5.05-2.08l2.17,1.8,3.86-3.86-1.8-2.18a14.59,14.59,0,0,0,2.09-5l2.81-.27V238.9l-2.81-.26a14.56,14.56,0,0,0-2.09-5l1.8-2.17-3.86-3.86-2.17,1.8a14.56,14.56,0,0,0-5.05-2.09l-.26-2.82h-5.46l-.27,2.81a14.51,14.51,0,0,0-5,2.09l-2.18-1.8L157,231.42Zm17.3,3a7.1,7.1,0,1,1-10,0A7.1,7.1,0,0,1,176.1,236.61Z" fill="#fff" opacity="0.4"/><path d="M319.92,166.8a13.54,13.54,0,0,0-1.93,4.68l-2.61.24v5.06L318,177a13.54,13.54,0,0,0,1.93,4.68l-1.67,2,3.58,3.58,2-1.67a13.54,13.54,0,0,0,4.68,1.93l.24,2.61h5.06l.24-2.61a13.54,13.54,0,0,0,4.68-1.93l2,1.67,3.58-3.58-1.67-2a13.54,13.54,0,0,0,1.93-4.68l2.61-.24v-5.06l-2.61-.24a13.54,13.54,0,0,0-1.93-4.68l1.67-2-3.58-3.58-2,1.67a13.54,13.54,0,0,0-4.68-1.93l-.24-2.61h-5.06l-.24,2.61a13.54,13.54,0,0,0-4.68,1.93l-2-1.67-3.58,3.58Zm16,2.8a6.58,6.58,0,1,1-9.3,0A6.57,6.57,0,0,1,335.94,169.6Z" fill="#474a88"/><path d="M319.92,166.8a13.54,13.54,0,0,0-1.93,4.68l-2.61.24v5.06L318,177a13.54,13.54,0,0,0,1.93,4.68l-1.67,2,3.58,3.58,2-1.67a13.54,13.54,0,0,0,4.68,1.93l.24,2.61h5.06l.24-2.61a13.54,13.54,0,0,0,4.68-1.93l2,1.67,3.58-3.58-1.67-2a13.54,13.54,0,0,0,1.93-4.68l2.61-.24v-5.06l-2.61-.24a13.54,13.54,0,0,0-1.93-4.68l1.67-2-3.58-3.58-2,1.67a13.54,13.54,0,0,0-4.68-1.93l-.24-2.61h-5.06l-.24,2.61a13.54,13.54,0,0,0-4.68,1.93l-2-1.67-3.58,3.58Zm16,2.8a6.58,6.58,0,1,1-9.3,0A6.57,6.57,0,0,1,335.94,169.6Z" fill="#fff" opacity="0.4"/><path d="M313.66,138.82a8.9,8.9,0,0,0-1.24,3l-1.69.16v3.27l1.69.16a8.82,8.82,0,0,0,1.24,3l-1.08,1.3,2.31,2.31L316.2,151a8.57,8.57,0,0,0,3,1.25l.16,1.69h3.26l.16-1.69a8.57,8.57,0,0,0,3-1.25l1.3,1.08,2.31-2.31-1.07-1.3a8.82,8.82,0,0,0,1.24-3l1.69-.16V142l-1.69-.16a8.9,8.9,0,0,0-1.24-3l1.07-1.3-2.31-2.31-1.3,1.08a8.76,8.76,0,0,0-3-1.25l-.16-1.68h-3.26l-.16,1.68a8.76,8.76,0,0,0-3,1.25l-1.31-1.08-2.31,2.31ZM324,140.63a4.25,4.25,0,1,1-6,0A4.25,4.25,0,0,1,324,140.63Z" fill="#474a88"/><path d="M313.66,138.82a8.9,8.9,0,0,0-1.24,3l-1.69.16v3.27l1.69.16a8.82,8.82,0,0,0,1.24,3l-1.08,1.3,2.31,2.31L316.2,151a8.57,8.57,0,0,0,3,1.25l.16,1.69h3.26l.16-1.69a8.57,8.57,0,0,0,3-1.25l1.3,1.08,2.31-2.31-1.07-1.3a8.82,8.82,0,0,0,1.24-3l1.69-.16V142l-1.69-.16a8.9,8.9,0,0,0-1.24-3l1.07-1.3-2.31-2.31-1.3,1.08a8.76,8.76,0,0,0-3-1.25l-.16-1.68h-3.26l-.16,1.68a8.76,8.76,0,0,0-3,1.25l-1.31-1.08-2.31,2.31ZM324,140.63a4.25,4.25,0,1,1-6,0A4.25,4.25,0,0,1,324,140.63Z" fill="#fff" opacity="0.7"/><path d="M177,266.34a8.82,8.82,0,0,0-1.24,3l-1.69.16v3.27l1.69.16a8.82,8.82,0,0,0,1.24,3l-1.07,1.3,2.31,2.31,1.3-1.08a8.57,8.57,0,0,0,3,1.25l.16,1.69H186l.16-1.69a8.57,8.57,0,0,0,3-1.25l1.31,1.08,2.31-2.31L191.7,276a8.63,8.63,0,0,0,1.24-3l1.69-.16v-3.27l-1.69-.16a8.63,8.63,0,0,0-1.24-3l1.08-1.3-2.31-2.31-1.31,1.08a8.76,8.76,0,0,0-3-1.25l-.16-1.68h-3.26l-.16,1.68a8.76,8.76,0,0,0-3,1.25l-1.3-1.08L175.93,265Zm10.36,1.81a4.25,4.25,0,1,1-6,0A4.25,4.25,0,0,1,187.36,268.15Z" fill="#474a88"/><path d="M177,266.34a8.82,8.82,0,0,0-1.24,3l-1.69.16v3.27l1.69.16a8.82,8.82,0,0,0,1.24,3l-1.07,1.3,2.31,2.31,1.3-1.08a8.57,8.57,0,0,0,3,1.25l.16,1.69H186l.16-1.69a8.57,8.57,0,0,0,3-1.25l1.31,1.08,2.31-2.31L191.7,276a8.63,8.63,0,0,0,1.24-3l1.69-.16v-3.27l-1.69-.16a8.63,8.63,0,0,0-1.24-3l1.08-1.3-2.31-2.31-1.31,1.08a8.76,8.76,0,0,0-3-1.25l-.16-1.68h-3.26l-.16,1.68a8.76,8.76,0,0,0-3,1.25l-1.3-1.08L175.93,265Zm10.36,1.81a4.25,4.25,0,1,1-6,0A4.25,4.25,0,0,1,187.36,268.15Z" fill="#fff" opacity="0.7"/><path d="M199.5,172.06a63,63,0,0,0-9,21.8L178.32,195v23.58l12.18,1.15a63.14,63.14,0,0,0,9,21.81l-7.78,9.39,16.68,16.68,9.39-7.78a63.14,63.14,0,0,0,21.81,9L240.75,281h23.58l1.15-12.18a63,63,0,0,0,21.8-9l9.4,7.78,16.68-16.68-7.78-9.39a63.14,63.14,0,0,0,9-21.81l12.17-1.15V195l-12.17-1.15a63.09,63.09,0,0,0-9-21.8l7.78-9.4L296.68,146l-9.4,7.77a63.09,63.09,0,0,0-21.8-9l-1.15-12.18H240.75l-1.15,12.17a63.14,63.14,0,0,0-21.81,9L208.4,146l-16.68,16.68Zm80.12,7.66a38.3,38.3,0,1,1-54.16,0A38.31,38.31,0,0,1,279.62,179.72Z" fill="#474a88"/><path d="M243.89,195.27h-4.14v-2.93h11.86v2.93H247.4v12.5h-3.51Z" fill="#474a88"/><path d="M253.46,192.55a29.86,29.86,0,0,1,4.65-.32c2.29,0,3.89.34,5,1.21a3.91,3.91,0,0,1,1.42,3.23,4.1,4.1,0,0,1-2.72,3.8v.07a3.85,3.85,0,0,1,2.05,2.88c.49,1.74,1,3.75,1.26,4.35h-3.57a20.46,20.46,0,0,1-1.07-3.59c-.41-1.93-1.08-2.45-2.5-2.48h-1.05v6.07h-3.46Zm3.46,6.63h1.37c1.74,0,2.77-.86,2.77-2.22s-1-2.12-2.56-2.15a8.11,8.11,0,0,0-1.58.12Z" fill="#474a88"/><path d="M225.7,218.45a5.93,5.93,0,0,0,2.58.64c1.07,0,1.63-.44,1.63-1.11s-.49-1-1.72-1.45c-1.71-.6-2.83-1.54-2.83-3,0-1.76,1.47-3.1,3.9-3.1a6.35,6.35,0,0,1,2.62.52l-.52,1.88a4.84,4.84,0,0,0-2.15-.49c-1,0-1.5.46-1.5,1s.58,1,1.91,1.45c1.82.68,2.67,1.62,2.67,3.07,0,1.73-1.32,3.21-4.15,3.21a6.76,6.76,0,0,1-2.92-.64Z" fill="#474a88"/><path d="M235.3,213.38l1.11,3.67c.13.44.28,1,.37,1.39h.05c.1-.4.22-1,.33-1.39l.92-3.67h2.49l-1.74,4.92c-1.07,3-1.79,4.15-2.63,4.9a4.26,4.26,0,0,1-2.24,1l-.49-2a3.07,3.07,0,0,0,1-.4,2.61,2.61,0,0,0,1-.93.67.67,0,0,0,.12-.34.89.89,0,0,0-.11-.38l-2.73-6.83Z" fill="#474a88"/><path d="M241.28,218.82a4.53,4.53,0,0,0,2,.57c.7,0,1-.25,1-.63s-.23-.57-1.1-.86c-1.54-.51-2.13-1.36-2.12-2.23,0-1.4,1.19-2.45,3-2.45a5,5,0,0,1,2.11.42l-.41,1.61a3.6,3.6,0,0,0-1.62-.43c-.57,0-.89.23-.89.61s.29.53,1.21.86c1.42.48,2,1.2,2,2.3,0,1.39-1.1,2.43-3.24,2.43a5.31,5.31,0,0,1-2.41-.53Z" fill="#474a88"/><path d="M250.52,211.35v2h1.66v1.71h-1.66v2.71c0,.9.21,1.31.91,1.31a3.34,3.34,0,0,0,.69-.06v1.76a4.5,4.5,0,0,1-1.51.21,2.39,2.39,0,0,1-1.74-.66,3.07,3.07,0,0,1-.64-2.21v-3.06h-1v-1.71h1V212Z" fill="#474a88"/><path d="M255.23,217.86c.08,1,1,1.42,2.11,1.42a6.51,6.51,0,0,0,2.06-.31l.31,1.58A7.54,7.54,0,0,1,257,221c-2.53,0-4-1.48-4-3.82a3.73,3.73,0,0,1,3.77-4c2.41,0,3.33,1.87,3.33,3.72a5.52,5.52,0,0,1-.08.92Zm2.73-1.59a1.34,1.34,0,0,0-1.31-1.51,1.51,1.51,0,0,0-1.43,1.51Z" fill="#474a88"/><path d="M261.5,215.77c0-.93,0-1.73-.06-2.39h2l.1,1h.05a2.6,2.6,0,0,1,2.26-1.17,2.12,2.12,0,0,1,2.05,1.26h0a3.26,3.26,0,0,1,1-.9,2.72,2.72,0,0,1,1.42-.36c1.44,0,2.52,1,2.52,3.23v4.4h-2.26v-4.06c0-1.09-.35-1.71-1.1-1.71a1.13,1.13,0,0,0-1.07.81,2,2,0,0,0-.09.59v4.37H266v-4.18c0-.95-.34-1.59-1.07-1.59a1.17,1.17,0,0,0-1.08.84,1.48,1.48,0,0,0-.1.58v4.35H261.5Z" fill="#474a88"/><path d="M274.62,218.82a4.49,4.49,0,0,0,2,.57c.7,0,1-.25,1-.63s-.23-.57-1.1-.86c-1.54-.51-2.14-1.36-2.12-2.23,0-1.4,1.19-2.45,3-2.45a5,5,0,0,1,2.11.42l-.41,1.61a3.6,3.6,0,0,0-1.62-.43c-.56,0-.88.23-.88.61s.29.53,1.2.86c1.42.48,2,1.2,2,2.3,0,1.39-1.1,2.43-3.23,2.43a5.39,5.39,0,0,1-2.42-.53Z" fill="#474a88"/><path d="M217.79,211.65a.5.5,0,0,1-.5-.45A37.14,37.14,0,0,1,225.86,183a.5.5,0,1,1,.76.65,36.11,36.11,0,0,0-8.33,27.42.51.51,0,0,1-.45.55Z" fill="#474a88"/><path d="M219.48,219.55a.49.49,0,0,1-.48-.36,38.93,38.93,0,0,1-1-4.24.5.5,0,0,1,1-.18,39.49,39.49,0,0,0,1,4.14.51.51,0,0,1-.34.62A.36.36,0,0,1,219.48,219.55Z" fill="#474a88"/><polyline points="128.33 154.57 128.33 204.63 171.08 204.63" fill="none" stroke="#474a88" stroke-linecap="round" stroke-linejoin="round"/><circle cx="128.33" cy="154.57" r="2.56" fill="#474a88"/><circle cx="389.2" cy="244.19" r="2.56" fill="#474a88"/><polyline points="389.2 243.82 389.2 263.67 326.58 263.67 326.58 236.26 317.2 236.26" fill="none" stroke="#474a88" stroke-miterlimit="10"/></g><g id="Server"><rect x="359.99" y="271.16" width="108.89" height="104.44" fill="#474a88"/><rect x="359.99" y="271.16" width="108.89" height="104.44" fill="#fff" opacity="0.4" style="isolation:isolate"/><rect x="394.65" y="271.16" width="74.22" height="104.44" fill="#fff" opacity="0.4" style="isolation:isolate"/><rect x="398.36" y="276.5" width="66.8" height="12.93" fill="#474a88"/><rect x="398.36" y="292.67" width="66.8" height="12.93" fill="#474a88"/><rect x="398.36" y="308.83" width="66.8" height="12.93" fill="#474a88"/><rect x="398.36" y="325" width="66.8" height="12.93" fill="#474a88"/><rect x="398.36" y="341.17" width="66.8" height="12.93" fill="#474a88"/><rect x="398.36" y="357.34" width="66.8" height="12.93" fill="#474a88"/><rect x="363.88" y="276.5" width="26.89" height="12.93" fill="#474a88"/><rect x="363.88" y="292.67" width="26.89" height="12.93" fill="#474a88"/><rect x="363.88" y="308.83" width="26.89" height="12.93" fill="#474a88"/><rect x="363.88" y="325" width="26.89" height="12.93" fill="#474a88"/><rect x="363.88" y="341.17" width="26.89" height="12.93" fill="#474a88"/><rect x="363.88" y="357.34" width="26.89" height="12.93" fill="#474a88"/><rect x="460.33" y="278.18" width="1.56" height="9.57" fill="#fff" opacity="0.3" style="isolation:isolate"/><rect x="457.33" y="278.18" width="1.56" height="9.57" fill="#fff" opacity="0.3" style="isolation:isolate"/><rect x="454.33" y="278.18" width="1.56" height="9.57" fill="#fff" opacity="0.3" style="isolation:isolate"/><rect x="451.33" y="278.18" width="1.56" height="9.57" fill="#fff" opacity="0.3" style="isolation:isolate"/><rect x="448.33" y="278.18" width="1.56" height="9.57" fill="#fff" opacity="0.3" style="isolation:isolate"/><rect x="460.33" y="294.35" width="1.56" height="9.56" fill="#fff" opacity="0.3" style="isolation:isolate"/><rect x="457.33" y="294.35" width="1.56" height="9.56" fill="#fff" opacity="0.3" style="isolation:isolate"/><rect x="454.33" y="294.35" width="1.56" height="9.56" fill="#fff" opacity="0.3" style="isolation:isolate"/><rect x="451.33" y="294.35" width="1.56" height="9.56" fill="#fff" opacity="0.3" style="isolation:isolate"/><rect x="448.33" y="294.35" width="1.56" height="9.56" fill="#fff" opacity="0.3" style="isolation:isolate"/><rect x="460.33" y="310.52" width="1.56" height="9.56" fill="#fff" opacity="0.3" style="isolation:isolate"/><rect x="457.33" y="310.52" width="1.56" height="9.56" fill="#fff" opacity="0.3" style="isolation:isolate"/><rect x="454.33" y="310.52" width="1.56" height="9.56" fill="#fff" opacity="0.3" style="isolation:isolate"/><rect x="451.33" y="310.52" width="1.56" height="9.56" fill="#fff" opacity="0.3" style="isolation:isolate"/><rect x="448.33" y="310.52" width="1.56" height="9.56" fill="#fff" opacity="0.3" style="isolation:isolate"/><rect x="460.33" y="326.69" width="1.56" height="9.57" fill="#fff" opacity="0.3" style="isolation:isolate"/><rect x="457.33" y="326.69" width="1.56" height="9.57" fill="#fff" opacity="0.3" style="isolation:isolate"/><rect x="454.33" y="326.69" width="1.56" height="9.57" fill="#fff" opacity="0.3" style="isolation:isolate"/><rect x="451.33" y="326.69" width="1.56" height="9.57" fill="#fff" opacity="0.3" style="isolation:isolate"/><rect x="448.33" y="326.69" width="1.56" height="9.57" fill="#fff" opacity="0.3" style="isolation:isolate"/><rect x="460.33" y="342.86" width="1.56" height="9.56" fill="#fff" opacity="0.3" style="isolation:isolate"/><rect x="457.33" y="342.86" width="1.56" height="9.56" fill="#fff" opacity="0.3" style="isolation:isolate"/><rect x="454.33" y="342.86" width="1.56" height="9.56" fill="#fff" opacity="0.3" style="isolation:isolate"/><rect x="451.33" y="342.86" width="1.56" height="9.56" fill="#fff" opacity="0.3" style="isolation:isolate"/><rect x="448.33" y="342.86" width="1.56" height="9.56" fill="#fff" opacity="0.3" style="isolation:isolate"/><rect x="460.33" y="359.02" width="1.56" height="9.57" fill="#fff" opacity="0.3" style="isolation:isolate"/><rect x="457.33" y="359.02" width="1.56" height="9.57" fill="#fff" opacity="0.3" style="isolation:isolate"/><rect x="454.33" y="359.02" width="1.56" height="9.57" fill="#fff" opacity="0.3" style="isolation:isolate"/><rect x="451.33" y="359.02" width="1.56" height="9.57" fill="#fff" opacity="0.3" style="isolation:isolate"/><rect x="448.33" y="359.02" width="1.56" height="9.57" fill="#fff" opacity="0.3" style="isolation:isolate"/><path d="M406.13,283a1.59,1.59,0,1,1-1.59-1.59h0A1.59,1.59,0,0,1,406.13,283Z" fill="#fff" opacity="0.2" style="isolation:isolate"/><path d="M416.13,283a1.59,1.59,0,1,1-1.59-1.59h0A1.59,1.59,0,0,1,416.13,283Z" fill="#fff" opacity="0.2" style="isolation:isolate"/><path d="M426.13,283a1.59,1.59,0,1,1-1.59-1.59h0A1.59,1.59,0,0,1,426.13,283Z" fill="#fff" opacity="0.4" style="isolation:isolate"/><path d="M406.13,299.13a1.59,1.59,0,1,1-1.59-1.59h0A1.59,1.59,0,0,1,406.13,299.13Z" fill="#fff" opacity="0.4" style="isolation:isolate"/><path d="M416.13,299.13a1.59,1.59,0,1,1-1.59-1.59h0A1.59,1.59,0,0,1,416.13,299.13Z" fill="#fff" opacity="0.2" style="isolation:isolate"/><path d="M426.13,299.13a1.59,1.59,0,1,1-1.59-1.59h0A1.59,1.59,0,0,1,426.13,299.13Z" fill="#fff" opacity="0.4" style="isolation:isolate"/><path d="M406.13,315.3a1.59,1.59,0,1,1-1.59-1.59h0A1.59,1.59,0,0,1,406.13,315.3Z" fill="#fff" opacity="0.2" style="isolation:isolate"/><path d="M416.13,315.3a1.59,1.59,0,1,1-1.59-1.59h0A1.59,1.59,0,0,1,416.13,315.3Z" fill="#fff" opacity="0.4" style="isolation:isolate"/><path d="M426.13,315.3a1.59,1.59,0,1,1-1.59-1.59h0A1.59,1.59,0,0,1,426.13,315.3Z" fill="#fff" opacity="0.2" style="isolation:isolate"/><path d="M406.13,331.47a1.59,1.59,0,1,1-1.59-1.59h0A1.59,1.59,0,0,1,406.13,331.47Z" fill="#fff" opacity="0.4" style="isolation:isolate"/><path d="M416.13,331.47a1.59,1.59,0,1,1-1.59-1.59h0A1.59,1.59,0,0,1,416.13,331.47Z" fill="#fff" opacity="0.2" style="isolation:isolate"/><path d="M426.13,331.47a1.59,1.59,0,1,1-1.59-1.59h0A1.59,1.59,0,0,1,426.13,331.47Z" fill="#fff" opacity="0.2" style="isolation:isolate"/><path d="M406.13,347.64a1.59,1.59,0,1,1-1.59-1.59h0A1.59,1.59,0,0,1,406.13,347.64Z" fill="#fff" opacity="0.2" style="isolation:isolate"/><path d="M416.13,347.64a1.59,1.59,0,1,1-1.59-1.59h0A1.59,1.59,0,0,1,416.13,347.64Z" fill="#fff" opacity="0.4" style="isolation:isolate"/><path d="M426.13,347.64a1.59,1.59,0,1,1-1.59-1.59h0A1.59,1.59,0,0,1,426.13,347.64Z" fill="#fff" opacity="0.4" style="isolation:isolate"/><path d="M406.13,363.81a1.59,1.59,0,1,1-1.59-1.59h0A1.59,1.59,0,0,1,406.13,363.81Z" fill="#fff" opacity="0.4" style="isolation:isolate"/><path d="M416.13,363.81a1.59,1.59,0,1,1-1.59-1.59h0A1.59,1.59,0,0,1,416.13,363.81Z" fill="#fff" opacity="0.2" style="isolation:isolate"/><path d="M426.13,363.81a1.59,1.59,0,1,1-1.59-1.59h0A1.59,1.59,0,0,1,426.13,363.81Z" fill="#fff" opacity="0.4" style="isolation:isolate"/><rect x="359.99" y="271.16" width="34.66" height="104.44" opacity="0.3"/></g><g id="Screens"><rect x="354.01" y="141.03" width="111.08" height="93.4" rx="4.94" fill="#474a88"/><rect x="354.01" y="141.03" width="111.08" height="93.4" rx="4.94" fill="#fff" opacity="0.5"/><path d="M358.64,141H460.54a4.55,4.55,0,0,1,4.55,4.55v11.74a0,0,0,0,1,0,0H354a0,0,0,0,1,0,0V145.66A4.63,4.63,0,0,1,358.64,141Z" fill="#474a88"/><path d="M458.81,150.36a3.56,3.56,0,1,1-3.55-3.55A3.55,3.55,0,0,1,458.81,150.36Z" fill="#fff" opacity="0.5"/><path d="M448.71,150.36a3.56,3.56,0,1,1-3.56-3.55A3.56,3.56,0,0,1,448.71,150.36Z" fill="#fff" opacity="0.5"/><path d="M438.6,150.36a3.56,3.56,0,1,1-3.55-3.55A3.55,3.55,0,0,1,438.6,150.36Z" fill="#fff" opacity="0.5"/><rect x="379.01" y="170.93" width="56.97" height="3.32" fill="#fff" opacity="0.6"/><rect x="379.89" y="178.11" width="40.77" height="3.32" fill="#263238" opacity="0.6"/><rect x="440.17" y="170.93" width="11.21" height="3.32" fill="#474a88"/><rect x="363.84" y="170.93" width="11.21" height="3.32" fill="#474a88"/><rect x="379.01" y="186.08" width="56.97" height="3.32" fill="#474a88"/><rect x="440.17" y="186.08" width="11.21" height="3.32" fill="#fff" opacity="0.6"/><rect x="363.84" y="186.08" width="11.21" height="3.32" fill="#474a88"/><rect x="379.01" y="217.64" width="56.97" height="3.32" fill="#474a88"/><rect x="440.17" y="217.64" width="11.21" height="3.32" fill="#fff" opacity="0.6"/><rect x="379.01" y="194.06" width="56.97" height="3.32" fill="#474a88"/><rect x="440.17" y="194.06" width="11.21" height="3.32" fill="#263238" opacity="0.6"/><rect x="363.84" y="194.06" width="11.21" height="3.32" fill="#263238" opacity="0.6"/><rect x="425.12" y="178.24" width="27.08" height="3.32" fill="#474a88"/><rect x="379.01" y="201.02" width="40.77" height="3.32" fill="#fff" opacity="0.6"/><rect x="424.23" y="201.15" width="27.08" height="3.32" fill="#474a88"/><rect x="379.01" y="208.23" width="20.38" height="3.32" fill="#263238" opacity="0.6"/><rect x="52.7" y="45.42" width="111.08" height="93.4" rx="4.94" fill="#474a88"/><rect x="52.7" y="45.42" width="111.08" height="93.4" rx="4.94" fill="#fff" opacity="0.5"/><path d="M57.32,45.42H159.23A4.55,4.55,0,0,1,163.77,50V61.71a0,0,0,0,1,0,0H52.7a0,0,0,0,1,0,0V50.05A4.63,4.63,0,0,1,57.32,45.42Z" fill="#474a88"/><path d="M157.5,54.76A3.56,3.56,0,1,1,154,51.2,3.55,3.55,0,0,1,157.5,54.76Z" fill="#fff" opacity="0.5"/><path d="M147.4,54.76a3.56,3.56,0,1,1-3.56-3.56A3.55,3.55,0,0,1,147.4,54.76Z" fill="#fff" opacity="0.5"/><path d="M137.29,54.76a3.56,3.56,0,1,1-3.55-3.56A3.55,3.55,0,0,1,137.29,54.76Z" fill="#fff" opacity="0.5"/><path d="M143.24,97.49C139.56,92.55,132,90.14,127,93.71a21,21,0,0,0-41.65,5.81c-4.86-1.11-10.2.06-13.35,5.08-4.1,6.5,1.21,13,1.21,13l28.5.17V107.27H98.05a.73.73,0,0,1-.53-1.24l4.19-4.38,4.86-5.07a.74.74,0,0,1,1.06,0l4.85,5.07,4.2,4.38a.74.74,0,0,1-.53,1.24H112.5v10.51l30.34.17C147.16,113,146.93,102.43,143.24,97.49Z" fill="#fff"/></g><g id="Character"><path d="M100.52,378.38s87.12-20.41,91.26-2.27c5.92,25.91-56.94,43.33-90.42,42.27S100.52,378.38,100.52,378.38Z" fill="#263238" style="isolation:isolate"/><path d="M100.52,378.38s87.12-20.41,91.26-2.27c5.92,25.91-56.94,43.33-90.42,42.27S100.52,378.38,100.52,378.38Z" opacity="0.2" style="isolation:isolate"/><path d="M163.2,381.71l-40.92,26,5.46,7.76s-2.87,4.27-8.35-8.83l25.31-16.73s-7.92-.79-7.72-2c.34-2,17.74-5.91,25.68-7.65a.79.79,0,1,1,.54,1.48Z" opacity="0.7" style="isolation:isolate"/><path d="M120.8,404.78l7.1,11.51a143,143,0,0,1-26.54,2.09,25.36,25.36,0,0,1-8.55-1.55l-2.49-4.56,5.36-10.8Z" opacity="0.7" style="isolation:isolate"/><polygon points="134.34 400.21 116.15 411.75 119.41 420.58 140.77 410.98 134.34 400.21" fill="#b97964"/><path d="M106.13,414.71l1.79,6.35a2.52,2.52,0,0,1,1.76,1.62,8.33,8.33,0,0,1-.32,2.82L114.14,443a7.56,7.56,0,0,0,1.67-.66,7.87,7.87,0,0,0,1.39-1.26c1.3-1.49,1.44-3.66,1.49-5.26.08-2.68,1.62-10.53,1.62-10.53a8.79,8.79,0,0,1,2.75-3.85,3.92,3.92,0,0,0,1.65-3.05,2.3,2.3,0,0,0-2.88-2l-1.74.21a3,3,0,0,1-.83-4s1-3.81-.57-3.17c-.92.36-4.93,2.16-8.15,3.48l-2.08.85h0Z" fill="#263238"/><path d="M119.64,429.48a.25.25,0,0,0-.06-.29,2.83,2.83,0,0,0-1.36-.71c-.28-.05-.4.39-.13.45a2.58,2.58,0,0,1,1.21.61.21.21,0,0,0,.34-.05Z" fill="#407bff" stroke="#474a88" stroke-miterlimit="10"/><path d="M120,427.93a.25.25,0,0,0-.06-.29,2.88,2.88,0,0,0-1.36-.71c-.28-.05-.41.39-.13.45a2.58,2.58,0,0,1,1.21.61.21.21,0,0,0,.34-.05Z" fill="#407bff" stroke="#474a88" stroke-miterlimit="10"/><path d="M120.3,426.36a.28.28,0,0,0-.06-.3,2.85,2.85,0,0,0-1.37-.7c-.27-.06-.4.38-.12.44a2.52,2.52,0,0,1,1.2.62.21.21,0,0,0,.34-.06Z" fill="#407bff" stroke="#474a88" stroke-miterlimit="10"/><path d="M108.46,413.75h0l-2.33,1,1.79,6.35a2.52,2.52,0,0,1,1.76,1.62,8.33,8.33,0,0,1-.32,2.82L114.14,443a7.56,7.56,0,0,0,1.67-.66c.26-.19.49-.38.71-.57l-7.71-28.17Z" fill="#fff" opacity="0.2" style="isolation:isolate"/><path d="M120.05,426.25a10.49,10.49,0,0,1,1.81-.55,3.7,3.7,0,0,1,1.87.1.89.89,0,0,1,.62.57.83.83,0,0,1-.4.78,2.28,2.28,0,0,1-1.71.32,8.16,8.16,0,0,1-2.19-1.22" fill="none" stroke="#474a88" stroke-miterlimit="10" stroke-width="0.25"/><path d="M120,426.18a11.31,11.31,0,0,0,1.41-1.27,3.54,3.54,0,0,0,.88-1.65.88.88,0,0,0-.16-.82.8.8,0,0,0-.87-.06,2.21,2.21,0,0,0-1.16,1.29,8.08,8.08,0,0,0-.1,2.51" fill="none" stroke="#474a88" stroke-miterlimit="10" stroke-width="0.25"/><path d="M136.51,323s3.18,28.32,4,29.84c2.88,5.14,21.93,13.95,21.93,13.95l9.71-2,7,5.81-4.59,3.59-5.38-2a50.16,50.16,0,0,1-8.9.78c-5,0-29.21-6.13-33.25-12.88s-5.89-38-5.89-38Z" fill="#b97964"/><path d="M120.71,334.08s-7.46-24.88,1.84-31.78,16.69,27.29,16.69,27.29Z" fill="#474a88"/><path d="M120.71,334.08s-7.46-24.88,1.84-31.78,16.69,27.29,16.69,27.29Z" fill="#fff" opacity="0.3"/><path d="M126.6,379.58l-.07-33-.92-45.4-19.27-4-17-.75L70.1,305.32l-.45,11.08s2.2,50.86,2.08,52.4c-.15,1.88-5.63,13.67-5.63,13.67C90.48,388,127,381.26,126.6,379.58Z" fill="#474a88"/><path d="M126.6,379.58l-.07-33-.92-45.4-19.27-4-17-.75L70.1,305.32l-.45,11.08s2.2,50.86,2.08,52.4c-.15,1.88-5.63,13.67-5.63,13.67C90.48,388,127,381.26,126.6,379.58Z" fill="#fff" opacity="0.3"/><path d="M99,303.8s4.73,4.21,7.15-1.23l1.26,1s-.12,4.05-2.42,5.4c.56,2.25,10.16,34.95,11.88,51.43l-2.62,6.69-7-5.51s-3.38-28.27-4.54-52.3a9.78,9.78,0,0,1-6-5.71Z" fill="#474a88"/><polygon points="105.1 304.35 109.2 307.54 109.87 297.97 108.57 297.69 107.48 304.14 105.54 303.01 105.1 304.35" opacity="0.2"/><path d="M85.35,298.34c-.07,0,9.65,11.89,9.65,11.89l3.3-2.52,2.27-1.92.59-.72-12.87-8.94a18.27,18.27,0,0,1-1.9,1.76A5.93,5.93,0,0,0,85.35,298.34Z" opacity="0.2"/><polygon points="86.04 298.14 90.74 293.94 103.61 305.99 100.25 304.8 95.34 308.56 86.04 298.14" fill="#474a88"/><path d="M103.61,306c-.28-.55,1-11.49,1-11.49l4.56,3.12c-.24-.05-.4,9-.55,9s-3-3.1-3-3.1Z" fill="#474a88"/><polygon points="126.26 332.74 125.26 311.48 130.02 331.83 126.26 332.74" opacity="0.2"/><path d="M85,335.84c.6-.12,3.63-1.12,3.63-1.12L81.9,315.94l9.27,20.78-5.57,2.22Z" opacity="0.2"/><polygon points="86.04 298.14 90.74 293.94 103.61 305.99 100.25 304.8 95.34 308.56 86.04 298.14" fill="#fff" opacity="0.3"/><path d="M103.61,306c-.28-.55,1-11.49,1-11.49l4.56,3.12c-.24-.05-.4,9-.55,9s-3-3.1-3-3.1Z" fill="#fff" opacity="0.3"/><polygon points="110.91 323.57 113.07 334.18 119.36 336.46 123.61 332.75 122.83 322.73 110.91 323.57" fill="#fff" opacity="0.3"/><path d="M104.38,305.07l-2,.48s-.07.13,0,.05-1.09,3.77-1.09,3.77c.32.29,1.39,2.14,1.51,2.11s2.77-.28,2.77-.28l1-2.8Z" fill="#474a88"/><path d="M104.38,305.07l-2,.48s-.07.13,0,.05-1.09,3.77-1.09,3.77c.32.29,1.39,2.14,1.51,2.11s2.77-.28,2.77-.28l1-2.8Z" opacity="0.2"/><path d="M82.41,320.26s4.72,31.44,7.45,34.38c4.61,5,27.46,18.15,27.46,18.15l11.41-4a2.54,2.54,0,0,1,2.33.38l7.8,5.95-.74.63a1.08,1.08,0,0,1-1.17.14l-1.21-.6,1.35,1.32-.42.37a1.74,1.74,0,0,1-1.57.34l-3.49-.94,3.22,2.15a2.91,2.91,0,0,1-2.64.55l-5.1-1.45a65.1,65.1,0,0,1-10.59,1.51c-6,.37-34.37-9.54-39.66-16.79S66.1,325,66.1,325Z" fill="#b97964"/><path d="M67.31,341.18s-7.07-28.5,2.23-35.41,18.51,29.15,18.51,29.15Z" fill="#474a88"/><path d="M67.31,341.18s-7.07-28.5,2.23-35.41,18.51,29.15,18.51,29.15Z" fill="#fff" opacity="0.3"/><path d="M128.18,267.46a2.49,2.49,0,0,0,.21-4.92l-5.51-.55c.26,3.54.52,7.07.79,10.61a5.71,5.71,0,0,0,3.25,0,3.54,3.54,0,0,0,2.28-2.23A2.58,2.58,0,0,0,128.18,267.46Z" fill="#263238"/><path d="M107.11,287.87,95.26,273s0,0,0,.05c0,1.41,0,3-.16,4.74,0,0-1.28-.61-1.28-.59-.51,7.74-3.57,21-3.43,22.1l12.45,6.18,2.27-2.26.44-5C104.28,295,105.46,291.3,107.11,287.87Z" fill="#b97964"/><path d="M105.33,292.9,97.84,287c-.19,3,1.39,7.75,7.4,10.21A8.77,8.77,0,0,1,105.33,292.9Z" opacity="0.2"/><path d="M97.79,265.57c-2.45,10-3.38,14.85,0,21.41,5.15,9.85,17.74,9.94,23.16.81,4.87-8.21,8.07-23.24-.4-30.06A14.25,14.25,0,0,0,97.79,265.57Z" fill="#b97964"/><path d="M99.9,252c3-5,11-5.81,13.93-1.86.43.59-4.31.73-3.77.7l-2.78,7.91c-.55-.31-1.91,0-3.06,1.64,0,0-1.79,10.88-7.43,13.92C91.26,266.62,91.89,252,99.9,252Z" fill="#263238"/><path d="M91.35,272.57a9.71,9.71,0,0,0,2.94,6.87c2.49,2.37,5.37.53,6.06-2.65.61-2.87.06-7.57-3.09-8.73S91.35,269.39,91.35,272.57Z" fill="#b97964"/><path d="M111.37,274c-.31,1,0,2,.63,2.18s1.45-.46,1.77-1.46,0-2-.63-2.19S111.69,273,111.37,274Z" fill="#263238"/><path d="M121.25,277.19c-.31,1,0,2,.63,2.18s1.46-.46,1.77-1.46,0-2-.63-2.19S121.57,276.18,121.25,277.19Z" fill="#263238"/><path d="M117.77,274.5s1.26,4.59,1.83,7.31a1.08,1.08,0,0,1-1,1.31,6,6,0,0,1-2.81-.77Z" fill="#a24e3f"/><path d="M110.32,267.93a.51.51,0,0,0,.49.09,4,4,0,0,1,3.57.27.51.51,0,0,0,.7-.11.48.48,0,0,0-.11-.68,4.94,4.94,0,0,0-4.51-.4.5.5,0,0,0-.29.63A.5.5,0,0,0,110.32,267.93Z" fill="#263238"/><path d="M126.5,272.6a.48.48,0,0,0,.26-.12.5.5,0,0,0,0-.7,4.89,4.89,0,0,0-4.15-1.69.51.51,0,0,0-.42.57.5.5,0,0,0,.56.41,3.78,3.78,0,0,1,3.27,1.38A.49.49,0,0,0,126.5,272.6Z" fill="#263238"/><path d="M110.54,284.4a8.21,8.21,0,0,0,1.1.75.3.3,0,0,0,.37-.08h0a.29.29,0,0,0-.12-.37,7.15,7.15,0,0,1-3.7-5.32.27.27,0,0,0-.28-.24.24.24,0,0,0-.25.22.07.07,0,0,0,0,.05A7.28,7.28,0,0,0,110.54,284.4Z" fill="#263238"/><path d="M133.15,260c-.68-2-3.06-2.84-5.17-3a2.68,2.68,0,0,0,2.37-2.69,4.47,4.47,0,0,0-1.86-3.36,6.92,6.92,0,0,0-6.71-1,1,1,0,0,0,.43-1.19,2.26,2.26,0,0,0-.84-1.07,6.23,6.23,0,0,0-7.75.38,5.13,5.13,0,0,0-6-3.37c-2.39.62-6.89,1.1-7.58,7.21a5,5,0,1,0-5.86,8,2.34,2.34,0,0,0-2.9,1.35,3.35,3.35,0,0,0,.66,3.32,6.16,6.16,0,0,0,3,1.78,5.89,5.89,0,0,0,3.3.1,3.21,3.21,0,0,0,2.23-2.28,2.38,2.38,0,0,0,2.54,1.88,2.77,2.77,0,0,0,2.32-2.28,3.3,3.3,0,0,0-1.28-3.06,3,3,0,0,0,4.59-.9,9.39,9.39,0,0,0,4.3,4.47,4.86,4.86,0,0,0,5.74-1.22,10.37,10.37,0,0,0,2.08,2,3.35,3.35,0,0,0,2.77.49,2,2,0,0,0,1.45-2.21,5.89,5.89,0,0,0,5.54,1.28A4,4,0,0,0,133.15,260Z" fill="#263238"/><path d="M143.43,377.4H107.27c0,1.39,1.55,2.5,3.45,2.49h58.89c1.88,0,3.39-1.13,3.38-2.5Z" fill="#263238"/><path d="M170.15,379.76h-33a.94.94,0,0,1-1-.83.75.75,0,0,1,.05-.26L150.85,345a2.86,2.86,0,0,1,2.73-1.63h33a.93.93,0,0,1,1,.82.66.66,0,0,1-.06.27l-14.69,33.69A2.9,2.9,0,0,1,170.15,379.76Z" fill="#263238"/><path d="M186.63,343.36h-33a2.86,2.86,0,0,0-2.73,1.63L136.71,377.4H107.27c0,1.39,1.55,2.5,3.45,2.49h58.89a4.23,4.23,0,0,0,1.63-.33,2.61,2.61,0,0,0,1.65-1.43l14.69-33.69a.66.66,0,0,0,.06-.27A.93.93,0,0,0,186.63,343.36Z" fill="#fff" opacity="0.7" style="isolation:isolate"/><path d="M166.78,361.3c-.72,1.61-2.16,2.72-3.24,2.5s-1.37-1.7-.67-3.32,2.15-2.71,3.23-2.48S167.5,359.64,166.78,361.3Z" fill="#fff"/><g opacity="0.3"><path d="M150.85,345,136.71,377.4h1.53l15.34-34A2.86,2.86,0,0,0,150.85,345Z"/></g><polygon points="152.55 414.77 173.83 418.19 177.24 409.42 154.88 402.44 152.55 414.77" fill="#b97964"/><path d="M183.29,422.62l2.87-5.94a2.49,2.49,0,0,1-.24-2.38c.32-.72,2.11-1.9,2.11-1.9l8-16.28a7.16,7.16,0,0,0-1.69-.61,8.38,8.38,0,0,0-1.88,0c-1.95.27-3.49,1.79-4.59,3-1.84,2-8.2,6.81-8.2,6.81a8.71,8.71,0,0,1-4.61,1,3.94,3.94,0,0,0-3.26,1.2,2.29,2.29,0,0,0,.81,3.42l1.45,1a3,3,0,0,1-2,3.55s-3.3,2.17-1.67,2.75c.92.33,5.12,1.66,8.4,2.8l2.13.74h0Z" fill="#263238"/><path d="M183,402.6a.25.25,0,0,0-.16.26,3,3,0,0,0,.56,1.43c.17.23.56,0,.39-.25a2.54,2.54,0,0,1-.5-1.26.2.2,0,0,0-.29-.18Z" fill="#407bff" stroke="#474a88" stroke-miterlimit="10"/><path d="M181.67,403.52a.25.25,0,0,0-.15.26,2.84,2.84,0,0,0,.55,1.43c.17.23.56,0,.39-.25a2.49,2.49,0,0,1-.49-1.26.22.22,0,0,0-.29-.18Z" fill="#407bff" stroke="#474a88" stroke-miterlimit="10"/><path d="M180.4,404.51a.25.25,0,0,0-.15.26,2.89,2.89,0,0,0,.56,1.43c.16.22.55,0,.38-.25a2.66,2.66,0,0,1-.49-1.26.22.22,0,0,0-.29-.19Z" fill="#407bff" stroke="#474a88" stroke-miterlimit="10"/><path d="M185.92,414.3c.32-.72,2.11-1.9,2.11-1.9l8-16.28a7.16,7.16,0,0,0-1.69-.61c-.32,0-.62,0-.91,0l-12.9,26.2.36.12h0l2.38.83,2.87-5.94A2.49,2.49,0,0,1,185.92,414.3Z" fill="#fff" opacity="0.2" style="isolation:isolate"/><path d="M180.52,404.75a10.71,10.71,0,0,1-1.72-.79,3.58,3.58,0,0,1-1.33-1.32.88.88,0,0,1-.09-.84.83.83,0,0,1,.81-.31,2.22,2.22,0,0,1,1.49.89,8.68,8.68,0,0,1,.84,2.37" fill="none" stroke="#474a88" stroke-miterlimit="10" stroke-width="0.25"/><path d="M180.48,404.82a10,10,0,0,0-1.89,0,3.59,3.59,0,0,0-1.76.65.88.88,0,0,0-.42.73.83.83,0,0,0,.61.62,2.2,2.2,0,0,0,1.72-.2,8.31,8.31,0,0,0,1.74-1.81" fill="none" stroke="#474a88" stroke-miterlimit="10" stroke-width="0.25"/><path d="M72.61,405.06c-4.59-7.3-15-27.11,6.08-31s91.36,29.55,91.36,29.55l-4.45,13.42-65.45-10.31s9,11.95-1.91,11.41C82.44,416.6,78.65,412.82,72.61,405.06Z" fill="#263238"/><path d="M101.7,407.12l-18-5.65s15.06,9.21,20.59,10.31Z" opacity="0.7" style="isolation:isolate"/></g><g id="Speech_Bubble" data-name="Speech Bubble"><path d="M35,236.61H71.6a6,6,0,0,1,6,6v19.76a6,6,0,0,1-6,6H62.84l-.06,6-6.59-6H35a6,6,0,0,1-6-6V242.6A6,6,0,0,1,35,236.61Z" fill="#474a88"/><path d="M48.79,249.36,43,252.05l5.77,2.7v2.17l-7.71-3.74v-2.25l7.71-3.74Z" fill="#fff"/><path d="M66.35,250.93v2.25l-7.71,3.74v-2.17l5.77-2.7-5.77-2.69v-2.17Z" fill="#fff"/><polygon points="55.07 245.67 51.31 258.67 53.19 258.67 56.95 245.67 55.07 245.67" fill="#fff"/><path d="M63.15,235.26H44.36a.25.25,0,0,1,0-.5H63.15a.25.25,0,0,1,0,.5Z" fill="#474a88"/><path d="M68.34,235.27h-3a.25.25,0,1,1,0-.5h3a.25.25,0,0,1,0,.5Z" fill="#474a88"/></g></svg>